<?xml version="1.0" encoding="utf-8"?>
<!-- Generator: Adobe Illustrator 16.0.0, SVG Export Plug-In . SVG Version: 6.00 Build 0)  -->
<!DOCTYPE svg PUBLIC "-//W3C//DTD SVG 1.1//EN" "http://www.w3.org/Graphics/SVG/1.1/DTD/svg11.dtd">
<svg version="1.1" id="Layer_1" xmlns="http://www.w3.org/2000/svg" xmlns:xlink="http://www.w3.org/1999/xlink" x="0px" y="0px"
	 width="120px" height="120px" viewBox="0 0 120 120" enable-background="new 0 0 120 120" xml:space="preserve">
<g>
	<path fill="#e0a409" d="M55.469,65.339c-2.896,1.272-7.273,2.003-12.01,2.003c-1.194,0-2.376-0.047-3.512-0.139
		c-0.287-0.013-0.517,0.182-0.539,0.457s0.183,0.518,0.457,0.539c1.163,0.096,2.372,0.143,3.594,0.143
		c4.87,0,9.395-0.761,12.412-2.088c0.253-0.111,0.368-0.406,0.257-0.658C56.016,65.342,55.722,65.229,55.469,65.339z"/>
	<path fill="#e0a409" d="M55.469,59.714c-2.896,1.272-7.273,2.003-12.01,2.003c-1.194,0-2.376-0.047-3.512-0.139
		c-0.287-0.02-0.517,0.182-0.539,0.457s0.183,0.518,0.457,0.539c1.163,0.096,2.372,0.143,3.594,0.143
		c4.87,0,9.395-0.761,12.412-2.088c0.253-0.111,0.368-0.406,0.257-0.658C56.016,59.717,55.722,59.604,55.469,59.714z"/>
	<path fill="#e0a409" d="M62.863,53.132c1.153,0.092,2.363,0.139,3.595,0.139c4.877,0,9.401-0.762,12.413-2.09c0.252-0.111,0.367-0.407,0.255-0.659
		c-0.111-0.253-0.405-0.368-0.659-0.256c-2.889,1.274-7.266,2.005-12.009,2.005c-1.205,0-2.388-0.046-3.515-0.136
		c-0.271-0.018-0.517,0.183-0.538,0.458C62.383,52.869,62.588,53.11,62.863,53.132z"/>
	<path fill="#e0a409" d="M62.865,47.525c1.161,0.095,2.37,0.143,3.593,0.143c4.872,0,9.396-0.762,12.412-2.089c0.253-0.111,0.368-0.406,0.257-0.659
		c-0.112-0.252-0.406-0.367-0.659-0.256c-2.895,1.274-7.271,2.004-12.01,2.004c-1.196,0-2.377-0.047-3.511-0.14
		c-0.284-0.021-0.517,0.182-0.539,0.458C62.386,47.261,62.591,47.502,62.865,47.525z"/>
	<path fill="#e0a409" d="M62.865,41.775c1.161,0.095,2.37,0.143,3.593,0.143c4.872,0,9.396-0.762,12.412-2.089c0.253-0.111,0.368-0.406,0.257-0.659
		c-0.112-0.252-0.406-0.365-0.659-0.256c-2.895,1.274-7.271,2.004-12.01,2.004c-1.196,0-2.377-0.047-3.511-0.14
		c-0.284-0.02-0.517,0.182-0.539,0.458C62.386,41.511,62.591,41.752,62.865,41.775z"/>
	<path fill="#e0a409" d="M62.865,36.025c1.161,0.095,2.37,0.143,3.593,0.143c4.872,0,9.396-0.762,12.412-2.089c0.253-0.111,0.368-0.406,0.257-0.659
		c-0.112-0.252-0.406-0.366-0.659-0.256c-2.895,1.274-7.271,2.004-12.01,2.004c-1.196,0-2.377-0.047-3.511-0.14
		c-0.284-0.018-0.517,0.183-0.539,0.458C62.386,35.761,62.591,36.002,62.865,36.025z"/>
	<path fill="#e0a409" d="M101.261,87.464c-2.896,1.272-7.273,2.003-12.01,2.003c-1.194,0-2.376-0.047-3.512-0.139
		c-0.286-0.014-0.517,0.182-0.539,0.457s0.183,0.518,0.457,0.539c1.163,0.096,2.372,0.143,3.594,0.143
		c4.87,0,9.395-0.762,12.412-2.088c0.253-0.111,0.368-0.406,0.257-0.658C101.809,87.467,101.514,87.354,101.261,87.464z"/>
	<path fill="#e0a409" d="M89.251,84.717c4.852,0,9.365-0.757,12.384-2.078c0.253-0.11,0.368-0.404,0.258-0.658c-0.11-0.253-0.405-0.368-0.658-0.258
		c-2.896,1.268-7.265,1.994-11.983,1.994c-1.174,0-2.356-0.047-3.513-0.139c-0.271-0.018-0.517,0.184-0.538,0.459
		c-0.022,0.275,0.183,0.516,0.458,0.538C86.842,84.67,88.05,84.717,89.251,84.717z"/>
	<path fill="#e0a409" d="M101.261,76.089c-2.896,1.272-7.273,2.003-12.01,2.003c-1.194,0-2.376-0.047-3.512-0.139
		c-0.286-0.02-0.517,0.182-0.539,0.457s0.183,0.518,0.457,0.539c1.163,0.096,2.372,0.143,3.594,0.143
		c4.87,0,9.395-0.761,12.412-2.088c0.253-0.111,0.368-0.406,0.257-0.658C101.809,76.092,101.514,75.979,101.261,76.089z"/>
	<path fill="#e0a409" d="M101.261,70.464c-2.896,1.272-7.273,2.003-12.01,2.003c-1.194,0-2.376-0.047-3.512-0.139
		c-0.286-0.018-0.517,0.182-0.539,0.457s0.183,0.518,0.457,0.539c1.163,0.096,2.372,0.143,3.594,0.143
		c4.87,0,9.395-0.761,12.412-2.088c0.253-0.111,0.368-0.406,0.257-0.658C101.809,70.468,101.514,70.354,101.261,70.464z"/>
	<path fill="#e0a409" d="M101.261,64.839c-2.896,1.272-7.273,2.003-12.01,2.003c-1.194,0-2.376-0.047-3.512-0.139
		c-0.286-0.016-0.517,0.182-0.539,0.457s0.183,0.518,0.457,0.539c1.163,0.096,2.372,0.143,3.594,0.143
		c4.87,0,9.395-0.761,12.412-2.088c0.253-0.111,0.368-0.406,0.257-0.658C101.809,64.843,101.514,64.729,101.261,64.839z"/>
	<path fill="#e0a409" d="M105.065,90.441V59.655c0-0.095-0.033-0.177-0.078-0.253c-0.282-3.519-8.215-5.618-15.908-5.618
		c-2.263,0-4.542,0.187-6.648,0.532V28.343c0-0.083-0.024-0.157-0.061-0.226c0.033-0.067,0.057-0.14,0.057-0.22
		c0-3.636-8.113-5.809-15.957-5.809c-7.848,0-15.965,2.173-15.965,5.809c0,0.066,0.015,0.129,0.037,0.187
		c-0.033,0.067-0.056,0.14-0.056,0.22v20.033c-2.248-0.402-4.725-0.615-7.176-0.615c-7.665,0-15.565,2.077-15.93,5.562
		c-0.031,0.066-0.053,0.137-0.053,0.215v28.485c-7.373,0.096-14.785,2.093-15.339,5.404c-0.043,0.073-0.074,0.154-0.074,0.246v4.914
		c-0.003,0.023-0.014,0.043-0.014,0.066c0,0.033,0.013,0.064,0.014,0.098v0.195c0,0.082,0.024,0.154,0.059,0.223
		c0.731,3.324,8.437,5.295,15.913,5.295c7.595,0,15.418-2.035,15.933-5.455c0.003-0.021,0.013-0.041,0.013-0.062v-0.027
		c0.01-0.09,0.037-0.174,0.037-0.266c0-0.064-0.015-0.127-0.037-0.184v-1.312c7.687-0.096,15.45-2.246,15.45-5.801
		c0-0.016-0.008-0.028-0.009-0.043v-3.86c2.21,0.392,4.671,0.607,7.185,0.607c2.268,0,4.552-0.187,6.662-0.531v8.927
		c-0.003,0.023-0.014,0.043-0.014,0.066c0,0.033,0.013,0.064,0.014,0.098v0.449c0,0.158,0.079,0.295,0.195,0.385
		c1.257,3.07,8.618,4.879,15.776,4.879c7.485,0,15.199-1.977,15.912-5.309c0.036-0.068,0.062-0.145,0.062-0.227v-0.213
		c0-0.02,0.009-0.041,0.009-0.062C105.074,90.469,105.067,90.457,105.065,90.441z M27.887,97.426c-7.8,0-13.504-1.979-14.731-4.006
		c-0.146-0.242-0.225-0.482-0.24-0.721v-4.824c0.006-0.031,0.019-0.061,0.019-0.092c0-2.226,5.887-4.693,14.395-4.799
		c0.188-0.002,0.37-0.01,0.562-0.01c0.149,0,0.291,0.006,0.438,0.008c8.512,0.082,14.422,2.529,14.504,4.754v2.383v1v1.721
		c-0.221,1.273-2.305,2.594-5.665,3.49C34.683,96.992,31.517,97.426,27.887,97.426z M43.832,90.119V87.82
		c0.001-0.012,0.008-0.023,0.008-0.037c0-0.02-0.007-0.037-0.008-0.057v-0.092c0-0.07-0.015-0.137-0.04-0.197
		c-0.491-3.359-8.017-5.379-15.464-5.456V53.623c0.006-0.031,0.019-0.06,0.019-0.092c0-2.274,6.146-4.809,14.964-4.809
		c8.815,0,14.958,2.534,14.958,4.809c0,0.03,0.012,0.056,0.018,0.085c-0.003,0.021-0.013,0.04-0.013,0.061v31.642
		c0,0.008,0.005,0.016,0.005,0.023C58.236,87.564,52.341,90.018,43.832,90.119z M66.458,81.022c-2.522,0-4.989-0.219-7.185-0.622
		V53.676c0-0.03-0.012-0.056-0.017-0.085c0.002-0.021,0.012-0.04,0.012-0.061c0-2.328-3.331-4.051-7.782-4.994V28.303
		c0-0.066-0.015-0.129-0.038-0.187c0.034-0.067,0.057-0.14,0.057-0.22c0-2.274,6.146-4.809,14.965-4.809
		c8.814,0,14.957,2.534,14.957,4.809c0,0.083,0.024,0.157,0.061,0.226c-0.033,0.067-0.057,0.14-0.057,0.22v26.152
		c-3.013,0.586-5.561,1.521-7.007,2.754c-1.141,0.24-2.365,0.432-3.647,0.561c-2.511,0.252-5.234,0.279-7.831,0.074
		c-0.254-0.018-0.516,0.184-0.537,0.459c-0.022,0.275,0.184,0.516,0.459,0.537c1.18,0.094,2.388,0.141,3.591,0.141
		c1.505,0,2.991-0.072,4.418-0.217c0.888-0.089,1.739-0.207,2.558-0.346c-0.183,0.361-0.295,0.736-0.295,1.134
		c0,0.058,0.015,0.11,0.032,0.163c-0.03,0.064-0.051,0.135-0.051,0.212v3.278c-0.776,0.13-1.582,0.239-2.413,0.322
		c-2.51,0.248-5.218,0.271-7.761,0.064c-0.274-0.017-0.517,0.184-0.538,0.459c-0.022,0.275,0.183,0.516,0.458,0.539
		c1.173,0.094,2.381,0.143,3.592,0.143c1.475,0,2.937-0.071,4.347-0.211c0.799-0.078,1.572-0.179,2.315-0.299v4.732
		c-0.805,0.135-1.64,0.248-2.503,0.33c-2.477,0.239-5.192,0.26-7.67,0.057c-0.284-0.019-0.517,0.184-0.539,0.459
		c-0.022,0.274,0.183,0.516,0.457,0.539c1.161,0.094,2.37,0.143,3.593,0.143c1.449-0.001,2.881-0.068,4.255-0.201
		c0.832-0.08,1.636-0.184,2.407-0.309v4.733c-0.805,0.134-1.641,0.247-2.505,0.331c-2.491,0.238-5.187,0.258-7.668,0.055
		c-0.284-0.021-0.517,0.183-0.539,0.459c-0.022,0.274,0.183,0.516,0.457,0.539c1.165,0.094,2.374,0.143,3.593,0.143
		c1.441,0,2.872-0.067,4.253-0.201c0.833-0.08,1.637-0.184,2.409-0.308v4.724C71.153,80.821,68.914,81.022,66.458,81.022z
		 M89.092,95.295c-8.412,0-14.382-2.299-14.931-4.484c-0.021-0.08-0.036-0.162-0.041-0.242v-9.256v-1.006v-4.718v-1.024v-4.727
		v-1.023v-4.729v-1.023v-3.095c0-0.058-0.015-0.11-0.033-0.163c0.031-0.064,0.052-0.135,0.052-0.212
		c0-0.472,0.277-0.953,0.773-1.422c0.794-0.75,2.183-1.463,4.041-2.041c0.753-0.234,1.579-0.446,2.478-0.628
		c0.324-0.066,0.659-0.126,1-0.184c0.335-0.057,0.676-0.11,1.026-0.158c1.706-0.236,3.589-0.376,5.622-0.376
		c8.801,0,14.935,2.534,14.935,4.809c0,0.077,0.021,0.147,0.052,0.214v30.73C103.972,92.799,97.853,95.295,89.092,95.295z"/>
	<path fill="#e0a409" d="M55.469,82.233c-2.197,0.967-5.34,1.639-8.85,1.892c-0.275,0.02-0.482,0.258-0.463,0.533
		c0.02,0.264,0.238,0.465,0.498,0.465c0.013,0,0.024,0,0.037-0.002c3.62-0.26,6.881-0.961,9.18-1.973
		c0.253-0.111,0.368-0.406,0.257-0.658C56.016,82.236,55.722,82.123,55.469,82.233z"/>
	<path fill="#e0a409" d="M55.469,70.964c-2.896,1.272-7.273,2.003-12.01,2.003c-1.194,0-2.376-0.047-3.512-0.139
		c-0.287-0.016-0.517,0.182-0.539,0.457s0.183,0.518,0.457,0.539c1.163,0.096,2.372,0.143,3.594,0.143
		c4.87,0,9.395-0.761,12.412-2.088c0.253-0.111,0.368-0.406,0.257-0.658C56.016,70.967,55.722,70.854,55.469,70.964z"/>
	<path fill="#e0a409" d="M40.548,90.012c-0.112-0.254-0.406-0.365-0.659-0.256c-0.154,0.068-0.329,0.127-0.492,0.191
		c-0.682,0.271-1.427,0.518-2.237,0.732c-2.626,0.693-5.854,1.08-9.28,1.08c-1.194,0-2.376-0.047-3.512-0.141
		c-0.29-0.016-0.517,0.184-0.539,0.459s0.183,0.516,0.457,0.539c1.163,0.094,2.372,0.143,3.594,0.143
		c4.497,0,8.685-0.656,11.678-1.801c0.248-0.096,0.504-0.188,0.734-0.289c0.244-0.105,0.355-0.385,0.263-0.633
		C40.55,90.029,40.552,90.02,40.548,90.012z"/>
	<path fill="#e0a409" d="M55.469,76.631c-2.896,1.272-7.273,2.003-12.01,2.003c-1.194,0-2.376-0.047-3.512-0.14
		c-0.287-0.02-0.517,0.183-0.539,0.458s0.183,0.517,0.457,0.539c1.163,0.095,2.372,0.143,3.594,0.143
		c4.87,0,9.395-0.761,12.412-2.089c0.253-0.11,0.368-0.405,0.257-0.658C56.016,76.634,55.722,76.521,55.469,76.631z"/>
</g>
</svg>
