<?xml version="1.0" encoding="utf-8"?>
<!-- Generator: Adobe Illustrator 16.0.0, SVG Export Plug-In . SVG Version: 6.00 Build 0)  -->
<!DOCTYPE svg PUBLIC "-//W3C//DTD SVG 1.1//EN" "http://www.w3.org/Graphics/SVG/1.1/DTD/svg11.dtd">
<svg version="1.1" id="Layer_1" xmlns="http://www.w3.org/2000/svg" xmlns:xlink="http://www.w3.org/1999/xlink" x="0px" y="0px"
	 width="120px" height="120px" viewBox="0 0 120 120" enable-background="new 0 0 120 120" xml:space="preserve">
<g>
	<path fill="#e0a409" d="M75.818,74.549c0.001-0.021,0.01-0.041,0.01-0.062c0-0.016-0.008-0.027-0.01-0.043v-25.1c0-0.015-0.007-0.027-0.008-0.043
		c0-0.007,0.004-0.012,0.004-0.02c0-3.635-8.114-5.809-15.959-5.809c-7.847,0-15.963,2.174-15.963,5.809
		c0,0.059,0.014,0.111,0.032,0.163c-0.03,0.065-0.052,0.136-0.052,0.212v24.762c-0.003,0.023-0.014,0.045-0.014,0.068
		c0,0.033,0.013,0.064,0.014,0.098v0.447c0,0.16,0.08,0.295,0.195,0.387c1.258,3.07,8.619,4.879,15.777,4.879
		c7.485,0,15.199-1.977,15.912-5.309c0.035-0.068,0.061-0.145,0.061-0.229V74.549z M59.846,79.297
		c-8.726,0-14.826-2.475-14.973-4.729V49.656c0-0.057-0.014-0.11-0.032-0.162c0.03-0.064,0.052-0.136,0.052-0.213
		c0-2.273,6.145-4.809,14.963-4.809c8.815,0,14.959,2.535,14.959,4.809c0,0.016,0.007,0.029,0.008,0.044
		c0,0.007-0.004,0.013-0.004,0.019v25.196C74.725,76.801,68.607,79.297,59.846,79.297z"/>
	<path fill="#e0a409" d="M72.014,71.465c-2.896,1.273-7.273,2.004-12.01,2.004c-1.194,0-2.376-0.047-3.512-0.141
		c-0.271-0.016-0.516,0.184-0.539,0.459c-0.022,0.275,0.183,0.516,0.458,0.539c1.163,0.094,2.372,0.143,3.593,0.143
		c4.871,0,9.395-0.762,12.412-2.088c0.254-0.111,0.368-0.406,0.257-0.66C72.562,71.469,72.269,71.354,72.014,71.465z"/>
	<path fill="#e0a409" d="M60.004,68.719c4.852,0,9.366-0.758,12.385-2.078c0.253-0.111,0.368-0.406,0.258-0.658s-0.404-0.369-0.658-0.258
		c-2.897,1.268-7.266,1.994-11.984,1.994c-1.174,0-2.355-0.047-3.513-0.139c-0.271-0.02-0.516,0.184-0.538,0.459
		c-0.021,0.273,0.184,0.516,0.459,0.537C57.596,68.67,58.804,68.719,60.004,68.719z"/>
	<path fill="#e0a409" d="M72.014,60.089c-2.896,1.274-7.273,2.004-12.01,2.004c-1.194,0-2.376-0.047-3.512-0.141
		c-0.271-0.016-0.516,0.184-0.539,0.459c-0.022,0.275,0.183,0.516,0.458,0.539c1.163,0.094,2.372,0.143,3.593,0.143
		c4.871,0,9.395-0.762,12.412-2.088c0.254-0.112,0.368-0.407,0.257-0.66C72.562,60.093,72.269,59.978,72.014,60.089z"/>
	<path fill="#e0a409" d="M72.014,54.464c-2.896,1.273-7.273,2.004-12.01,2.004c-1.194,0-2.376-0.047-3.512-0.14
		c-0.271-0.015-0.516,0.183-0.539,0.458c-0.022,0.275,0.183,0.517,0.458,0.539c1.163,0.095,2.372,0.143,3.593,0.143
		c4.871,0,9.395-0.762,12.412-2.088c0.254-0.111,0.368-0.406,0.257-0.659C72.562,54.468,72.269,54.354,72.014,54.464z"/>
</g>
</svg>
