<?xml version="1.0" encoding="utf-8"?>
<!-- Generator: Adobe Illustrator 16.0.0, SVG Export Plug-In . SVG Version: 6.00 Build 0)  -->
<!DOCTYPE svg PUBLIC "-//W3C//DTD SVG 1.1//EN" "http://www.w3.org/Graphics/SVG/1.1/DTD/svg11.dtd">
<svg version="1.1" id="Layer_1" xmlns="http://www.w3.org/2000/svg" xmlns:xlink="http://www.w3.org/1999/xlink" x="0px" y="0px"
	 width="120px" height="120px" viewBox="0 0 120 120" enable-background="new 0 0 120 120" xml:space="preserve">
<g>
	<path fill="#e0a409" d="M49.104,64.34c-2.896,1.271-7.273,2.002-12.01,2.002c-1.194,0-2.376-0.047-3.513-0.139
		c-0.272-0.018-0.516,0.182-0.539,0.457c-0.021,0.275,0.184,0.518,0.459,0.539c1.162,0.096,2.371,0.143,3.593,0.143
		c4.87,0,9.394-0.76,12.412-2.088c0.253-0.111,0.368-0.406,0.257-0.658S49.357,64.229,49.104,64.34z"/>
	<path fill="#e0a409" d="M49.104,58.714c-2.896,1.272-7.273,2.003-12.01,2.003c-1.194,0-2.376-0.047-3.513-0.14
		c-0.272-0.018-0.516,0.183-0.539,0.458c-0.021,0.275,0.184,0.518,0.459,0.539c1.162,0.096,2.371,0.143,3.593,0.143
		c4.87,0,9.394-0.76,12.412-2.088c0.253-0.11,0.368-0.405,0.257-0.658S49.357,58.601,49.104,58.714z"/>
	<path fill="#e0a409" d="M56.499,52.132c1.153,0.092,2.363,0.139,3.595,0.139c4.877,0,9.401-0.762,12.412-2.09c0.254-0.111,0.367-0.406,0.256-0.658
		s-0.406-0.367-0.658-0.256c-2.889,1.273-7.267,2.004-12.01,2.004c-1.205,0-2.388-0.045-3.515-0.136
		c-0.276-0.019-0.517,0.184-0.538,0.458C56.019,51.869,56.224,52.111,56.499,52.132z"/>
	<path fill="#e0a409" d="M56.502,46.525c1.16,0.095,2.369,0.143,3.592,0.143c4.872,0,9.396-0.762,12.412-2.09c0.253-0.111,0.367-0.406,0.256-0.658
		s-0.404-0.367-0.658-0.256c-2.895,1.273-7.271,2.004-12.01,2.004c-1.195,0-2.377-0.047-3.512-0.14
		c-0.273-0.015-0.516,0.183-0.539,0.458C56.021,46.261,56.227,46.502,56.502,46.525z"/>
	<path fill="#e0a409" d="M56.502,40.775c1.179,0.095,2.387,0.143,3.592,0.143c4.852,0,9.365-0.758,12.385-2.079
		c0.252-0.111,0.367-0.406,0.257-0.659c-0.11-0.252-0.403-0.368-0.659-0.257c-2.896,1.268-7.264,1.995-11.982,1.995
		c-1.178,0-2.359-0.047-3.512-0.14c-0.279-0.013-0.516,0.184-0.539,0.458C56.021,40.512,56.227,40.752,56.502,40.775z"/>
	<path fill="#e0a409" d="M94.896,86.465c-2.896,1.271-7.273,2.002-12.01,2.002c-1.194,0-2.376-0.047-3.513-0.139
		c-0.271-0.018-0.516,0.182-0.539,0.457c-0.021,0.275,0.184,0.518,0.459,0.539c1.162,0.096,2.371,0.143,3.593,0.143
		c4.87,0,9.394-0.762,12.412-2.088c0.253-0.111,0.368-0.406,0.257-0.658C95.444,86.467,95.149,86.352,94.896,86.465z"/>
	<path fill="#e0a409" d="M82.887,83.717c4.852,0,9.366-0.756,12.384-2.078c0.254-0.109,0.369-0.404,0.258-0.658
		c-0.109-0.252-0.404-0.367-0.658-0.258c-2.896,1.268-7.265,1.994-11.983,1.994c-1.175,0-2.356-0.047-3.513-0.139
		c-0.268-0.02-0.517,0.184-0.539,0.459c-0.021,0.275,0.184,0.516,0.459,0.539C80.478,83.67,81.687,83.717,82.887,83.717z"/>
	<path fill="#e0a409" d="M94.896,75.09c-2.896,1.271-7.273,2.002-12.01,2.002c-1.194,0-2.376-0.047-3.513-0.139
		c-0.271-0.016-0.516,0.182-0.539,0.457c-0.021,0.275,0.184,0.518,0.459,0.539c1.162,0.096,2.371,0.143,3.593,0.143
		c4.87,0,9.394-0.76,12.412-2.088c0.253-0.111,0.368-0.406,0.257-0.658C95.444,75.092,95.149,74.979,94.896,75.09z"/>
	<path fill="#e0a409" d="M94.896,69.465c-2.896,1.271-7.273,2.002-12.01,2.002c-1.194,0-2.376-0.047-3.513-0.139
		c-0.271-0.014-0.516,0.182-0.539,0.457c-0.021,0.275,0.184,0.518,0.459,0.539c1.162,0.096,2.371,0.143,3.593,0.143
		c4.87,0,9.394-0.76,12.412-2.088c0.253-0.111,0.368-0.406,0.257-0.658S95.149,69.354,94.896,69.465z"/>
	<path fill="#e0a409" d="M94.896,63.84c-2.896,1.271-7.273,2.002-12.01,2.002c-1.194,0-2.376-0.047-3.513-0.139
		c-0.271-0.023-0.516,0.182-0.539,0.457c-0.021,0.275,0.184,0.518,0.459,0.539c1.162,0.096,2.371,0.143,3.593,0.143
		c4.87,0,9.394-0.76,12.412-2.088c0.253-0.111,0.368-0.406,0.257-0.658C95.444,63.842,95.149,63.727,94.896,63.84z"/>
	<path fill="#e0a409" d="M98.701,89.441V58.656c0-0.095-0.033-0.178-0.078-0.254c-0.282-3.519-8.216-5.617-15.908-5.617
		c-2.263,0-4.543,0.186-6.648,0.531v-20.54c0-0.025-0.011-0.048-0.015-0.072c0.002-0.018,0.011-0.034,0.011-0.053
		c0-3.636-8.113-5.808-15.957-5.808c-7.832,0-15.929,2.164-15.962,5.787c-0.008,0.035-0.021,0.069-0.021,0.107v14.6
		c-2.247-0.402-4.726-0.614-7.176-0.614c-7.665,0-15.565,2.076-15.929,5.562c-0.032,0.065-0.054,0.138-0.054,0.216v31.34
		c0,0.084,0.026,0.16,0.062,0.229c-0.044,0.076-0.076,0.158-0.076,0.25c0,3.637,8.128,5.809,15.985,5.809
		c7.856,0,15.982-2.172,15.982-5.809c0-0.016-0.008-0.027-0.009-0.043v-3.859c2.21,0.391,4.671,0.607,7.185,0.607
		c2.268,0,4.552-0.188,6.662-0.531v8.926c-0.004,0.023-0.014,0.043-0.014,0.066c0,0.033,0.012,0.064,0.014,0.098v0.449
		c0,0.158,0.079,0.295,0.195,0.385c1.257,3.07,8.618,4.879,15.776,4.879c7.486,0,15.199-1.977,15.912-5.309
		c0.036-0.068,0.062-0.145,0.062-0.227v-0.213c0.001-0.02,0.009-0.041,0.009-0.062C98.71,89.469,98.702,89.457,98.701,89.441z
		 M36.936,89.127c-8.831,0-14.985-2.533-14.985-4.809c0-0.084-0.026-0.16-0.062-0.229c0.044-0.074,0.076-0.156,0.076-0.25V52.623
		c0.006-0.031,0.019-0.06,0.019-0.092c0-2.275,6.146-4.809,14.964-4.809c8.815,0,14.958,2.533,14.958,4.809
		c0,0.029,0.012,0.056,0.018,0.084c-0.003,0.021-0.013,0.04-0.013,0.062v31.642c0,0.008,0.005,0.016,0.005,0.023
		C51.871,86.611,45.734,89.127,36.936,89.127z M60.094,80.023c-2.521,0-4.988-0.219-7.185-0.623V52.676
		c0-0.03-0.013-0.056-0.017-0.085c0.002-0.021,0.012-0.039,0.012-0.061c0-2.328-3.331-4.052-7.782-4.994V32.743
		c0.006-0.031,0.019-0.059,0.019-0.092c0-2.274,6.146-4.808,14.965-4.808c8.814,0,14.957,2.534,14.957,4.808
		c0,0.025,0.011,0.048,0.015,0.072c-0.002,0.018-0.011,0.034-0.011,0.053v20.72c-3.012,0.586-5.561,1.521-7.007,2.754
		c-1.14,0.239-2.366,0.432-3.647,0.561c-2.509,0.253-5.234,0.279-7.83,0.074c-0.279-0.016-0.516,0.184-0.539,0.459
		c-0.021,0.275,0.184,0.516,0.459,0.538c1.181,0.093,2.389,0.141,3.592,0.141c1.505,0,2.991-0.073,4.418-0.217
		c0.889-0.089,1.74-0.207,2.558-0.347c-0.183,0.361-0.295,0.737-0.295,1.135c0,0.057,0.015,0.11,0.032,0.162
		c-0.03,0.064-0.051,0.136-0.051,0.213v3.278c-0.777,0.131-1.583,0.24-2.414,0.322c-2.51,0.248-5.218,0.27-7.76,0.064
		c-0.273-0.016-0.516,0.184-0.539,0.459c-0.021,0.275,0.184,0.516,0.459,0.539c1.173,0.094,2.381,0.143,3.592,0.143
		c1.475,0,2.938-0.07,4.348-0.211c0.799-0.078,1.571-0.178,2.314-0.299v4.732c-0.805,0.135-1.641,0.248-2.504,0.33
		c-2.475,0.24-5.191,0.26-7.67,0.057c-0.273-0.018-0.516,0.184-0.539,0.459c-0.021,0.275,0.184,0.516,0.459,0.539
		c1.16,0.094,2.369,0.143,3.592,0.143c1.449,0,2.881-0.068,4.255-0.201c0.832-0.08,1.636-0.184,2.407-0.309v4.734
		c-0.805,0.133-1.641,0.246-2.505,0.33c-2.491,0.24-5.185,0.26-7.669,0.055c-0.273-0.018-0.516,0.184-0.539,0.459
		c-0.021,0.275,0.184,0.516,0.459,0.539c1.164,0.094,2.373,0.143,3.592,0.143c1.441,0,2.872-0.066,4.253-0.201
		c0.833-0.08,1.638-0.184,2.409-0.307v4.725C64.789,79.822,62.551,80.023,60.094,80.023z M82.728,94.295
		c-8.411,0-14.382-2.299-14.931-4.484c-0.021-0.08-0.035-0.162-0.041-0.242v-9.256v-1.006V74.59v-1.025V68.84v-1.025v-4.729v-1.023
		v-3.094c0-0.059-0.015-0.111-0.033-0.163c0.031-0.065,0.052-0.136,0.052-0.212c0-0.472,0.277-0.953,0.773-1.422
		c0.794-0.75,2.183-1.463,4.04-2.041c0.754-0.234,1.58-0.445,2.479-0.629c0.324-0.065,0.659-0.125,1-0.184
		c0.335-0.057,0.676-0.109,1.026-0.158c1.706-0.235,3.588-0.375,5.622-0.375c8.802,0,14.935,2.533,14.935,4.809
		c0,0.076,0.021,0.147,0.052,0.213v30.731C97.607,91.799,91.489,94.295,82.728,94.295z"/>
	<path fill="#e0a409" d="M49.104,69.965c-2.896,1.271-7.273,2.002-12.01,2.002c-1.194,0-2.376-0.047-3.513-0.139
		c-0.272-0.02-0.516,0.182-0.539,0.457c-0.021,0.275,0.184,0.518,0.459,0.539c1.162,0.096,2.371,0.143,3.593,0.143
		c4.87,0,9.394-0.76,12.412-2.088c0.253-0.111,0.368-0.406,0.257-0.658C49.652,69.967,49.357,69.854,49.104,69.965z"/>
	<path fill="#e0a409" d="M49.104,81.256c-2.896,1.273-7.273,2.004-12.01,2.004c-1.194,0-2.376-0.047-3.513-0.141
		c-0.272-0.016-0.516,0.184-0.539,0.459c-0.021,0.275,0.184,0.516,0.459,0.539c1.162,0.094,2.371,0.143,3.593,0.143
		c4.87,0,9.394-0.762,12.412-2.088c0.253-0.111,0.368-0.406,0.257-0.66C49.652,81.26,49.357,81.145,49.104,81.256z"/>
	<path fill="#e0a409" d="M49.104,75.631c-2.896,1.273-7.273,2.004-12.01,2.004c-1.194,0-2.376-0.047-3.513-0.141
		c-0.272-0.014-0.516,0.184-0.539,0.459c-0.021,0.275,0.184,0.516,0.459,0.539c1.162,0.094,2.371,0.143,3.593,0.143
		c4.87,0,9.394-0.762,12.412-2.088c0.253-0.111,0.368-0.406,0.257-0.66C49.652,75.635,49.357,75.52,49.104,75.631z"/>
</g>
</svg>
