<?xml version="1.0" encoding="utf-8"?>
<!-- Generator: Adobe Illustrator 16.0.0, SVG Export Plug-In . SVG Version: 6.00 Build 0)  -->
<!DOCTYPE svg PUBLIC "-//W3C//DTD SVG 1.1//EN" "http://www.w3.org/Graphics/SVG/1.1/DTD/svg11.dtd">
<svg version="1.1" id="Layer_1" xmlns="http://www.w3.org/2000/svg" xmlns:xlink="http://www.w3.org/1999/xlink" x="0px" y="0px"
	 width="120px" height="120px" viewBox="0 0 120 120" enable-background="new 0 0 120 120" xml:space="preserve">
<g>
	<path fill="#e0a409" d="M41.741,69.199c1.163,0.096,2.372,0.143,3.594,0.143c4.87,0,9.395-0.762,12.412-2.088c0.253-0.111,0.368-0.406,0.257-0.658
		c-0.112-0.254-0.406-0.367-0.659-0.258c-2.896,1.273-7.273,2.004-12.01,2.004c-1.194,0-2.376-0.047-3.512-0.139
		c-0.291-0.014-0.517,0.182-0.539,0.457S41.467,69.178,41.741,69.199z"/>
	<path fill="#e0a409" d="M41.741,63.574c1.163,0.096,2.372,0.143,3.594,0.143c4.87,0,9.395-0.762,12.412-2.088c0.253-0.111,0.368-0.406,0.257-0.659
		c-0.112-0.254-0.406-0.367-0.659-0.257c-2.896,1.273-7.273,2.003-12.01,2.003c-1.194,0-2.376-0.047-3.512-0.139
		c-0.291-0.02-0.517,0.182-0.539,0.457S41.467,63.553,41.741,63.574z"/>
	<path fill="#e0a409" d="M41.741,57.949c1.163,0.096,2.372,0.143,3.594,0.143c4.87,0,9.395-0.761,12.412-2.088c0.253-0.111,0.368-0.406,0.257-0.658
		c-0.112-0.254-0.406-0.366-0.659-0.257c-2.896,1.272-7.273,2.003-12.01,2.003c-1.194,0-2.376-0.047-3.512-0.139
		c-0.291-0.018-0.517,0.182-0.539,0.457S41.467,57.927,41.741,57.949z"/>
	<path fill="#e0a409" d="M64.739,54.132c1.153,0.092,2.363,0.139,3.595,0.139c4.877,0,9.401-0.762,12.413-2.09c0.252-0.111,0.367-0.407,0.255-0.659
		c-0.111-0.253-0.405-0.368-0.659-0.256c-2.889,1.274-7.266,2.005-12.009,2.005c-1.205,0-2.388-0.046-3.515-0.136
		c-0.268-0.018-0.517,0.183-0.538,0.458C64.259,53.869,64.464,54.11,64.739,54.132z"/>
	<path fill="#e0a409" d="M64.741,48.524c1.161,0.095,2.37,0.143,3.593,0.143c4.872,0,9.396-0.762,12.412-2.089c0.253-0.111,0.368-0.406,0.257-0.659
		c-0.111-0.252-0.406-0.367-0.659-0.256c-2.895,1.274-7.271,2.004-12.01,2.004c-1.196,0-2.377-0.047-3.511-0.14
		c-0.288-0.021-0.517,0.182-0.539,0.458C64.262,48.26,64.467,48.502,64.741,48.524z"/>
	<path fill="#e0a409" d="M64.742,42.774c1.179,0.095,2.388,0.143,3.592,0.143c4.852,0,9.365-0.758,12.384-2.079
		c0.253-0.111,0.368-0.406,0.258-0.659s-0.405-0.367-0.658-0.257c-2.897,1.268-7.265,1.995-11.983,1.995
		c-1.178,0-2.359-0.047-3.512-0.14c-0.271-0.015-0.517,0.183-0.538,0.458C64.262,42.511,64.467,42.752,64.742,42.774z"/>
	<path fill="#e0a409" d="M64.742,37.025c1.179,0.094,2.387,0.141,3.592,0.141c4.834,0,9.339-0.752,12.36-2.064c0.253-0.11,0.369-0.404,0.26-0.658
		c-0.11-0.253-0.405-0.371-0.658-0.259c-2.9,1.259-7.26,1.981-11.962,1.981c-1.179,0-2.36-0.046-3.512-0.138
		c-0.271-0.015-0.517,0.184-0.538,0.459C64.262,36.762,64.468,37.003,64.742,37.025z"/>
	<path fill="#e0a409" d="M64.742,31.356c1.179,0.094,2.387,0.141,3.592,0.141c4.834,0,9.339-0.752,12.36-2.064c0.253-0.11,0.369-0.404,0.26-0.658
		c-0.11-0.253-0.405-0.371-0.658-0.259c-2.9,1.259-7.26,1.981-11.962,1.981c-1.179,0-2.36-0.046-3.512-0.138
		c-0.271-0.018-0.517,0.184-0.538,0.459C64.262,31.093,64.468,31.334,64.742,31.356z"/>
	<path fill="#e0a409" d="M103.137,88.463c-2.896,1.273-7.273,2.004-12.01,2.004c-1.194,0-2.376-0.047-3.512-0.139
		c-0.29-0.014-0.517,0.182-0.539,0.457s0.183,0.518,0.457,0.539c1.163,0.096,2.372,0.143,3.594,0.143
		c4.87,0,9.395-0.762,12.412-2.088c0.253-0.111,0.368-0.406,0.257-0.658C103.684,88.467,103.39,88.354,103.137,88.463z"/>
	<path fill="#e0a409" d="M91.127,85.717c4.852,0,9.365-0.758,12.384-2.078c0.253-0.111,0.368-0.404,0.258-0.658
		c-0.111-0.254-0.405-0.369-0.658-0.258c-2.896,1.268-7.265,1.994-11.983,1.994c-1.174,0-2.356-0.047-3.513-0.139
		c-0.268-0.018-0.517,0.184-0.538,0.459c-0.022,0.275,0.183,0.516,0.458,0.537C88.718,85.67,89.926,85.717,91.127,85.717z"/>
	<path fill="#e0a409" d="M103.137,77.088c-2.896,1.273-7.273,2.004-12.01,2.004c-1.194,0-2.376-0.047-3.512-0.139
		c-0.29-0.02-0.517,0.182-0.539,0.457s0.183,0.518,0.457,0.539c1.163,0.096,2.372,0.143,3.594,0.143
		c4.87,0,9.395-0.762,12.412-2.088c0.253-0.111,0.368-0.406,0.257-0.658C103.684,77.092,103.39,76.979,103.137,77.088z"/>
	<path fill="#e0a409" d="M103.137,71.463c-2.896,1.273-7.273,2.004-12.01,2.004c-1.194,0-2.376-0.047-3.512-0.139
		c-0.29-0.018-0.517,0.182-0.539,0.457s0.183,0.518,0.457,0.539c1.163,0.096,2.372,0.143,3.594,0.143
		c4.87,0,9.395-0.762,12.412-2.088c0.253-0.111,0.368-0.406,0.257-0.658C103.684,71.467,103.39,71.354,103.137,71.463z"/>
	<path fill="#e0a409" d="M103.137,65.838c-2.896,1.273-7.273,2.004-12.01,2.004c-1.194,0-2.376-0.047-3.512-0.139
		c-0.29-0.016-0.517,0.182-0.539,0.457s0.183,0.518,0.457,0.539c1.163,0.096,2.372,0.143,3.594,0.143
		c4.87,0,9.395-0.762,12.412-2.088c0.253-0.111,0.368-0.406,0.257-0.658C103.684,65.842,103.39,65.729,103.137,65.838z"/>
	<path fill="#e0a409" d="M61.345,99.338c-2.896,1.273-7.273,2.004-12.01,2.004c-0.646,0-1.285-0.016-1.92-0.043
		c-0.537-0.023-1.069-0.053-1.592-0.096c-0.292-0.021-0.516,0.182-0.539,0.457c-0.022,0.275,0.183,0.518,0.457,0.539
		c0.082,0.008,0.167,0.01,0.249,0.016c1.091,0.082,2.213,0.127,3.345,0.127c4.87,0,9.394-0.762,12.412-2.088
		c0.253-0.111,0.368-0.406,0.257-0.66C61.892,99.342,61.598,99.229,61.345,99.338z"/>
	<path fill="#e0a409" d="M61.345,93.713c-1.144,0.504-2.524,0.918-4.062,1.24c-2.354,0.492-5.082,0.764-7.948,0.764
		c-1.194,0-2.376-0.047-3.512-0.139c-0.292-0.018-0.516,0.182-0.539,0.457c-0.022,0.275,0.183,0.518,0.457,0.539
		c1.163,0.096,2.372,0.143,3.594,0.143c2.026,0,3.985-0.139,5.809-0.389c2.558-0.35,4.842-0.924,6.604-1.699
		c0.253-0.111,0.368-0.406,0.257-0.658C61.892,93.717,61.598,93.604,61.345,93.713z"/>
	<path fill="#e0a409" d="M61.345,88.088c-2.896,1.273-7.273,2.004-12.01,2.004c-1.194,0-2.376-0.047-3.512-0.139
		c-0.282-0.016-0.496,0.17-0.532,0.432c-0.001,0.01-0.006,0.016-0.007,0.025c-0.021,0.258,0.161,0.479,0.409,0.525
		c0.017,0.004,0.03,0.012,0.048,0.014c1.163,0.096,2.372,0.143,3.594,0.143c4.87,0,9.395-0.762,12.412-2.088
		c0.253-0.111,0.368-0.406,0.257-0.658C61.892,88.092,61.598,87.979,61.345,88.088z"/>
	<path fill="#e0a409" d="M106.941,91.441V60.738c0-0.084-0.026-0.16-0.063-0.23c-0.128-3.584-8.152-5.724-15.923-5.724
		c-2.263,0-4.542,0.187-6.648,0.532V23.53c0-0.026-0.011-0.047-0.015-0.072c0.002-0.018,0.011-0.034,0.011-0.053
		c0-3.636-8.113-5.808-15.957-5.808c-7.832,0-15.929,2.164-15.962,5.787c-0.008,0.036-0.021,0.069-0.021,0.107v21.158
		c-2.248-0.402-4.725-0.615-7.176-0.615c-7.513,0-15.254,1.996-15.9,5.356c-0.048,0.077-0.082,0.162-0.082,0.258v21.668
		c-7.655,0.09-15.392,2.23-15.433,5.771c-0.009,0.037-0.022,0.072-0.022,0.111v13.6c-0.003,0.023-0.014,0.043-0.014,0.068
		c0,0.033,0.013,0.064,0.014,0.098v0.193c0,0.082,0.024,0.156,0.059,0.225c0.731,3.322,8.437,5.293,15.913,5.293
		c1.165,0,2.334-0.053,3.483-0.146v5.543c0,0.021,0.01,0.039,0.012,0.061c-0.011,0.041-0.025,0.082-0.025,0.127
		c0,3.637,8.128,5.809,15.985,5.809c7.856,0,15.982-2.172,15.982-5.809c0-0.049-0.015-0.092-0.027-0.137
		c0.006-0.031,0.019-0.061,0.019-0.094V82.9c1.045,0.072,2.107,0.121,3.185,0.121c2.268,0,4.552-0.186,6.662-0.531v8.928
		c-0.003,0.023-0.014,0.043-0.014,0.066c0,0.033,0.013,0.064,0.014,0.098v0.449c0,0.158,0.079,0.295,0.195,0.385
		c1.257,3.07,8.618,4.879,15.776,4.879c7.485,0,15.199-1.977,15.912-5.309c0.036-0.068,0.062-0.145,0.062-0.227v-0.213
		c0-0.02,0.009-0.041,0.009-0.062C106.95,91.469,106.943,91.457,106.941,91.441z M45.187,45.034c8.815,0,14.958,2.534,14.958,4.809
		c0,0.036,0.014,0.067,0.021,0.101c-0.005,0.026-0.016,0.049-0.016,0.077v28.585c-3.015-1.016-7.032-1.572-10.986-1.572
		c-1.183,0-2.368,0.057-3.534,0.152c0.003-0.023,0.014-0.045,0.014-0.07c0-3.559-7.764-5.709-15.438-5.799V49.935
		c0.006-0.031,0.019-0.06,0.019-0.092C30.223,47.568,36.368,45.034,45.187,45.034z M29.721,95.676
		c-7.929,0-13.684-2.043-14.78-4.107c-0.11-0.207-0.179-0.414-0.191-0.619v-13.74c0.006-0.031,0.019-0.061,0.019-0.094
		c0-2.229,5.906-4.703,14.437-4.799c0.169-0.002,0.333-0.01,0.504-0.01c0.169,0,0.329,0.008,0.496,0.01
		c8.53,0.094,14.438,2.568,14.438,4.799c0,0.057,0.015,0.107,0.031,0.156c-6.143,0.652-11.413,2.623-11.447,5.543
		c-0.009,0.037-0.022,0.072-0.022,0.111v1.314c-0.974,0.072-1.979,0.111-3,0.119c-0.108,0-0.215,0.006-0.324,0.006
		c-0.228,0-0.45-0.01-0.676-0.014c-0.962-0.014-1.916-0.051-2.836-0.125c-0.284-0.02-0.517,0.182-0.539,0.457
		s0.183,0.518,0.457,0.539c0.947,0.078,1.928,0.115,2.918,0.129c0.226,0.004,0.449,0.014,0.676,0.014
		c0.109,0,0.216-0.006,0.324-0.006c1.021-0.008,2.023-0.047,3-0.119v4.625c-1.078,0.08-2.189,0.125-3.324,0.125
		c-1.194,0-2.376-0.047-3.512-0.139c-0.284-0.021-0.517,0.182-0.539,0.457s0.183,0.518,0.457,0.539
		c1.163,0.096,2.372,0.143,3.594,0.143c0.74,0,1.468-0.023,2.188-0.057c0.382-0.02,0.762-0.041,1.136-0.068v4.67
		C32.098,95.623,30.938,95.676,29.721,95.676z M64.158,102.26c0,2.275-6.153,4.809-14.982,4.809c-8.477,0-14.471-2.334-14.939-4.533
		c-0.02-0.092-0.046-0.184-0.046-0.275c0-0.021-0.01-0.039-0.012-0.061c0.011-0.041,0.025-0.082,0.025-0.127v-5.631v-0.998v-4.668
		V89.85v-0.078V85.15v-1.004v-1.211c0.006-0.031,0.019-0.061,0.019-0.094c0-1.908,4.334-3.996,10.932-4.617
		c1.261-0.119,2.596-0.191,4.009-0.191c4.529,0,8.343,0.674,10.986,1.635c0.356,0.131,0.688,0.266,1,0.404
		c1.164,0.52,2.011,1.096,2.488,1.688c0.285,0.352,0.449,0.707,0.456,1.059c0,0.008,0.004,0.016,0.004,0.023
		c0,0.078,0.021,0.148,0.052,0.215v7.48v11.492c0,0.049,0.015,0.094,0.027,0.137C64.171,102.197,64.158,102.227,64.158,102.26z
		 M68.334,82.021c-1.172,0-2.329-0.053-3.458-0.143c-0.491-1.16-1.834-2.141-3.727-2.908V50.02c0-0.036-0.013-0.067-0.021-0.101
		c0.004-0.026,0.016-0.049,0.016-0.077c0-2.328-3.332-4.052-7.783-4.994c0-0.002,0.001-0.004,0.001-0.006V23.497
		c0.006-0.031,0.019-0.06,0.019-0.092c0-2.274,6.146-4.808,14.965-4.808c8.814,0,14.957,2.534,14.957,4.808
		c0,0.026,0.011,0.047,0.015,0.072c-0.002,0.018-0.011,0.034-0.011,0.053v31.965c-3.013,0.587-5.561,1.521-7.007,2.754
		c-1.141,0.239-2.365,0.433-3.647,0.562c-2.51,0.252-5.233,0.278-7.831,0.074c-0.25-0.018-0.516,0.184-0.537,0.459
		c-0.022,0.275,0.184,0.516,0.459,0.537c1.18,0.094,2.388,0.141,3.591,0.141c1.505,0,2.991-0.072,4.418-0.217
		c0.888-0.089,1.739-0.207,2.558-0.346c-0.183,0.361-0.295,0.736-0.295,1.134c0,0.058,0.015,0.11,0.032,0.163
		c-0.03,0.064-0.051,0.135-0.051,0.212v3.279c-0.776,0.129-1.582,0.238-2.413,0.322c-2.509,0.248-5.218,0.27-7.761,0.064
		c-0.271-0.018-0.517,0.184-0.538,0.459c-0.022,0.275,0.183,0.516,0.458,0.539c1.173,0.094,2.381,0.143,3.592,0.143
		c1.475,0,2.937-0.072,4.347-0.211c0.799-0.078,1.572-0.18,2.315-0.299v4.732c-0.805,0.135-1.64,0.248-2.503,0.33
		c-2.478,0.238-5.192,0.26-7.67,0.057c-0.288-0.02-0.517,0.184-0.539,0.459c-0.022,0.273,0.183,0.516,0.457,0.539
		c1.161,0.094,2.37,0.143,3.593,0.143c1.449-0.002,2.881-0.068,4.255-0.201c0.832-0.08,1.636-0.184,2.407-0.309v4.732
		c-0.805,0.135-1.641,0.248-2.505,0.332c-2.492,0.238-5.186,0.258-7.668,0.055c-0.288-0.021-0.517,0.182-0.539,0.459
		c-0.022,0.273,0.183,0.516,0.457,0.539c1.165,0.094,2.374,0.143,3.593,0.143c1.441,0,2.872-0.068,4.253-0.201
		c0.833-0.08,1.637-0.184,2.409-0.309v4.725C73.029,81.82,70.79,82.021,68.334,82.021z M90.968,96.295
		c-8.412,0-14.382-2.299-14.931-4.484c-0.021-0.08-0.036-0.162-0.041-0.242v-9.256v-1.006v-4.719v-1.023v-4.727v-1.023v-4.729
		v-1.023v-3.095c0-0.058-0.015-0.11-0.033-0.163c0.031-0.064,0.052-0.135,0.052-0.212c0-0.472,0.277-0.953,0.773-1.422
		c0.794-0.751,2.183-1.463,4.041-2.04c0.753-0.234,1.579-0.446,2.478-0.629c0.324-0.066,0.659-0.126,1-0.184
		c0.335-0.057,0.676-0.109,1.026-0.158c1.706-0.236,3.589-0.376,5.622-0.376c8.801,0,14.935,2.534,14.935,4.809
		c0,0.077,0.021,0.147,0.052,0.214v30.731C105.848,93.799,99.729,96.295,90.968,96.295z"/>
	<path fill="#e0a409" d="M57.345,71.898c-2.197,0.967-5.34,1.639-8.85,1.893c-0.275,0.02-0.482,0.258-0.463,0.533
		c0.02,0.264,0.238,0.465,0.498,0.465c0.013,0,0.024,0,0.037-0.002c3.62-0.26,6.881-0.961,9.18-1.973
		c0.253-0.111,0.368-0.406,0.257-0.658C57.892,71.902,57.598,71.789,57.345,71.898z"/>
</g>
</svg>
