<?xml version="1.0" encoding="utf-8"?>
<!-- Generator: Adobe Illustrator 16.0.0, SVG Export Plug-In . SVG Version: 6.00 Build 0)  -->
<!DOCTYPE svg PUBLIC "-//W3C//DTD SVG 1.1//EN" "http://www.w3.org/Graphics/SVG/1.1/DTD/svg11.dtd">
<svg version="1.1" id="Layer_1" xmlns="http://www.w3.org/2000/svg" xmlns:xlink="http://www.w3.org/1999/xlink" x="0px" y="0px"
	 width="120px" height="120px" viewBox="0 0 120 120" enable-background="new 0 0 120 120" xml:space="preserve">
<g>
	<path fill="#e0a409" d="M76.625,64.391v-4.611c0-0.013,0.008-0.024,0.008-0.038c0-0.019-0.008-0.036-0.008-0.056v-0.093
		c0-0.069-0.016-0.136-0.041-0.196c-0.501-3.426-8.316-5.464-15.902-5.464c-7.552,0-15.332,2.019-15.9,5.414
		c-0.043,0.073-0.074,0.155-0.074,0.246v4.914c-0.003,0.023-0.014,0.044-0.014,0.067c0,0.033,0.013,0.064,0.014,0.098v0.195
		c0,0.081,0.024,0.154,0.059,0.223c0.731,3.324,8.437,5.295,15.914,5.295c7.594,0,15.417-2.035,15.932-5.455
		c0.004-0.021,0.014-0.041,0.014-0.062V64.84c0.01-0.09,0.037-0.175,0.037-0.266C76.662,64.51,76.647,64.447,76.625,64.391z
		 M75.625,64.799c-0.385,2.214-6.404,4.586-14.945,4.586c-8.726,0-14.826-2.475-14.973-4.728v-4.824
		c0.006-0.03,0.02-0.06,0.02-0.092c0-2.274,6.142-4.809,14.955-4.809c8.75,0,14.859,2.499,14.943,4.762V64.799z"/>
	<path fill="#e0a409" d="M72.682,61.715c-2.896,1.272-7.273,2.003-12.01,2.003c-1.195,0-2.377-0.047-3.513-0.14
		c-0.269-0.021-0.517,0.183-0.539,0.458s0.183,0.517,0.458,0.539c1.162,0.095,2.371,0.143,3.594,0.143
		c4.869,0,9.394-0.761,12.412-2.089c0.252-0.11,0.367-0.405,0.256-0.658C73.229,61.718,72.936,61.602,72.682,61.715z"/>
</g>
</svg>
