<?xml version="1.0" encoding="utf-8"?>
<!-- Generator: Adobe Illustrator 16.0.0, SVG Export Plug-In . SVG Version: 6.00 Build 0)  -->
<!DOCTYPE svg PUBLIC "-//W3C//DTD SVG 1.1//EN" "http://www.w3.org/Graphics/SVG/1.1/DTD/svg11.dtd">
<svg version="1.1" id="Layer_1" xmlns="http://www.w3.org/2000/svg" xmlns:xlink="http://www.w3.org/1999/xlink" x="0px" y="0px"
	 width="120px" height="120px" viewBox="0 0 120 120" enable-background="new 0 0 120 120" xml:space="preserve">
<g>
	<path fill="#e0a409" d="M54.637,65.568c-2.637,1.158-6.609,1.885-10.898,1.988c-0.275,0.008-0.494,0.236-0.487,0.514
		c0.007,0.271,0.229,0.486,0.5,0.486c0.004,0,0.008,0,0.013,0c4.414-0.107,8.523-0.863,11.275-2.074
		c0.253-0.109,0.368-0.404,0.257-0.658S54.89,65.459,54.637,65.568z"/>
	<path fill="#e0a409" d="M39.033,62.617c1.163,0.094,2.372,0.143,3.594,0.143c4.87,0,9.395-0.762,12.412-2.089c0.253-0.11,0.368-0.405,0.257-0.658
		c-0.111-0.254-0.406-0.365-0.659-0.256c-2.896,1.273-7.273,2.003-12.01,2.003c-1.194,0-2.376-0.047-3.512-0.141
		c-0.288-0.018-0.517,0.184-0.539,0.459S38.759,62.594,39.033,62.617z"/>
	<path fill="#e0a409" d="M39.033,56.993c1.163,0.094,2.372,0.143,3.594,0.143c4.87,0,9.395-0.762,12.412-2.089c0.253-0.11,0.368-0.405,0.257-0.659
		c-0.111-0.252-0.406-0.365-0.659-0.256c-2.896,1.273-7.273,2.004-12.01,2.004c-1.194,0-2.376-0.047-3.512-0.141
		c-0.288-0.016-0.517,0.184-0.539,0.459S38.759,56.969,39.033,56.993z"/>
	<path fill="#e0a409" d="M39.033,51.368c1.163,0.094,2.372,0.143,3.594,0.143c4.87,0,9.395-0.762,12.412-2.089c0.253-0.11,0.368-0.405,0.257-0.659
		c-0.111-0.252-0.406-0.367-0.659-0.256c-2.896,1.273-7.273,2.004-12.01,2.004c-1.194,0-2.376-0.047-3.512-0.141
		c-0.288-0.013-0.517,0.183-0.539,0.459C38.554,51.104,38.759,51.344,39.033,51.368z"/>
	<path fill="#e0a409" d="M62.034,47.442c1.179,0.095,2.388,0.143,3.592,0.143c4.852,0,9.365-0.758,12.384-2.079c0.253-0.11,0.368-0.405,0.258-0.659
		c-0.11-0.252-0.406-0.366-0.658-0.257c-2.897,1.269-7.265,1.995-11.983,1.995c-1.178,0-2.359-0.047-3.512-0.14
		c-0.273-0.015-0.517,0.183-0.538,0.458C61.554,47.178,61.759,47.419,62.034,47.442z"/>
	<path fill="#e0a409" d="M62.034,41.692c1.179,0.094,2.387,0.142,3.592,0.142c4.834,0,9.339-0.753,12.36-2.064c0.253-0.11,0.369-0.404,0.26-0.657
		c-0.11-0.254-0.405-0.371-0.658-0.26c-2.9,1.26-7.26,1.981-11.962,1.981c-1.179,0-2.36-0.046-3.512-0.138
		c-0.273-0.016-0.517,0.184-0.538,0.459C61.554,41.43,61.76,41.67,62.034,41.692z"/>
	<path fill="#e0a409" d="M62.034,36.024c1.179,0.094,2.387,0.141,3.592,0.141c4.834,0,9.339-0.752,12.36-2.064c0.253-0.109,0.369-0.404,0.26-0.658
		c-0.11-0.252-0.405-0.37-0.658-0.259c-2.9,1.259-7.26,1.981-11.962,1.981c-1.179,0-2.36-0.047-3.512-0.139
		c-0.273-0.018-0.517,0.184-0.538,0.459C61.554,35.76,61.76,36.001,62.034,36.024z"/>
	<path fill="#e0a409" d="M62.034,30.276c1.179,0.094,2.387,0.141,3.592,0.141c4.834,0,9.339-0.752,12.36-2.064c0.253-0.11,0.369-0.404,0.26-0.658
		c-0.11-0.253-0.405-0.37-0.658-0.259c-2.9,1.259-7.26,1.981-11.962,1.981c-1.179,0-2.36-0.046-3.512-0.138
		c-0.273-0.02-0.517,0.184-0.538,0.458C61.554,30.012,61.76,30.253,62.034,30.276z"/>
	<path fill="#e0a409" d="M62.034,24.606c1.179,0.094,2.387,0.141,3.592,0.141c4.834,0,9.339-0.752,12.36-2.064c0.253-0.11,0.369-0.404,0.26-0.658
		c-0.11-0.253-0.405-0.37-0.658-0.259c-2.9,1.259-7.26,1.981-11.962,1.981c-1.179,0-2.36-0.046-3.512-0.138
		c-0.273-0.023-0.517,0.183-0.538,0.459C61.554,24.344,61.76,24.584,62.034,24.606z"/>
	<path fill="#e0a409" d="M100.429,93.131c-2.896,1.273-7.273,2.004-12.01,2.004c-1.194,0-2.376-0.047-3.512-0.141
		c-0.287-0.014-0.517,0.184-0.539,0.459s0.183,0.516,0.457,0.539c1.163,0.094,2.372,0.143,3.594,0.143
		c4.87,0,9.395-0.762,12.412-2.088c0.253-0.111,0.368-0.406,0.257-0.66C100.976,93.135,100.682,93.021,100.429,93.131z"/>
	<path fill="#e0a409" d="M88.419,90.385c4.852,0,9.365-0.758,12.384-2.078c0.253-0.111,0.368-0.406,0.258-0.658
		c-0.111-0.254-0.405-0.369-0.658-0.258c-2.896,1.266-7.265,1.994-11.983,1.994c-1.174,0-2.356-0.047-3.513-0.141
		c-0.271-0.018-0.517,0.186-0.538,0.461c-0.022,0.273,0.183,0.516,0.458,0.537C86.01,90.336,87.218,90.385,88.419,90.385z"/>
	<path fill="#e0a409" d="M100.429,81.756c-2.896,1.273-7.273,2.004-12.01,2.004c-1.194,0-2.376-0.047-3.512-0.141
		c-0.287-0.02-0.517,0.184-0.539,0.459s0.183,0.516,0.457,0.539c1.163,0.094,2.372,0.143,3.594,0.143
		c4.87,0,9.395-0.762,12.412-2.09c0.253-0.109,0.368-0.404,0.257-0.658C100.976,81.76,100.682,81.645,100.429,81.756z"/>
	<path fill="#e0a409" d="M100.429,76.131c-2.896,1.273-7.273,2.004-12.01,2.004c-1.194,0-2.376-0.047-3.512-0.141
		c-0.287-0.018-0.517,0.184-0.539,0.459s0.183,0.516,0.457,0.539c1.163,0.094,2.372,0.143,3.594,0.143
		c4.87,0,9.395-0.762,12.412-2.09c0.253-0.109,0.368-0.404,0.257-0.658C100.976,76.135,100.682,76.021,100.429,76.131z"/>
	<path fill="#e0a409" d="M100.429,70.506c-2.896,1.273-7.273,2.004-12.01,2.004c-1.194,0-2.376-0.047-3.512-0.141
		c-0.287-0.014-0.517,0.184-0.539,0.459s0.183,0.516,0.457,0.539c1.163,0.094,2.372,0.143,3.594,0.143
		c4.87,0,9.395-0.762,12.412-2.09c0.253-0.109,0.368-0.404,0.257-0.658C100.976,70.51,100.682,70.396,100.429,70.506z"/>
	<path fill="#e0a409" d="M100.429,64.881c-2.896,1.273-7.273,2.004-12.01,2.004c-1.194,0-2.376-0.047-3.512-0.141
		c-0.287-0.012-0.517,0.184-0.539,0.459s0.183,0.516,0.457,0.539c1.163,0.094,2.372,0.143,3.594,0.143
		c4.87,0,9.395-0.762,12.412-2.088c0.253-0.111,0.368-0.406,0.257-0.66C100.976,64.885,100.682,64.771,100.429,64.881z"/>
	<path fill="#e0a409" d="M100.429,59.256c-2.896,1.273-7.273,2.003-12.01,2.003c-1.194,0-2.376-0.047-3.512-0.141
		c-0.287-0.02-0.517,0.184-0.539,0.459s0.183,0.516,0.457,0.539c1.163,0.094,2.372,0.143,3.594,0.143
		c4.87,0,9.395-0.762,12.412-2.088c0.253-0.11,0.368-0.405,0.257-0.659C100.976,59.26,100.682,59.145,100.429,59.256z"/>
	<path fill="#e0a409" d="M58.637,104.006c-2.896,1.273-7.273,2.004-12.01,2.004c-0.646,0-1.285-0.016-1.92-0.043
		c-0.537-0.023-1.069-0.055-1.592-0.098c-0.289-0.02-0.517,0.184-0.539,0.459s0.183,0.516,0.457,0.539
		c0.082,0.006,0.167,0.008,0.249,0.016c1.091,0.082,2.213,0.127,3.345,0.127c4.87,0,9.394-0.762,12.412-2.09
		c0.253-0.109,0.368-0.406,0.257-0.658S58.89,103.895,58.637,104.006z"/>
	<path fill="#e0a409" d="M58.637,98.381c-1.144,0.504-2.524,0.918-4.062,1.238c-2.354,0.494-5.082,0.766-7.948,0.766
		c-1.194,0-2.376-0.047-3.512-0.141c-0.289-0.018-0.517,0.184-0.539,0.459s0.183,0.516,0.457,0.539
		c1.163,0.094,2.372,0.143,3.594,0.143c2.026,0,3.985-0.139,5.809-0.389c2.558-0.35,4.842-0.926,6.604-1.699
		c0.253-0.111,0.368-0.406,0.257-0.66C59.185,98.385,58.89,98.271,58.637,98.381z"/>
	<path fill="#e0a409" d="M58.637,92.756c-0.443,0.195-0.932,0.373-1.44,0.541c-1.166,0.387-2.483,0.707-3.923,0.945
		c-2.036,0.336-4.297,0.518-6.646,0.518c-1.194,0-2.376-0.047-3.512-0.141c-0.289-0.016-0.517,0.184-0.539,0.459
		s0.183,0.516,0.457,0.539c0.597,0.049,1.206,0.084,1.823,0.107c0.584,0.023,1.176,0.035,1.771,0.035
		c2.429,0,4.771-0.189,6.884-0.545c2.124-0.355,4.016-0.879,5.528-1.543c0.253-0.111,0.368-0.406,0.257-0.66
		C59.185,92.76,58.89,92.646,58.637,92.756z"/>
	<path fill="#e0a409" d="M23.658,80.158c0.921,0.076,1.875,0.113,2.838,0.129c0.253,0.004,0.502,0.014,0.756,0.014c0.082,0,0.162-0.004,0.244-0.004
		c4.776-0.025,9.201-0.779,12.168-2.084c0.253-0.111,0.368-0.406,0.257-0.658c-0.111-0.254-0.406-0.367-0.659-0.256
		c-2.845,1.25-7.124,1.973-11.766,1.998c-0.082,0-0.162,0.004-0.244,0.004c-0.254,0-0.503-0.01-0.756-0.014
		c-0.935-0.016-1.861-0.053-2.756-0.125c-0.284-0.016-0.517,0.182-0.539,0.457S23.384,80.137,23.658,80.158z"/>
	<path fill="#e0a409" d="M104.233,96.109V54.167c0-0.044-0.015-0.083-0.025-0.124c0.001-0.008,0.005-0.014,0.005-0.021
		c0-3.637-8.109-5.809-15.95-5.809c-2.269,0-4.554,0.187-6.664,0.533V16.505c0-0.025-0.011-0.048-0.015-0.072
		c0.002-0.018,0.011-0.034,0.011-0.053c0-3.636-8.113-5.808-15.957-5.808c-7.832,0-15.929,2.164-15.962,5.787
		c-0.008,0.035-0.021,0.069-0.021,0.107v21.409c-2.248-0.402-4.725-0.614-7.176-0.614c-7.513,0-15.254,1.995-15.9,5.355
		c-0.048,0.076-0.082,0.162-0.082,0.258v23.421c-7.676,0.092-15.437,2.242-15.437,5.801c0,0.029,0.012,0.055,0.017,0.082
		c-0.021,0.055-0.035,0.113-0.035,0.176v24.613c-0.003,0.021-0.014,0.043-0.014,0.066c0,0.033,0.013,0.064,0.014,0.098v0.195
		c0,0.082,0.024,0.154,0.059,0.223c0.731,3.324,8.437,5.295,15.913,5.295c1.165,0,2.334-0.055,3.483-0.146v4.043
		c0,0.02,0.01,0.039,0.012,0.059c-0.011,0.043-0.025,0.082-0.025,0.129c0,3.637,8.128,5.809,15.985,5.809
		c7.856,0,15.982-2.172,15.982-5.809c0-0.049-0.015-0.094-0.027-0.137c0.006-0.031,0.019-0.061,0.019-0.094V87.566
		c1.045,0.074,2.107,0.123,3.185,0.123c2.268,0,4.552-0.188,6.662-0.531v8.926c-0.003,0.023-0.014,0.045-0.014,0.068
		c0,0.033,0.013,0.064,0.014,0.098v0.447c0,0.16,0.079,0.295,0.195,0.387c1.257,3.07,8.618,4.879,15.776,4.879
		c7.485,0,15.199-1.977,15.912-5.309c0.036-0.068,0.062-0.145,0.062-0.229v-0.211c0-0.021,0.009-0.041,0.009-0.062
		C104.242,96.137,104.235,96.125,104.233,96.109z M42.479,38.26c8.815,0,14.958,2.533,14.958,4.809c0,0.035,0.014,0.066,0.021,0.101
		c-0.005,0.026-0.016,0.05-0.016,0.077v40.025c-3.015-1.016-7.032-1.57-10.986-1.57c-1.17,0-2.344,0.055-3.498,0.148v-9.652
		c0-0.047-0.015-0.09-0.027-0.135c-0.048-3.539-7.782-5.678-15.434-5.768V43.161c0.006-0.031,0.019-0.06,0.019-0.092
		C27.515,40.793,33.66,38.26,42.479,38.26z M27.013,101.844c-8.726,0-14.826-2.475-14.972-4.729V86.449V72.354
		c0-0.029-0.012-0.055-0.017-0.084c0.021-0.055,0.035-0.111,0.035-0.174c0-2.23,5.906-4.705,14.437-4.799
		c0.169-0.002,0.333-0.01,0.504-0.01c0.169,0,0.329,0.008,0.496,0.008c8.53,0.096,14.438,2.57,14.438,4.801
		c0,0.039,0.014,0.074,0.022,0.111v9.732c-3.815,0.406-7.291,1.32-9.386,2.656c-1.622,0.205-3.349,0.307-5.075,0.316
		c-0.334,0.002-0.667,0.002-1-0.002c-0.932-0.016-1.857-0.051-2.756-0.123c-0.284-0.018-0.517,0.182-0.539,0.457
		s0.183,0.518,0.457,0.539c0.921,0.076,1.875,0.113,2.838,0.129c0.253,0.004,0.502,0.014,0.756,0.014
		c0.083,0,0.162-0.006,0.244-0.008c1.276-0.006,2.521-0.08,3.741-0.189c-0.452,0.537-0.711,1.123-0.719,1.754
		c-0.009,0.035-0.022,0.07-0.022,0.111v2.814c-0.976,0.072-1.981,0.111-3.004,0.119c-0.103,0-0.201,0.006-0.304,0.006
		c-0.006,0-0.011,0-0.017,0c-0.129,0-0.256-0.006-0.385-0.008c-0.097,0-0.192-0.004-0.288-0.006
		c-0.964-0.014-1.918-0.051-2.839-0.127c-0.291-0.02-0.517,0.184-0.539,0.459s0.183,0.516,0.457,0.539
		c0.967,0.078,1.969,0.117,2.979,0.131c0.205,0.002,0.408,0.012,0.614,0.012c0.146,0,0.29-0.008,0.436-0.008
		c0.981-0.01,1.948-0.049,2.889-0.117v2.373v1.096v1.156c-1.078,0.08-2.189,0.125-3.324,0.125c-1.194,0-2.376-0.047-3.512-0.141
		c-0.291-0.012-0.517,0.184-0.539,0.459s0.183,0.516,0.457,0.539c1.163,0.094,2.372,0.143,3.594,0.143
		c0.524,0,1.044-0.014,1.559-0.031c0.597-0.02,1.186-0.051,1.766-0.094v4.67C29.39,101.791,28.229,101.844,27.013,101.844z
		 M61.45,106.928c0,2.273-6.153,4.809-14.982,4.809c-8.477,0-14.471-2.334-14.939-4.533c-0.02-0.094-0.046-0.186-0.046-0.275
		c0-0.021-0.01-0.041-0.012-0.061c0.011-0.041,0.025-0.082,0.025-0.127v-4.133v-0.996v-4.67v-1.002v-0.215v-0.482V94.18v-2.863
		v-1.002v-2.713c0.006-0.031,0.019-0.059,0.019-0.092c0-0.66,0.531-1.342,1.48-1.977c0.078-0.053,0.148-0.107,0.233-0.16
		c1.773-1.09,4.833-2.02,8.729-2.438c0.188-0.02,0.385-0.035,0.577-0.053c0.142-0.012,0.28-0.027,0.423-0.039
		c1.11-0.09,2.275-0.143,3.498-0.143c4.529,0,8.343,0.674,10.986,1.635c0.356,0.129,0.688,0.264,1,0.402
		c1.164,0.52,2.011,1.098,2.488,1.688c0.285,0.354,0.449,0.709,0.456,1.061c0,0.008,0.004,0.016,0.004,0.023
		c0,0.076,0.021,0.148,0.052,0.213v7.482v11.492c0,0.049,0.015,0.092,0.027,0.137C61.463,106.865,61.45,106.895,61.45,106.928z
		 M65.626,86.689c-1.172,0-2.329-0.055-3.458-0.143c-0.491-1.16-1.834-2.143-3.727-2.908V43.247c0-0.036-0.013-0.068-0.021-0.102
		c0.004-0.025,0.016-0.049,0.016-0.076c0-2.328-3.331-4.052-7.782-4.994V16.472c0.006-0.031,0.019-0.059,0.019-0.092
		c0-2.274,6.146-4.808,14.965-4.808c8.814,0,14.957,2.534,14.957,4.808c0,0.025,0.011,0.048,0.015,0.072
		c-0.002,0.018-0.011,0.034-0.011,0.053v32.42c-2.912,0.567-5.396,1.456-6.865,2.628c-0.025,0.002-0.051-0.004-0.076,0.001
		c-2.405,0.511-5.183,0.78-8.031,0.78c-1.196,0-2.377-0.047-3.511-0.14c-0.285-0.021-0.517,0.183-0.539,0.458
		s0.183,0.517,0.457,0.539c1.161,0.095,2.37,0.143,3.593,0.143c2.46,0,4.857-0.208,7.035-0.584c-0.229,0.4-0.354,0.824-0.354,1.271
		c0,0.057,0.015,0.11,0.032,0.162c-0.03,0.064-0.051,0.136-0.051,0.213v3.018c-2.079,0.346-4.318,0.523-6.662,0.523
		c-1.205,0-2.388-0.045-3.515-0.136c-0.271-0.019-0.517,0.183-0.538,0.458c-0.022,0.275,0.183,0.518,0.458,0.539
		c1.153,0.092,2.363,0.139,3.595,0.139c2.339,0,4.575-0.176,6.662-0.514v4.74c-0.756,0.125-1.538,0.232-2.344,0.312
		c-2.511,0.254-5.233,0.279-7.831,0.074c-0.253-0.018-0.516,0.184-0.537,0.459c-0.022,0.275,0.184,0.516,0.459,0.539
		c1.18,0.092,2.388,0.141,3.591,0.141c1.505,0,2.991-0.074,4.418-0.217c0.773-0.078,1.522-0.176,2.244-0.293v4.732
		c-0.776,0.131-1.582,0.24-2.413,0.322c-2.51,0.248-5.218,0.271-7.761,0.066c-0.273-0.018-0.517,0.182-0.538,0.457
		c-0.022,0.275,0.183,0.518,0.458,0.539c1.173,0.096,2.381,0.143,3.592,0.143c1.475,0,2.937-0.07,4.347-0.209
		c0.799-0.08,1.572-0.18,2.315-0.299v4.732c-0.805,0.133-1.64,0.246-2.503,0.33c-2.477,0.238-5.193,0.26-7.67,0.057
		c-0.285-0.02-0.517,0.182-0.539,0.457s0.183,0.518,0.457,0.539c1.161,0.096,2.37,0.143,3.593,0.143
		c1.449,0,2.881-0.068,4.255-0.201c0.832-0.08,1.636-0.184,2.407-0.307v4.732c-0.805,0.135-1.641,0.246-2.505,0.33
		c-2.492,0.24-5.187,0.26-7.668,0.057c-0.285-0.021-0.517,0.182-0.539,0.457s0.183,0.518,0.457,0.539
		c1.165,0.096,2.374,0.143,3.593,0.143c1.441,0,2.872-0.066,4.253-0.199c0.833-0.082,1.637-0.186,2.409-0.309v4.725
		C70.321,86.488,68.082,86.689,65.626,86.689z M88.26,100.963c-8.412,0-14.382-2.301-14.931-4.484
		c-0.021-0.082-0.036-0.162-0.041-0.244v-9.256v-1.006v-4.717V80.23v-4.725V74.48v-4.727V68.73v-4.727V62.98v-8.583
		c0-0.059-0.015-0.111-0.033-0.163c0.031-0.065,0.052-0.136,0.052-0.212c0-1.531,2.788-3.176,7.292-4.09
		c0.324-0.065,0.659-0.125,1-0.184c0.335-0.057,0.676-0.109,1.027-0.158c1.71-0.237,3.598-0.377,5.637-0.377
		c8.811,0,14.95,2.533,14.95,4.809c0,0.043,0.015,0.083,0.024,0.123c0,0.008-0.004,0.015-0.004,0.022v42.038
		C103.14,98.467,97.021,100.963,88.26,100.963z"/>
	<path fill="#e0a409" d="M54.637,76.566c-2.197,0.967-5.34,1.639-8.85,1.891c-0.275,0.02-0.482,0.26-0.463,0.535
		c0.02,0.264,0.238,0.463,0.498,0.463c0.013,0,0.024,0,0.037,0c3.62-0.262,6.881-0.961,9.18-1.975
		c0.253-0.111,0.368-0.406,0.257-0.658S54.89,76.455,54.637,76.566z"/>
	<path fill="#e0a409" d="M54.637,71.17c-2.197,0.967-5.34,1.639-8.85,1.891c-0.275,0.02-0.482,0.26-0.463,0.535c0.02,0.264,0.238,0.465,0.498,0.465
		c0.013,0,0.024-0.002,0.037-0.002c3.62-0.26,6.881-0.961,9.18-1.973c0.253-0.111,0.368-0.406,0.257-0.66
		C55.185,71.174,54.89,71.061,54.637,71.17z"/>
</g>
</svg>
