<?xml version="1.0" encoding="utf-8"?>
<!-- Generator: Adobe Illustrator 16.0.0, SVG Export Plug-In . SVG Version: 6.00 Build 0)  -->
<!DOCTYPE svg PUBLIC "-//W3C//DTD SVG 1.1//EN" "http://www.w3.org/Graphics/SVG/1.1/DTD/svg11.dtd">
<svg version="1.1" id="Layer_1" xmlns="http://www.w3.org/2000/svg" xmlns:xlink="http://www.w3.org/1999/xlink" x="0px" y="0px"
	 width="120px" height="120px" viewBox="0 0 120 120" enable-background="new 0 0 120 120" xml:space="preserve">
<g>
	<path fill="#e0a409" d="M44.619,46.471c1.161,0.095,2.369,0.143,3.593,0.143c1.449-0.001,2.881-0.068,4.254-0.201
		c3.241-0.312,6.062-0.965,8.158-1.888c0.252-0.111,0.367-0.406,0.256-0.659c-0.111-0.252-0.404-0.367-0.659-0.256
		c-1.972,0.868-4.759,1.51-7.851,1.808c-2.475,0.239-5.192,0.26-7.67,0.057c-0.271-0.014-0.516,0.182-0.539,0.458
		C44.139,46.207,44.344,46.449,44.619,46.471z"/>
	<path fill="#e0a409" d="M83.015,80.797c-2.896,1.273-7.273,2.004-12.01,2.004c-1.195,0-2.377-0.047-3.513-0.139
		c-0.269-0.018-0.517,0.182-0.539,0.457s0.183,0.518,0.458,0.539c1.162,0.096,2.371,0.143,3.594,0.143
		c4.869,0,9.394-0.762,12.412-2.088c0.252-0.111,0.367-0.406,0.256-0.658C83.562,80.801,83.268,80.686,83.015,80.797z"/>
	<path fill="#e0a409" d="M71.005,78.051c4.852,0,9.365-0.758,12.383-2.078c0.254-0.111,0.369-0.404,0.258-0.658
		c-0.109-0.252-0.404-0.369-0.658-0.258c-2.896,1.268-7.264,1.994-11.982,1.994c-1.175,0-2.357-0.047-3.514-0.139
		c-0.27-0.02-0.516,0.184-0.538,0.459s0.184,0.516,0.459,0.537C68.595,78.004,69.804,78.051,71.005,78.051z"/>
	<path fill="#e0a409" d="M83.015,69.422c-2.896,1.273-7.273,2.004-12.01,2.004c-1.195,0-2.377-0.047-3.513-0.139
		c-0.269-0.016-0.517,0.182-0.539,0.457s0.183,0.518,0.458,0.539c1.162,0.096,2.371,0.143,3.594,0.143
		c4.869,0,9.394-0.762,12.412-2.088c0.252-0.111,0.367-0.406,0.256-0.658C83.562,69.426,83.268,69.311,83.015,69.422z"/>
	<path fill="#e0a409" d="M83.015,63.797c-2.896,1.273-7.273,2.004-12.01,2.004c-1.195,0-2.377-0.047-3.513-0.139
		c-0.269-0.016-0.517,0.182-0.539,0.457s0.183,0.518,0.458,0.539c1.162,0.096,2.371,0.143,3.594,0.143
		c4.869,0,9.394-0.762,12.412-2.088c0.252-0.111,0.367-0.406,0.256-0.658C83.562,63.801,83.268,63.688,83.015,63.797z"/>
	<path fill="#e0a409" d="M83.015,58.172c-2.896,1.272-7.273,2.003-12.01,2.003c-1.195,0-2.377-0.047-3.513-0.139
		c-0.269-0.023-0.517,0.182-0.539,0.457s0.183,0.518,0.458,0.54c1.162,0.096,2.371,0.143,3.594,0.143
		c4.869,0,9.394-0.761,12.412-2.088c0.252-0.111,0.367-0.406,0.256-0.658C83.562,58.175,83.268,58.06,83.015,58.172z"/>
	<path fill="#e0a409" d="M86.819,83.775V52.989c0-0.095-0.033-0.177-0.079-0.253c-0.282-3.52-8.216-5.618-15.907-5.618
		c-2.266,0-4.548,0.187-6.656,0.533v-7.827c0-0.013-0.006-0.023-0.007-0.036c0.002-0.017,0.011-0.032,0.011-0.05
		c0-3.636-8.113-5.808-15.957-5.808c-7.832,0-15.93,2.164-15.963,5.787c-0.008,0.036-0.021,0.069-0.021,0.107v29.727
		c0,0.012,0.006,0.021,0.007,0.033c-0.009,0.037-0.022,0.07-0.022,0.109c0,3.637,8.128,5.811,15.986,5.811
		c2.268,0,4.553-0.188,6.664-0.531v8.779c-0.004,0.023-0.014,0.043-0.014,0.066c0,0.033,0.012,0.064,0.014,0.098v0.449
		c0,0.158,0.078,0.295,0.194,0.385c1.258,3.07,8.618,4.879,15.776,4.879c7.486,0,15.199-1.977,15.912-5.309
		c0.037-0.068,0.062-0.145,0.062-0.227v-0.213c0-0.02,0.008-0.041,0.008-0.062C86.827,83.803,86.82,83.791,86.819,83.775z
		 M48.21,74.504c-8.832,0-14.986-2.535-14.986-4.811c0-0.012-0.006-0.02-0.006-0.031c0.008-0.037,0.021-0.072,0.021-0.111v-29.72
		c0.006-0.031,0.02-0.06,0.02-0.092c0-2.274,6.146-4.808,14.965-4.808c8.814,0,14.957,2.534,14.957,4.808
		c0,0.013,0.006,0.023,0.007,0.036c-0.002,0.017-0.011,0.032-0.011,0.05v8.005c-3.018,0.588-5.568,1.526-7.012,2.764
		c-1.182,0.248-2.457,0.445-3.795,0.574c-2.475,0.238-5.192,0.26-7.67,0.057c-0.271-0.014-0.516,0.182-0.539,0.458
		c-0.022,0.274,0.183,0.517,0.458,0.539c1.161,0.095,2.369,0.143,3.593,0.143c1.449-0.001,2.881-0.068,4.254-0.201
		c0.946-0.091,1.852-0.214,2.718-0.362c-0.18,0.359-0.292,0.732-0.292,1.126c0,0.058,0.016,0.11,0.033,0.163
		c-0.031,0.064-0.051,0.135-0.051,0.212v3.286c-0.805,0.135-1.641,0.247-2.504,0.33c-2.475,0.239-5.192,0.26-7.67,0.057
		c-0.271-0.015-0.516,0.182-0.539,0.458c-0.022,0.274,0.183,0.517,0.458,0.539c1.161,0.095,2.369,0.143,3.593,0.143
		c1.449-0.001,2.881-0.068,4.254-0.201c0.832-0.08,1.637-0.184,2.408-0.308v4.725c-0.805,0.135-1.641,0.248-2.504,0.33
		c-2.475,0.24-5.192,0.26-7.67,0.057c-0.271-0.018-0.516,0.184-0.539,0.459c-0.022,0.273,0.183,0.516,0.458,0.539
		c1.161,0.094,2.369,0.143,3.593,0.143c1.449-0.002,2.881-0.068,4.254-0.201c0.832-0.08,1.637-0.184,2.408-0.309v4.732
		c-0.805,0.135-1.642,0.248-2.506,0.332c-2.49,0.24-5.186,0.26-7.668,0.055c-0.271-0.018-0.516,0.184-0.539,0.459
		c-0.022,0.273,0.183,0.516,0.458,0.539c1.165,0.094,2.373,0.143,3.593,0.143c1.44,0,2.871-0.068,4.252-0.201
		c0.834-0.08,1.638-0.184,2.41-0.309v4.873C52.905,74.303,50.667,74.504,48.21,74.504z M70.845,88.629
		c-8.411,0-14.381-2.299-14.931-4.484c-0.021-0.08-0.035-0.162-0.04-0.242v-9.109v-1.006v-4.865v-1.023v-4.727v-1.023v-4.719v-1.023
		v-3.104c0-0.058-0.016-0.11-0.033-0.163c0.031-0.064,0.051-0.135,0.051-0.212c0-0.468,0.272-0.945,0.761-1.41
		c0.8-0.761,2.21-1.484,4.104-2.068c0.737-0.228,1.545-0.433,2.42-0.61c0.324-0.066,0.659-0.127,1-0.185
		c0.338-0.058,0.681-0.11,1.033-0.159c1.707-0.236,3.589-0.376,5.623-0.376c8.801,0,14.934,2.534,14.934,4.809
		c0,0.077,0.021,0.147,0.053,0.214v30.731C85.726,86.133,79.606,88.629,70.845,88.629z"/>
</g>
</svg>
