<?xml version="1.0" encoding="utf-8"?>
<!-- Generator: Adobe Illustrator 16.0.0, SVG Export Plug-In . SVG Version: 6.00 Build 0)  -->
<!DOCTYPE svg PUBLIC "-//W3C//DTD SVG 1.1//EN" "http://www.w3.org/Graphics/SVG/1.1/DTD/svg11.dtd">
<svg version="1.1" id="Layer_1" xmlns="http://www.w3.org/2000/svg" xmlns:xlink="http://www.w3.org/1999/xlink" x="0px" y="0px"
	 width="120px" height="120px" viewBox="0 0 120 120" enable-background="new 0 0 120 120" xml:space="preserve">
<g>
	<path fill="#d8dfdb" d="M56.1,52.971c1.153,0.092,2.363,0.139,3.595,0.139c4.877,0,9.401-0.762,12.412-2.09c0.254-0.111,0.367-0.407,0.256-0.659
		c-0.11-0.252-0.406-0.366-0.658-0.256c-2.889,1.274-7.267,2.005-12.01,2.005c-1.205,0-2.388-0.046-3.515-0.136
		c-0.285-0.018-0.517,0.184-0.539,0.458C55.619,52.708,55.824,52.949,56.1,52.971z"/>
	<path fill="#d8dfdb" d="M56.102,47.363c1.161,0.095,2.37,0.143,3.592,0.143c4.872,0,9.396-0.762,12.412-2.089c0.253-0.111,0.367-0.406,0.256-0.659
		c-0.111-0.252-0.403-0.367-0.658-0.256c-2.895,1.274-7.271,2.004-12.01,2.004c-1.195,0-2.377-0.047-3.511-0.14
		c-0.267-0.015-0.517,0.182-0.539,0.458C55.622,47.099,55.827,47.341,56.102,47.363z"/>
	<path fill="#d8dfdb" d="M56.103,41.613c1.179,0.095,2.387,0.143,3.592,0.143c4.852,0,9.365-0.758,12.385-2.079
		c0.252-0.111,0.367-0.406,0.257-0.659c-0.11-0.252-0.403-0.368-0.659-0.257c-2.896,1.268-7.264,1.995-11.982,1.995
		c-1.178,0-2.359-0.047-3.512-0.14c-0.28-0.013-0.516,0.184-0.539,0.458C55.622,41.35,55.827,41.591,56.103,41.613z"/>
	<path fill="#d8dfdb" d="M94.497,87.303c-2.896,1.272-7.273,2.003-12.01,2.003c-1.195,0-2.377-0.047-3.512-0.14
		c-0.273-0.018-0.518,0.183-0.539,0.458c-0.023,0.275,0.182,0.517,0.457,0.539c1.163,0.095,2.372,0.143,3.594,0.143
		c4.87,0,9.395-0.762,12.412-2.089c0.253-0.11,0.367-0.405,0.256-0.658C95.046,87.306,94.751,87.189,94.497,87.303z"/>
	<path fill="#d8dfdb" d="M82.487,84.556c4.852,0,9.365-0.757,12.384-2.078c0.253-0.11,0.368-0.405,0.258-0.658s-0.405-0.368-0.658-0.258
		c-2.897,1.267-7.265,1.994-11.983,1.994c-1.174,0-2.356-0.047-3.514-0.14c-0.273-0.019-0.516,0.184-0.537,0.459
		c-0.022,0.275,0.184,0.517,0.459,0.539C80.078,84.508,81.286,84.556,82.487,84.556z"/>
	<path fill="#d8dfdb" d="M94.497,75.928c-2.896,1.272-7.273,2.003-12.01,2.003c-1.195,0-2.377-0.047-3.512-0.14
		c-0.273-0.016-0.518,0.183-0.539,0.458c-0.023,0.275,0.182,0.517,0.457,0.539c1.163,0.095,2.372,0.143,3.594,0.143
		c4.87,0,9.395-0.761,12.412-2.089c0.253-0.11,0.367-0.405,0.256-0.658C95.046,75.931,94.751,75.816,94.497,75.928z"/>
	<path fill="#d8dfdb" d="M94.497,70.303c-2.896,1.272-7.273,2.003-12.01,2.003c-1.195,0-2.377-0.047-3.512-0.14
		c-0.273-0.014-0.518,0.182-0.539,0.458c-0.023,0.275,0.182,0.517,0.457,0.539c1.163,0.095,2.372,0.143,3.594,0.143
		c4.87,0,9.395-0.761,12.412-2.089c0.253-0.11,0.367-0.405,0.256-0.658C95.046,70.307,94.751,70.191,94.497,70.303z"/>
	<path fill="#d8dfdb" d="M94.497,64.678c-2.896,1.272-7.273,2.003-12.01,2.003c-1.195,0-2.377-0.047-3.512-0.14
		c-0.273-0.022-0.518,0.182-0.539,0.458c-0.023,0.275,0.182,0.517,0.457,0.539c1.163,0.095,2.372,0.143,3.594,0.143
		c4.87,0,9.395-0.761,12.412-2.089c0.253-0.11,0.367-0.405,0.256-0.658C95.046,64.681,94.751,64.564,94.497,64.678z"/>
	<path fill="#d8dfdb" d="M98.302,90.28V59.494c0-0.094-0.033-0.177-0.078-0.253c-0.282-3.519-8.216-5.618-15.908-5.618
		c-2.263,0-4.543,0.187-6.648,0.532v-20.54c0-0.025-0.011-0.048-0.015-0.072c0.002-0.018,0.011-0.034,0.011-0.053
		c0-3.636-8.113-5.808-15.957-5.808c-7.832,0-15.929,2.164-15.962,5.787c-0.008,0.035-0.021,0.069-0.021,0.107v33.928
		c-2.248-0.402-4.725-0.614-7.176-0.614c-7.847,0-15.964,2.172-15.964,5.809c0,0.025,0.011,0.047,0.014,0.07
		c-0.018,0.053-0.033,0.105-0.033,0.164v11.746c0,0.084,0.026,0.16,0.062,0.229c-0.044,0.075-0.076,0.157-0.076,0.249
		c0,3.637,8.127,5.81,15.985,5.81c7.856,0,15.982-2.173,15.982-5.81c0-0.016-0.007-0.027-0.009-0.043v-3.859
		c2.21,0.392,4.671,0.607,7.185,0.607c2.268,0,4.552-0.188,6.662-0.531v8.926c-0.004,0.023-0.014,0.044-0.014,0.067
		c0,0.033,0.012,0.064,0.014,0.098v0.448c0,0.159,0.079,0.295,0.195,0.386c1.257,3.07,8.618,4.879,15.776,4.879
		c7.485,0,15.199-1.977,15.912-5.309c0.036-0.068,0.062-0.145,0.062-0.228v-0.212c0-0.021,0.009-0.041,0.009-0.062
		C98.311,90.308,98.304,90.296,98.302,90.28z M36.536,89.966c-8.831,0-14.985-2.534-14.985-4.81c0-0.084-0.026-0.159-0.062-0.229
		c0.044-0.074,0.076-0.156,0.076-0.25V72.932c0-0.025-0.011-0.047-0.014-0.072c0.018-0.051,0.033-0.104,0.033-0.162
		c0-2.275,6.146-4.809,14.964-4.809c8.815,0,14.958,2.533,14.958,4.809c0,0.075,0.02,0.145,0.049,0.209
		c-0.028,0.062-0.044,0.13-0.044,0.202v12.048c0,0.009,0.004,0.016,0.005,0.024C51.472,87.449,45.335,89.966,36.536,89.966z
		 M59.694,80.861c-2.521,0-4.989-0.219-7.185-0.622v-7.131c0-0.075-0.02-0.146-0.049-0.21c0.028-0.062,0.044-0.129,0.044-0.201
		c0-2.328-3.331-4.052-7.782-4.994V33.581c0.006-0.031,0.019-0.059,0.019-0.092c0-2.274,6.146-4.808,14.965-4.808
		c8.814,0,14.957,2.534,14.957,4.808c0,0.025,0.011,0.048,0.015,0.072c-0.002,0.018-0.011,0.034-0.011,0.053v20.719
		c-3.012,0.586-5.561,1.521-7.007,2.754c-1.14,0.24-2.366,0.432-3.647,0.561c-2.509,0.253-5.234,0.279-7.831,0.074
		c-0.277-0.016-0.516,0.184-0.538,0.459c-0.021,0.275,0.184,0.516,0.459,0.538c1.18,0.093,2.388,0.141,3.591,0.141
		c1.505,0,2.991-0.073,4.418-0.217c0.889-0.089,1.74-0.207,2.558-0.347c-0.183,0.361-0.295,0.737-0.295,1.134
		c0,0.058,0.015,0.111,0.032,0.163c-0.03,0.065-0.051,0.136-0.051,0.212v3.278c-0.777,0.131-1.583,0.24-2.414,0.322
		c-2.508,0.248-5.219,0.27-7.76,0.065c-0.266-0.017-0.516,0.183-0.539,0.458c-0.022,0.275,0.183,0.517,0.458,0.539
		c1.173,0.095,2.381,0.143,3.592,0.143c1.475,0,2.938-0.07,4.348-0.21c0.799-0.079,1.571-0.179,2.314-0.299v4.732
		c-0.805,0.134-1.641,0.247-2.504,0.33c-2.475,0.24-5.191,0.26-7.669,0.057c-0.267-0.018-0.517,0.183-0.539,0.458
		s0.183,0.517,0.458,0.539c1.161,0.095,2.37,0.143,3.592,0.143c1.449,0,2.881-0.068,4.255-0.201c0.832-0.08,1.636-0.184,2.407-0.308
		v4.733c-0.805,0.134-1.641,0.246-2.505,0.33c-2.49,0.24-5.185,0.26-7.668,0.056c-0.267-0.018-0.517,0.183-0.539,0.458
		s0.183,0.517,0.458,0.539c1.165,0.095,2.374,0.143,3.592,0.143c1.441,0,2.872-0.066,4.253-0.2c0.833-0.081,1.638-0.185,2.409-0.308
		v4.725C64.39,80.66,62.151,80.861,59.694,80.861z M82.328,95.134c-8.411,0-14.382-2.3-14.931-4.484
		c-0.021-0.081-0.035-0.162-0.041-0.243V81.15v-1.006v-4.717v-1.025v-4.725v-1.025v-4.728v-1.023v-3.095
		c0-0.058-0.015-0.111-0.033-0.163c0.031-0.065,0.052-0.136,0.052-0.212c0-0.471,0.277-0.953,0.773-1.422
		c0.794-0.75,2.183-1.463,4.041-2.041c0.753-0.234,1.579-0.446,2.478-0.628c0.324-0.066,0.659-0.126,1-0.184
		c0.335-0.057,0.676-0.11,1.026-0.158c1.706-0.236,3.589-0.376,5.622-0.376c8.801,0,14.935,2.534,14.935,4.809
		c0,0.077,0.021,0.148,0.052,0.213v30.731C97.208,92.638,91.09,95.134,82.328,95.134z"/>
	<path fill="#d8dfdb" d="M48.705,82.094c-2.896,1.273-7.273,2.004-12.01,2.004c-1.195,0-2.376-0.047-3.512-0.14
		c-0.275-0.017-0.517,0.183-0.539,0.458s0.183,0.517,0.458,0.539c1.163,0.095,2.372,0.143,3.593,0.143
		c4.87,0,9.394-0.762,12.412-2.088c0.253-0.111,0.368-0.406,0.256-0.659C49.253,82.098,48.959,81.982,48.705,82.094z"/>
	<path fill="#d8dfdb" d="M48.705,76.469c-2.896,1.273-7.273,2.004-12.01,2.004c-1.195,0-2.376-0.047-3.512-0.14
		c-0.275-0.015-0.517,0.183-0.539,0.458s0.183,0.517,0.458,0.539c1.163,0.095,2.372,0.143,3.593,0.143
		c4.87,0,9.394-0.762,12.412-2.088c0.253-0.111,0.368-0.406,0.256-0.659C49.253,76.473,48.959,76.357,48.705,76.469z"/>
</g>
</svg>
