<?xml version="1.0" encoding="utf-8"?>
<!-- Generator: Adobe Illustrator 16.0.0, SVG Export Plug-In . SVG Version: 6.00 Build 0)  -->
<!DOCTYPE svg PUBLIC "-//W3C//DTD SVG 1.1//EN" "http://www.w3.org/Graphics/SVG/1.1/DTD/svg11.dtd">
<svg version="1.1" id="Layer_1" xmlns="http://www.w3.org/2000/svg" xmlns:xlink="http://www.w3.org/1999/xlink" x="0px" y="0px"
	 width="120px" height="120px" viewBox="0 0 120 120" enable-background="new 0 0 120 120" xml:space="preserve">
<g>
	<path fill="#e0a409" d="M99.903,44.934v-9.716c0-0.076-0.02-0.146-0.05-0.21c-0.312-3.507-8.235-5.598-15.921-5.598
		c-2.269,0-4.554,0.187-6.664,0.533V8.718c0-0.025-0.011-0.048-0.015-0.072c0.002-0.018,0.011-0.034,0.011-0.053
		c0-3.636-8.113-5.808-15.957-5.808c-7.832,0-15.929,2.164-15.962,5.787c-0.008,0.035-0.021,0.069-0.021,0.107v16.279
		c-2.248-0.403-4.725-0.615-7.176-0.615c-7.847,0-15.964,2.173-15.964,5.809c0,0.025,0.011,0.048,0.015,0.072
		c-0.019,0.052-0.033,0.106-0.033,0.164v23.075c-7.536,0.089-15.137,2.168-15.41,5.611c-0.027,0.062-0.045,0.13-0.045,0.203v41.356
		c-0.003,0.022-0.014,0.043-0.014,0.067c0,0.033,0.013,0.064,0.014,0.098v0.194c0,0.082,0.023,0.155,0.059,0.224
		c0.73,3.323,8.437,5.294,15.913,5.294c1.177,0,2.344-0.051,3.483-0.14v4.036c0,0.021,0.01,0.039,0.012,0.06
		c-0.011,0.042-0.025,0.082-0.025,0.128c0,3.637,8.128,5.809,15.985,5.809c7.856,0,15.982-2.172,15.982-5.809
		c0-0.049-0.015-0.093-0.027-0.137c0.006-0.031,0.019-0.061,0.019-0.094v-19.13c1.045,0.073,2.107,0.122,3.185,0.122
		c2.268,0,4.552-0.186,6.662-0.531v8.927c-0.003,0.023-0.014,0.044-0.014,0.067c0,0.033,0.013,0.064,0.014,0.098v0.448
		c0,0.159,0.079,0.295,0.194,0.386c1.258,3.07,8.619,4.879,15.777,4.879c7.485,0,15.199-1.977,15.912-5.309
		c0.036-0.068,0.062-0.145,0.062-0.228v-0.212c0.001-0.021,0.009-0.041,0.009-0.062c0-0.016-0.008-0.027-0.009-0.043v-1.893
		c6.346-0.481,12.078-2.352,12.639-5.223c0.038-0.071,0.065-0.148,0.065-0.234V50.622c0-0.002,0.001-0.003,0.001-0.005
		C112.608,47.482,106.584,45.438,99.903,44.934z M58.037,80.054c-0.008-0.108-0.023-0.216-0.046-0.322
		c1.074,0.08,2.182,0.125,3.305,0.125c1.449-0.001,2.881-0.068,4.255-0.201c0.832-0.08,1.636-0.184,2.407-0.308v4.732
		c-0.805,0.135-1.642,0.248-2.505,0.331c-2.385,0.229-4.95,0.251-7.342,0.075v-4.186C58.111,80.209,58.08,80.128,58.037,80.054z
		 M46.324,8.685c0.006-0.031,0.019-0.059,0.019-0.092c0-2.274,6.146-4.808,14.965-4.808c8.814,0,14.957,2.534,14.957,4.808
		c0,0.025,0.011,0.048,0.015,0.072c-0.002,0.018-0.011,0.034-0.011,0.053v21.404c-2.262,0.44-4.255,1.078-5.725,1.89
		c-2.622,0.688-5.841,1.071-9.248,1.071c-1.179,0-2.36-0.046-3.512-0.138c-0.28-0.02-0.517,0.184-0.538,0.459
		c-0.022,0.275,0.184,0.516,0.458,0.538c1.179,0.094,2.387,0.141,3.592,0.141c2.63,0,5.152-0.229,7.402-0.644
		c-0.451,0.538-0.71,1.121-0.718,1.751c-0.009,0.037-0.022,0.072-0.022,0.111v3.01c-2.042,0.338-4.309,0.52-6.662,0.52
		c-1.179,0-2.36-0.046-3.512-0.138c-0.28-0.018-0.517,0.184-0.538,0.459c-0.022,0.275,0.184,0.516,0.458,0.538
		c1.179,0.094,2.387,0.141,3.592,0.141c2.343,0,4.604-0.18,6.662-0.512v4.661c-2.042,0.338-4.309,0.52-6.662,0.52
		c-1.179,0-2.36-0.046-3.512-0.138c-0.28-0.015-0.517,0.184-0.538,0.459c-0.022,0.275,0.184,0.516,0.458,0.538
		c1.179,0.094,2.387,0.141,3.592,0.141c2.343,0,4.604-0.18,6.662-0.512v4.742c-2.041,0.339-4.308,0.521-6.662,0.521
		c-1.178,0-2.359-0.047-3.512-0.14c-0.28-0.015-0.517,0.183-0.538,0.458c-0.022,0.275,0.183,0.516,0.458,0.539
		c1.179,0.095,2.388,0.143,3.592,0.143c2.345,0,4.605-0.181,6.662-0.513v4.729c-2.067,0.344-4.335,0.533-6.662,0.533
		c-1.196,0-2.377-0.047-3.511-0.14c-0.28-0.021-0.517,0.182-0.539,0.458c-0.022,0.275,0.183,0.517,0.457,0.539
		c1.161,0.095,2.37,0.143,3.593,0.143c2.318,0,4.585-0.182,6.662-0.517v4.596c-2.079,0.346-4.318,0.525-6.662,0.525
		c-1.205,0-2.388-0.047-3.515-0.137c-0.277-0.018-0.517,0.184-0.538,0.459c-0.022,0.275,0.183,0.516,0.458,0.538
		c1.153,0.093,2.363,0.14,3.595,0.14c2.339,0,4.575-0.177,6.662-0.515v4.739c-0.755,0.126-1.538,0.232-2.344,0.313
		c-2.51,0.253-5.234,0.278-7.831,0.074c-0.26-0.018-0.516,0.184-0.537,0.459c-0.022,0.275,0.184,0.517,0.459,0.538
		c1.18,0.094,2.388,0.141,3.591,0.141c1.505,0,2.991-0.072,4.418-0.217c0.773-0.078,1.522-0.176,2.244-0.291v4.732
		c-0.776,0.129-1.583,0.238-2.413,0.321c-2.51,0.248-5.218,0.271-7.761,0.065c-0.28-0.018-0.517,0.184-0.538,0.459
		c-0.022,0.274,0.183,0.516,0.458,0.538c1.173,0.095,2.381,0.143,3.592,0.143c1.475,0,2.937-0.071,4.347-0.21
		c0.799-0.079,1.572-0.18,2.315-0.299v4.732c-0.805,0.135-1.64,0.247-2.503,0.33c-2.477,0.238-5.193,0.26-7.67,0.057
		c-0.077-0.006-0.149,0.01-0.217,0.035c-0.632-0.941-1.845-1.752-3.457-2.404V30.385c0-0.046-0.015-0.087-0.025-0.129
		c0.007-0.035,0.021-0.067,0.021-0.104c0-2.328-3.331-4.052-7.782-4.994V8.685z M23.185,30.151c0-2.274,6.146-4.809,14.964-4.809
		c8.815,0,14.958,2.534,14.958,4.809c0,0.046,0.015,0.087,0.026,0.129c-0.008,0.035-0.021,0.067-0.021,0.104V75.98
		c-3.014-1.016-7.033-1.57-10.986-1.57c-1.17,0-2.344,0.054-3.498,0.148V59.051c0-0.102-0.038-0.19-0.09-0.27
		c-0.668-3.27-8.051-5.234-15.371-5.32V30.388c0-0.025-0.011-0.048-0.015-0.072C23.17,30.264,23.185,30.209,23.185,30.151z
		 M22.683,105.51c-8.726,0-14.826-2.474-14.972-4.728V79.084V63.358v-4.004c0.006-0.031,0.019-0.06,0.019-0.092
		c0-2.274,6.136-4.809,14.94-4.809c8.801,0,14.935,2.534,14.935,4.809c0,0.04,0.014,0.075,0.022,0.111v3.851v11.424
		c-3.79,0.402-7.247,1.307-9.347,2.628c-0.1-0.072-0.224-0.111-0.348-0.096c-2.726,0.324-5.753,0.374-8.522,0.147
		c-0.279-0.012-0.517,0.183-0.539,0.459c-0.022,0.275,0.183,0.516,0.457,0.539c1.163,0.094,2.372,0.143,3.594,0.143
		c1.412,0,2.792-0.082,4.139-0.209c-0.509,0.543-0.802,1.137-0.851,1.777c-0.027,0.062-0.044,0.129-0.044,0.201v2.609
		c-1.053,0.077-2.138,0.121-3.244,0.121c-1.194,0-2.376-0.047-3.512-0.141c-0.279-0.016-0.517,0.184-0.539,0.459
		s0.183,0.516,0.457,0.539c1.163,0.094,2.372,0.143,3.594,0.143c1.105,0,2.188-0.045,3.244-0.121v4.625
		c-2.232,0.164-4.57,0.159-6.756-0.02c-0.279-0.018-0.517,0.184-0.539,0.459s0.183,0.516,0.457,0.539
		c1.163,0.094,2.372,0.143,3.594,0.143c0.653,0,1.291-0.034,1.932-0.061c0.44-0.02,0.88-0.035,1.312-0.066v4.607
		c-1.078,0.08-2.189,0.125-3.324,0.125c-1.194,0-2.376-0.047-3.512-0.14c-0.296-0.021-0.516,0.183-0.539,0.458
		c-0.022,0.275,0.183,0.517,0.457,0.539c1.163,0.095,2.372,0.143,3.594,0.143c1.133,0,2.243-0.045,3.324-0.125v4.625
		c-1.078,0.08-2.189,0.125-3.324,0.125c-1.194,0-2.376-0.047-3.512-0.14c-0.296-0.013-0.516,0.183-0.539,0.458
		c-0.022,0.275,0.183,0.517,0.457,0.539c1.163,0.095,2.372,0.143,3.594,0.143c1.133,0,2.243-0.045,3.324-0.125v4.67
		C25.028,105.459,23.859,105.51,22.683,105.51z M57.12,110.594c0,2.274-6.153,4.809-14.982,4.809
		c-8.831,0-14.985-2.534-14.985-4.809c0-0.021-0.01-0.04-0.012-0.061c0.011-0.041,0.025-0.082,0.025-0.127v-6.575v-3.223v-1.003
		v-4.622V93.98v-4.611v-0.996v-0.014v-4.599v-1.004v-2.446c0.006-0.031,0.019-0.06,0.019-0.092c0-1.863,4.118-3.897,10.442-4.574
		c0.189-0.02,0.386-0.035,0.578-0.053c0.141-0.014,0.279-0.027,0.422-0.039c1.11-0.09,2.275-0.143,3.498-0.143
		c4.529,0,8.342,0.673,10.986,1.635c0.356,0.129,0.688,0.264,1,0.402c1.874,0.836,2.948,1.824,2.948,2.771
		c0,0.076,0.021,0.147,0.052,0.213v9.721v1.006v4.569v14.636c0,0.049,0.015,0.093,0.027,0.137
		C57.133,110.531,57.12,110.561,57.12,110.594z M61.296,90.355c-1.078,0-2.142-0.049-3.185-0.124v-4.743
		c1.04,0.074,2.105,0.119,3.185,0.119c1.441,0,2.872-0.068,4.253-0.201c0.833-0.08,1.637-0.184,2.409-0.309v4.725
		C65.99,90.154,63.752,90.355,61.296,90.355z M83.93,104.629c-8.41,0-14.381-2.299-14.931-4.483
		c-0.021-0.081-0.036-0.163-0.041-0.244v-9.255V89.64v-4.718v-1.023v-4.727v-1.023V73.42v-1.023V67.67v-1.022V56.303v-1.016v-4.731
		V49.54v-4.734V43.79v-4.653v-1.016V35.31c0.006-0.031,0.019-0.059,0.019-0.092c0-0.767,0.711-1.561,1.974-2.279
		c0.785-0.447,1.786-0.864,2.978-1.226c0.716-0.217,1.497-0.414,2.341-0.584c0.323-0.066,0.659-0.126,1-0.184
		c0.474-0.08,0.962-0.152,1.467-0.216c1.594-0.201,3.331-0.32,5.197-0.32c8.811,0,14.95,2.534,14.95,4.809
		c0,0.036,0.014,0.068,0.021,0.102v7.517v2.037v0.998v11.835v1.001v4.541v1.001v4.624v1.001v3.359v1.265v1.001v4.624v1.001v4.623
		v1.002v4.525v1v0.06v4.614v0.998v1.403v0.522C98.81,102.133,92.69,104.629,83.93,104.629z M99.903,96.89v-4.675
		c3.672-0.249,6.981-0.936,9.354-1.979c0.253-0.111,0.368-0.406,0.257-0.659c-0.112-0.253-0.406-0.366-0.659-0.257
		c-1.942,0.854-4.559,1.457-7.495,1.766c-0.479,0.051-0.963,0.094-1.457,0.129v-4.526c3.652-0.251,6.943-0.937,9.306-1.976
		c0.253-0.111,0.368-0.406,0.257-0.659c-0.112-0.253-0.406-0.366-0.659-0.257c-2.248,0.988-5.395,1.645-8.903,1.891v-4.623
		c3.652-0.252,6.943-0.938,9.306-1.977c0.253-0.111,0.368-0.406,0.257-0.658c-0.112-0.253-0.406-0.367-0.659-0.257
		c-2.248,0.988-5.395,1.644-8.903,1.891v-4.624c2.425-0.168,4.688-0.525,6.627-1.053c0.981-0.268,1.885-0.574,2.679-0.924
		c0.253-0.111,0.368-0.406,0.257-0.658c-0.112-0.253-0.406-0.366-0.659-0.257c-1.279,0.562-2.858,1.011-4.618,1.346
		c-1.335,0.253-2.772,0.438-4.285,0.545v-1.109v-3.515c3.652-0.252,6.943-0.938,9.306-1.977c0.253-0.111,0.368-0.406,0.257-0.658
		c-0.112-0.254-0.406-0.367-0.659-0.257c-2.248,0.988-5.395,1.644-8.903,1.891v-4.624c3.652-0.252,6.943-0.938,9.306-1.977
		c0.253-0.111,0.368-0.406,0.257-0.658c-0.112-0.254-0.406-0.367-0.659-0.257c-2.248,0.988-5.395,1.644-8.903,1.891v-4.542
		c3.652-0.251,6.943-0.937,9.306-1.976c0.253-0.111,0.368-0.406,0.257-0.659c-0.112-0.253-0.406-0.366-0.659-0.256
		c-2.248,0.988-5.395,1.644-8.903,1.891V45.927c7.03,0.524,11.697,2.702,11.704,4.685c0,0,0,0.001,0,0.001v26.329v8.944v6.309
		c0,0.002-0.001,0.003-0.001,0.005C111.606,94.184,106.938,96.363,99.903,96.89z"/>
	<path fill="#e0a409" d="M50.307,57.798c-2.208,0.971-5.362,1.643-8.881,1.893c-0.275,0.02-0.483,0.258-0.464,0.534
		c0.019,0.263,0.238,0.464,0.498,0.464c0.013,0,0.024,0,0.036-0.001c3.631-0.258,6.902-0.959,9.213-1.975
		c0.253-0.111,0.368-0.406,0.257-0.659C50.854,57.802,50.56,57.688,50.307,57.798z"/>
	<path fill="#e0a409" d="M50.307,52.173c-2.551,1.122-6.39,1.843-10.532,1.979c-0.275,0.009-0.492,0.24-0.483,0.516
		c0.009,0.27,0.231,0.483,0.5,0.483c0.005,0,0.011,0,0.017,0c4.266-0.14,8.239-0.892,10.901-2.063
		c0.253-0.111,0.368-0.406,0.257-0.659C50.854,52.176,50.56,52.062,50.307,52.173z"/>
	<path fill="#e0a409" d="M34.703,49.409c1.163,0.095,2.372,0.143,3.594,0.143c4.87,0,9.395-0.761,12.412-2.088c0.253-0.111,0.368-0.406,0.257-0.659
		c-0.112-0.253-0.406-0.367-0.659-0.256c-2.896,1.273-7.273,2.003-12.01,2.003c-1.194,0-2.376-0.047-3.512-0.14
		c-0.293-0.021-0.516,0.182-0.539,0.458C34.224,49.145,34.429,49.386,34.703,49.409z"/>
	<path fill="#e0a409" d="M34.703,43.784c1.163,0.095,2.372,0.143,3.594,0.143c4.87,0,9.395-0.761,12.412-2.088c0.253-0.111,0.368-0.406,0.257-0.659
		c-0.112-0.253-0.406-0.366-0.659-0.256c-2.896,1.273-7.273,2.003-12.01,2.003c-1.194,0-2.376-0.047-3.512-0.14
		c-0.293-0.019-0.516,0.183-0.539,0.458C34.224,43.52,34.429,43.761,34.703,43.784z"/>
	<path fill="#e0a409" d="M34.703,38.242c1.163,0.095,2.372,0.143,3.594,0.143c4.87,0,9.395-0.761,12.412-2.088c0.253-0.111,0.368-0.406,0.257-0.659
		c-0.112-0.253-0.406-0.366-0.659-0.256c-2.896,1.273-7.273,2.003-12.01,2.003c-1.194,0-2.376-0.047-3.512-0.14
		c-0.293-0.022-0.516,0.182-0.539,0.458C34.224,37.978,34.429,38.219,34.703,38.242z"/>
	<path fill="#e0a409" d="M57.704,28.273c1.179,0.094,2.387,0.141,3.592,0.141c4.834,0,9.339-0.752,12.36-2.064c0.253-0.11,0.369-0.404,0.26-0.658
		c-0.11-0.253-0.405-0.37-0.658-0.259c-2.9,1.259-7.26,1.981-11.962,1.981c-1.179,0-2.36-0.046-3.512-0.138
		c-0.28-0.023-0.517,0.183-0.538,0.459C57.224,28.01,57.43,28.251,57.704,28.273z"/>
	<path fill="#e0a409" d="M57.704,22.442c1.179,0.094,2.387,0.141,3.592,0.141c4.834,0,9.339-0.752,12.36-2.064c0.253-0.11,0.369-0.404,0.26-0.658
		c-0.11-0.253-0.405-0.371-0.658-0.259c-2.9,1.259-7.26,1.981-11.962,1.981c-1.179,0-2.36-0.046-3.512-0.138
		c-0.28-0.019-0.517,0.184-0.538,0.459C57.224,22.179,57.43,22.42,57.704,22.442z"/>
	<path fill="#e0a409" d="M57.704,16.773c1.179,0.094,2.387,0.141,3.592,0.141c4.834,0,9.339-0.752,12.36-2.064c0.253-0.11,0.369-0.404,0.26-0.658
		c-0.11-0.253-0.405-0.371-0.658-0.259c-2.9,1.259-7.26,1.981-11.962,1.981c-1.179,0-2.36-0.046-3.512-0.138
		c-0.28-0.022-0.517,0.183-0.538,0.459C57.224,16.51,57.43,16.751,57.704,16.773z"/>
	<path fill="#e0a409" d="M96.726,97.008c-0.126-0.217-0.392-0.312-0.627-0.211c-0.155,0.068-0.331,0.129-0.494,0.194
		c-0.812,0.323-1.721,0.606-2.713,0.847c-2.536,0.617-5.58,0.963-8.803,0.963c-1.194,0-2.376-0.047-3.512-0.14
		c-0.292-0.014-0.516,0.183-0.539,0.458c-0.022,0.275,0.183,0.517,0.457,0.539c1.163,0.095,2.372,0.143,3.594,0.143
		c4.505,0,8.698-0.658,11.692-1.807c0.242-0.092,0.493-0.182,0.72-0.281c0.253-0.111,0.368-0.406,0.257-0.659
		C96.75,97.036,96.735,97.025,96.726,97.008z"/>
	<path fill="#e0a409" d="M80.496,93.908c0.303,0.024,0.609,0.037,0.914,0.055c0.518,0.031,1.036,0.053,1.558,0.065
		c0.374,0.009,0.748,0.022,1.121,0.022c0.194,0,0.384-0.009,0.577-0.012c4.207-0.053,8.113-0.674,10.968-1.738
		c0.286-0.107,0.575-0.213,0.839-0.328c0.25-0.109,0.364-0.399,0.26-0.65c-0.001-0.003-0.001-0.006-0.002-0.008
		c-0.11-0.254-0.405-0.369-0.658-0.258c-0.193,0.084-0.41,0.16-0.616,0.24c-0.748,0.289-1.575,0.546-2.472,0.768
		c-2.557,0.633-5.636,0.986-8.896,0.986c-0.644,0-1.29-0.018-1.933-0.045c-0.069-0.003-0.138-0.01-0.206-0.013
		c-0.378-0.019-0.755-0.039-1.13-0.067c-0.081-0.006-0.163-0.008-0.244-0.014c-0.268-0.018-0.517,0.184-0.538,0.459
		C80.016,93.646,80.221,93.887,80.496,93.908z"/>
	<path fill="#e0a409" d="M80.495,88.283c0.183,0.015,0.373,0.021,0.558,0.033c0.992,0.068,2.006,0.109,3.036,0.109
		c4.307,0,8.339-0.598,11.302-1.652c0.388-0.139,0.762-0.282,1.11-0.436c0.213-0.094,0.319-0.318,0.283-0.537
		c-0.007-0.041-0.009-0.082-0.026-0.122c-0.111-0.253-0.406-0.366-0.659-0.257c-0.278,0.123-0.582,0.235-0.887,0.348
		c-0.718,0.265-1.509,0.498-2.354,0.703c-2.53,0.611-5.561,0.953-8.769,0.953c-1.03,0-2.046-0.042-3.036-0.111
		c-0.157-0.011-0.32-0.016-0.476-0.028c-0.292-0.02-0.516,0.183-0.539,0.458C80.016,88.02,80.221,88.261,80.495,88.283z"/>
	<path fill="#e0a409" d="M80.495,82.658c0.183,0.015,0.373,0.021,0.558,0.033c0.992,0.068,2.006,0.109,3.036,0.109c4.306,0,8.337-0.598,11.3-1.652
		c0.389-0.139,0.763-0.282,1.112-0.436c0.213-0.094,0.319-0.317,0.283-0.537c-0.007-0.041-0.009-0.082-0.026-0.122
		c-0.111-0.253-0.406-0.366-0.659-0.257c-0.278,0.123-0.583,0.236-0.888,0.348c-0.719,0.265-1.508,0.498-2.354,0.703
		c-2.529,0.611-5.56,0.953-8.768,0.953c-1.03,0-2.046-0.042-3.036-0.111c-0.157-0.011-0.32-0.016-0.476-0.028
		c-0.292-0.017-0.516,0.183-0.539,0.458C80.016,82.395,80.221,82.636,80.495,82.658z"/>
	<path fill="#e0a409" d="M80.495,77.033c0.397,0.032,0.806,0.052,1.213,0.073c0.783,0.041,1.576,0.069,2.381,0.069c4.306,0,8.337-0.598,11.3-1.652
		c0.389-0.139,0.763-0.282,1.112-0.436c0.213-0.094,0.319-0.317,0.283-0.537c-0.007-0.041-0.009-0.082-0.026-0.122
		c-0.111-0.253-0.406-0.366-0.659-0.257c-0.278,0.123-0.583,0.236-0.888,0.348c-0.719,0.265-1.508,0.498-2.354,0.703
		c-2.529,0.611-5.56,0.953-8.768,0.953c-0.511,0-1.017-0.013-1.521-0.029c-0.674-0.023-1.341-0.057-1.991-0.11
		c-0.292-0.015-0.516,0.183-0.539,0.458C80.016,76.77,80.221,77.011,80.495,77.033z"/>
	<path fill="#e0a409" d="M80.495,71.408c1.163,0.096,2.372,0.143,3.594,0.143c4.307,0,8.339-0.597,11.302-1.652c0.388-0.138,0.762-0.282,1.11-0.436
		c0.213-0.094,0.319-0.317,0.283-0.537c-0.007-0.041-0.009-0.082-0.026-0.121c-0.111-0.254-0.406-0.366-0.659-0.257
		c-0.278,0.122-0.582,0.235-0.887,0.347c-0.718,0.265-1.509,0.498-2.354,0.703c-2.53,0.611-5.561,0.953-8.769,0.953
		c-1.194,0-2.376-0.047-3.512-0.139c-0.292-0.014-0.516,0.182-0.539,0.457C80.016,71.145,80.221,71.387,80.495,71.408z"/>
	<path fill="#e0a409" d="M80.495,65.783c1.163,0.096,2.372,0.143,3.594,0.143c4.307,0,8.339-0.597,11.302-1.652c0.388-0.138,0.762-0.282,1.11-0.436
		c0.213-0.094,0.319-0.317,0.283-0.537c-0.007-0.041-0.009-0.082-0.026-0.121c-0.111-0.254-0.406-0.367-0.659-0.257
		c-0.278,0.122-0.582,0.235-0.887,0.347c-0.718,0.265-1.509,0.498-2.354,0.703c-2.53,0.611-5.561,0.953-8.769,0.953
		c-1.194,0-2.376-0.047-3.512-0.139c-0.292-0.021-0.516,0.182-0.539,0.457C80.016,65.52,80.221,65.762,80.495,65.783z"/>
	<path fill="#e0a409" d="M84.089,60.301c4.197,0,8.132-0.568,11.071-1.574c0.472-0.161,0.924-0.331,1.341-0.515
		c0.186-0.082,0.295-0.263,0.297-0.453c0.001-0.069-0.011-0.139-0.04-0.206c-0.111-0.253-0.406-0.366-0.659-0.256
		c-0.342,0.15-0.708,0.292-1.089,0.426c-0.673,0.238-1.414,0.446-2.194,0.634c-2.521,0.605-5.536,0.943-8.727,0.943
		c-1.194,0-2.376-0.047-3.512-0.14c-0.292-0.018-0.516,0.183-0.539,0.458c-0.022,0.275,0.183,0.517,0.457,0.539
		C81.658,60.253,82.867,60.301,84.089,60.301z"/>
	<path fill="#e0a409" d="M96.099,51.672c-2.896,1.273-7.273,2.003-12.01,2.003c-1.194,0-2.376-0.047-3.512-0.14
		c-0.292-0.015-0.516,0.183-0.539,0.458c-0.022,0.275,0.183,0.517,0.457,0.539c1.163,0.095,2.372,0.143,3.594,0.143
		c4.87,0,9.395-0.761,12.412-2.088c0.253-0.111,0.368-0.406,0.257-0.659S96.352,51.563,96.099,51.672z"/>
	<path fill="#e0a409" d="M96.099,46.048c-2.864,1.259-7.18,1.984-11.856,2c-0.052,0-0.102,0.003-0.153,0.003c-0.585,0-1.167-0.012-1.743-0.034
		c-0.599-0.023-1.189-0.058-1.769-0.105c-0.292-0.013-0.516,0.183-0.539,0.458c-0.022,0.275,0.183,0.517,0.457,0.539
		c0.284,0.023,0.579,0.035,0.868,0.052c0.441,0.027,0.885,0.049,1.334,0.063c0.462,0.014,0.925,0.027,1.392,0.027
		c4.87,0,9.395-0.761,12.412-2.088c0.253-0.111,0.368-0.406,0.257-0.659S96.352,45.938,96.099,46.048z"/>
	<path fill="#e0a409" d="M96.099,40.423c-2.896,1.273-7.273,2.003-12.01,2.003c-1.194,0-2.376-0.047-3.512-0.14
		c-0.292-0.021-0.516,0.182-0.539,0.458c-0.022,0.275,0.183,0.517,0.457,0.539c1.163,0.095,2.372,0.143,3.594,0.143
		c4.87,0,9.395-0.761,12.412-2.088c0.253-0.111,0.368-0.406,0.257-0.659S96.352,40.312,96.099,40.423z"/>
	<path fill="#e0a409" d="M54.307,107.672c-2.896,1.273-7.273,2.004-12.01,2.004c-1.19,0-2.372-0.047-3.512-0.14
		c-0.294-0.021-0.516,0.183-0.539,0.458c-0.022,0.275,0.183,0.517,0.457,0.539c1.167,0.095,2.376,0.143,3.594,0.143
		c4.87,0,9.394-0.762,12.412-2.089c0.253-0.11,0.368-0.406,0.257-0.659C54.854,107.676,54.56,107.562,54.307,107.672z"/>
	<path fill="#e0a409" d="M54.307,102.047c-2.896,1.273-7.273,2.004-12.01,2.004c-1.194,0-2.376-0.047-3.512-0.14
		c-0.294-0.018-0.516,0.183-0.539,0.458c-0.022,0.275,0.183,0.517,0.457,0.539c1.163,0.095,2.372,0.143,3.594,0.143
		c4.87,0,9.395-0.762,12.412-2.088c0.253-0.111,0.368-0.406,0.257-0.659S54.56,101.938,54.307,102.047z"/>
	<path fill="#e0a409" d="M54.531,96.428c-0.075-0.004-0.151,0.004-0.225,0.037c-0.064,0.027-0.139,0.052-0.203,0.079
		c-1.438,0.606-3.211,1.086-5.207,1.413c-2.024,0.332-4.268,0.511-6.6,0.511c-1.194,0-2.376-0.047-3.512-0.14
		c-0.294-0.019-0.516,0.183-0.539,0.458c-0.022,0.275,0.183,0.517,0.457,0.539c1.163,0.095,2.372,0.143,3.594,0.143
		c0.375,0,0.743-0.013,1.113-0.021c4.439-0.107,8.514-0.842,11.299-2.067c0.253-0.11,0.368-0.405,0.257-0.658
		C54.887,96.541,54.715,96.438,54.531,96.428z"/>
	<path fill="#e0a409" d="M54.307,90.881c-0.062,0.027-0.133,0.051-0.195,0.077c-0.319,0.135-0.648,0.267-1,0.388
		c-2.839,0.984-6.689,1.539-10.814,1.539c-1.194,0-2.376-0.047-3.512-0.14c-0.294-0.021-0.516,0.183-0.539,0.458
		c-0.022,0.275,0.183,0.517,0.457,0.539c1.163,0.095,2.372,0.143,3.594,0.143c4.079,0,7.902-0.54,10.814-1.493
		c0.349-0.114,0.68-0.235,1-0.36c0.199-0.078,0.41-0.152,0.598-0.234c0.253-0.111,0.368-0.406,0.257-0.659
		S54.56,90.771,54.307,90.881z"/>
	<path fill="#e0a409" d="M54.307,85.381c-0.062,0.027-0.133,0.051-0.195,0.077c-0.319,0.135-0.648,0.267-1,0.388
		c-2.839,0.984-6.689,1.539-10.814,1.539c-1.194,0-2.376-0.047-3.512-0.14c-0.294-0.017-0.516,0.183-0.539,0.458
		c-0.022,0.275,0.183,0.517,0.457,0.539c1.163,0.095,2.372,0.143,3.594,0.143c4.079,0,7.902-0.54,10.814-1.493
		c0.349-0.114,0.68-0.235,1-0.36c0.199-0.078,0.41-0.152,0.598-0.234c0.253-0.111,0.368-0.406,0.257-0.659
		S54.56,85.271,54.307,85.381z"/>
	<path fill="#e0a409" d="M19.328,72.826c1.163,0.094,2.372,0.143,3.594,0.143c4.87,0,9.395-0.762,12.412-2.089c0.253-0.11,0.368-0.405,0.257-0.659
		c-0.112-0.252-0.406-0.367-0.659-0.256c-2.896,1.273-7.273,2.004-12.01,2.004c-1.194,0-2.376-0.047-3.512-0.141
		c-0.279-0.02-0.517,0.184-0.539,0.459S19.054,72.803,19.328,72.826z"/>
	<path fill="#e0a409" d="M19.328,67.326c1.163,0.094,2.372,0.143,3.594,0.143c4.87,0,9.395-0.762,12.412-2.089c0.253-0.11,0.368-0.405,0.257-0.659
		c-0.112-0.252-0.406-0.365-0.659-0.256c-2.896,1.273-7.273,2.004-12.01,2.004c-1.194,0-2.376-0.047-3.512-0.141
		c-0.279-0.016-0.517,0.184-0.539,0.459S19.054,67.303,19.328,67.326z"/>
	<path fill="#e0a409" d="M50.307,69.232c-2.197,0.967-5.34,1.639-8.85,1.892c-0.275,0.02-0.482,0.259-0.463,0.534
		c0.02,0.264,0.238,0.465,0.498,0.465c0.013,0,0.024-0.001,0.037-0.002c3.62-0.26,6.881-0.961,9.18-1.973
		c0.253-0.111,0.368-0.406,0.257-0.659C50.854,69.236,50.56,69.123,50.307,69.232z"/>
	<path fill="#e0a409" d="M50.307,63.451c-2.197,0.967-5.34,1.639-8.85,1.892c-0.275,0.02-0.482,0.259-0.463,0.534
		c0.02,0.264,0.238,0.465,0.498,0.465c0.013,0,0.024-0.001,0.037-0.002c3.62-0.26,6.881-0.961,9.18-1.973
		c0.253-0.111,0.368-0.406,0.257-0.659C50.854,63.455,50.56,63.341,50.307,63.451z"/>
</g>
</svg>
