<?xml version="1.0" encoding="utf-8"?>
<!-- Generator: Adobe Illustrator 16.0.0, SVG Export Plug-In . SVG Version: 6.00 Build 0)  -->
<!DOCTYPE svg PUBLIC "-//W3C//DTD SVG 1.1//EN" "http://www.w3.org/Graphics/SVG/1.1/DTD/svg11.dtd">
<svg version="1.1" id="Layer_1" xmlns="http://www.w3.org/2000/svg" xmlns:xlink="http://www.w3.org/1999/xlink" x="0px" y="0px"
	 width="120px" height="120px" viewBox="0 0 120 120" enable-background="new 0 0 120 120" xml:space="preserve">
<g>
	<path fill="#e0a409" d="M113.197,79.115c0-3.135-6.024-5.178-12.705-5.682V35.884c0-0.076-0.02-0.146-0.05-0.21
		c-0.312-3.507-8.235-5.598-15.921-5.598c-2.269,0-4.554,0.187-6.664,0.533V9.384c0-0.025-0.011-0.048-0.015-0.072
		c0.002-0.018,0.011-0.034,0.011-0.053c0-3.636-8.113-5.808-15.957-5.808c-7.832,0-15.929,2.164-15.962,5.787
		c-0.008,0.035-0.021,0.069-0.021,0.107v16.279c-2.248-0.403-4.725-0.615-7.176-0.615c-7.847,0-15.964,2.173-15.964,5.809
		c0,0.025,0.011,0.048,0.015,0.072c-0.019,0.052-0.033,0.106-0.033,0.164v39.575c-7.676,0.09-15.437,2.242-15.437,5.799
		c0,0.029,0.012,0.055,0.017,0.084C7.314,76.566,7.3,76.625,7.3,76.686v24.613c-0.003,0.023-0.014,0.043-0.014,0.068
		c0,0.033,0.013,0.064,0.014,0.098v0.193c0,0.082,0.023,0.156,0.059,0.225c0.73,3.322,8.437,5.293,15.913,5.293
		c1.165,0,2.334-0.053,3.483-0.146v4.043c0,0.021,0.01,0.039,0.012,0.061c-0.011,0.041-0.025,0.082-0.025,0.127
		c0,3.637,8.128,5.809,15.985,5.809c7.856,0,15.982-2.172,15.982-5.809c0-0.049-0.015-0.092-0.027-0.137
		c0.006-0.031,0.019-0.061,0.019-0.094V91.9c1.045,0.072,2.107,0.121,3.185,0.121c2.268,0,4.552-0.186,6.662-0.531v8.928
		c-0.003,0.023-0.014,0.043-0.014,0.066c0,0.033,0.013,0.064,0.014,0.098v0.449c0,0.158,0.079,0.295,0.194,0.385
		c1.258,3.07,8.619,4.879,15.777,4.879c7.485,0,15.199-1.977,15.912-5.309c0.036-0.068,0.062-0.145,0.062-0.227v-0.213
		c0.001-0.02,0.009-0.041,0.009-0.062c0-0.016-0.008-0.027-0.009-0.043v-1.893c6.346-0.48,12.078-2.352,12.639-5.223
		c0.038-0.07,0.065-0.148,0.065-0.234V79.135c0-0.002-0.001-0.004-0.002-0.008C113.195,79.123,113.197,79.121,113.197,79.115z
		 M23.773,30.818c0-2.274,6.146-4.809,14.964-4.809c8.815,0,14.958,2.534,14.958,4.809c0,0.046,0.015,0.087,0.026,0.129
		c-0.008,0.035-0.021,0.067-0.021,0.104v56.554c-3.014-1.016-7.033-1.572-10.986-1.572c-1.17,0-2.344,0.055-3.498,0.15v-9.654
		c0-0.047-0.015-0.09-0.027-0.133c-0.048-3.539-7.782-5.68-15.434-5.768V31.054c0-0.025-0.011-0.048-0.015-0.072
		C23.759,30.93,23.773,30.876,23.773,30.818z M23.271,106.176c-8.726,0-14.826-2.473-14.972-4.727V90.781V76.686
		c0-0.029-0.012-0.055-0.017-0.082c0.021-0.055,0.035-0.113,0.035-0.176c0-2.229,5.906-4.703,14.437-4.799
		c0.169-0.002,0.332-0.01,0.504-0.01c0.169,0,0.329,0.008,0.496,0.01c8.53,0.094,14.438,2.568,14.438,4.799
		c0,0.041,0.014,0.076,0.022,0.111v9.734c-3.815,0.404-7.291,1.32-9.386,2.654c-1.623,0.207-3.349,0.307-5.075,0.316
		c-0.334,0.002-0.667,0.004-1-0.002c-0.932-0.016-1.857-0.049-2.756-0.123c-0.293-0.018-0.516,0.184-0.539,0.459
		c-0.022,0.275,0.183,0.516,0.457,0.539c0.922,0.074,1.875,0.111,2.838,0.127c0.252,0.004,0.502,0.016,0.756,0.016
		c0.082,0,0.162-0.008,0.244-0.008c1.276-0.008,2.521-0.08,3.741-0.191c-0.452,0.539-0.712,1.123-0.719,1.754
		c-0.009,0.037-0.022,0.072-0.022,0.111v2.814c-0.976,0.072-1.981,0.111-3.004,0.119c-0.102,0-0.201,0.006-0.304,0.006
		c-0.006,0-0.011,0-0.017,0c-0.129,0-0.256-0.006-0.385-0.008c-0.097,0-0.192-0.004-0.288-0.006
		c-0.964-0.014-1.918-0.051-2.839-0.125c-0.29-0.021-0.517,0.182-0.539,0.457s0.183,0.518,0.457,0.539
		c0.967,0.078,1.969,0.117,2.979,0.131c0.205,0.002,0.408,0.012,0.614,0.012c0.146,0,0.289-0.006,0.436-0.008
		c0.981-0.01,1.948-0.047,2.889-0.117v2.375v1.094v1.156c-1.078,0.08-2.189,0.125-3.324,0.125c-1.194,0-2.376-0.047-3.512-0.139
		c-0.29-0.014-0.517,0.182-0.539,0.457s0.183,0.518,0.457,0.539c1.163,0.096,2.372,0.143,3.594,0.143
		c0.525,0,1.043-0.012,1.559-0.029c0.598-0.021,1.186-0.053,1.766-0.096v4.67C25.648,106.123,24.488,106.176,23.271,106.176z
		 M57.709,111.26c0,2.275-6.153,4.809-14.982,4.809c-8.477,0-14.472-2.334-14.939-4.533c-0.02-0.092-0.046-0.184-0.046-0.275
		c0-0.021-0.01-0.039-0.012-0.061c0.011-0.041,0.025-0.082,0.025-0.127v-4.131v-0.998v-4.668v-1.004v-0.215v-0.482v-1.062V95.65
		v-1.004v-2.711c0.006-0.031,0.019-0.061,0.019-0.094c0-0.66,0.53-1.34,1.479-1.977c0.08-0.053,0.149-0.105,0.234-0.158
		c1.773-1.09,4.833-2.021,8.729-2.438c0.188-0.021,0.385-0.035,0.578-0.053c0.141-0.014,0.279-0.027,0.422-0.039
		c1.11-0.09,2.275-0.145,3.498-0.145c4.529,0,8.342,0.674,10.986,1.635c0.356,0.131,0.688,0.266,1,0.404
		c1.164,0.52,2.012,1.096,2.488,1.688c0.285,0.352,0.449,0.707,0.456,1.059c0,0.008,0.004,0.016,0.004,0.023
		c0,0.078,0.021,0.148,0.052,0.215v7.48v11.492c0,0.049,0.015,0.094,0.027,0.137C57.722,111.197,57.709,111.227,57.709,111.26z
		 M61.885,91.021c-1.172,0-2.329-0.053-3.458-0.143c-0.491-1.16-1.834-2.141-3.727-2.908V31.051c0-0.046-0.015-0.087-0.025-0.129
		c0.007-0.035,0.021-0.067,0.021-0.104c0-2.328-3.331-4.052-7.782-4.994V9.351c0.006-0.031,0.019-0.059,0.019-0.092
		c0-2.274,6.146-4.808,14.965-4.808c8.814,0,14.957,2.534,14.957,4.808c0,0.025,0.011,0.048,0.015,0.072
		c-0.002,0.018-0.011,0.034-0.011,0.053v21.404c-2.262,0.44-4.255,1.078-5.725,1.89c-2.622,0.688-5.841,1.071-9.248,1.071
		c-1.179,0-2.36-0.046-3.512-0.138c-0.277-0.02-0.517,0.184-0.538,0.459c-0.022,0.275,0.184,0.516,0.458,0.538
		c1.179,0.094,2.387,0.141,3.592,0.141c2.63,0,5.152-0.229,7.402-0.644c-0.451,0.538-0.71,1.121-0.718,1.751
		c-0.009,0.037-0.022,0.072-0.022,0.111v3.01c-2.042,0.338-4.309,0.52-6.662,0.52c-1.179,0-2.36-0.046-3.512-0.138
		c-0.277-0.018-0.517,0.184-0.538,0.459c-0.022,0.275,0.184,0.516,0.458,0.538c1.179,0.094,2.387,0.141,3.592,0.141
		c2.343,0,4.604-0.18,6.662-0.512v4.661c-2.042,0.338-4.309,0.52-6.662,0.52c-1.179,0-2.36-0.046-3.512-0.138
		c-0.277-0.015-0.517,0.184-0.538,0.459c-0.022,0.275,0.184,0.516,0.458,0.538c1.179,0.094,2.387,0.141,3.592,0.141
		c2.343,0,4.604-0.18,6.662-0.512v4.742c-2.041,0.34-4.308,0.521-6.662,0.521c-1.178,0-2.359-0.047-3.512-0.14
		c-0.277-0.015-0.517,0.184-0.538,0.459c-0.022,0.275,0.183,0.516,0.458,0.538c1.179,0.095,2.388,0.143,3.592,0.143
		c2.345,0,4.605-0.181,6.662-0.513v4.729c-2.067,0.345-4.335,0.533-6.662,0.533c-1.196,0-2.377-0.047-3.511-0.14
		c-0.294-0.021-0.516,0.182-0.539,0.458c-0.022,0.274,0.183,0.517,0.457,0.539c1.161,0.095,2.37,0.143,3.593,0.143
		c2.318,0,4.585-0.183,6.662-0.517v4.595c-2.079,0.346-4.318,0.525-6.662,0.525c-1.205,0-2.388-0.047-3.515-0.137
		c-0.274-0.018-0.516,0.184-0.538,0.459s0.183,0.516,0.458,0.539c1.153,0.092,2.363,0.139,3.595,0.139
		c2.339,0,4.575-0.176,6.662-0.514v4.738c-0.755,0.127-1.538,0.232-2.344,0.314c-2.511,0.252-5.234,0.277-7.831,0.074
		c-0.257-0.018-0.516,0.184-0.537,0.459c-0.022,0.275,0.184,0.516,0.459,0.537c1.18,0.094,2.388,0.141,3.591,0.141
		c1.505,0,2.991-0.072,4.418-0.217c0.773-0.078,1.522-0.176,2.244-0.291v4.732c-0.776,0.129-1.583,0.238-2.413,0.322
		c-2.509,0.248-5.218,0.27-7.761,0.064c-0.277-0.018-0.517,0.184-0.538,0.459c-0.022,0.275,0.183,0.516,0.458,0.539
		c1.173,0.094,2.381,0.143,3.592,0.143c1.475,0,2.937-0.072,4.347-0.211c0.799-0.078,1.572-0.18,2.315-0.299v4.732
		c-0.805,0.135-1.64,0.248-2.503,0.33c-2.477,0.238-5.193,0.26-7.67,0.057c-0.294-0.02-0.516,0.184-0.539,0.459
		c-0.022,0.273,0.183,0.516,0.457,0.539c1.161,0.094,2.37,0.143,3.593,0.143c1.449-0.002,2.881-0.068,4.255-0.201
		c0.832-0.08,1.636-0.184,2.407-0.309v4.732c-0.805,0.135-1.642,0.248-2.505,0.332c-2.492,0.238-5.187,0.258-7.668,0.055
		c-0.294-0.021-0.516,0.182-0.539,0.459c-0.022,0.273,0.183,0.516,0.457,0.539c1.165,0.094,2.374,0.143,3.593,0.143
		c1.441,0,2.872-0.068,4.253-0.201c0.833-0.08,1.637-0.184,2.409-0.309v4.725C66.579,90.82,64.341,91.021,61.885,91.021z
		 M84.519,105.295c-8.41,0-14.381-2.299-14.931-4.482c-0.021-0.082-0.036-0.164-0.041-0.244v-9.256v-1.006v-4.719v-1.023v-4.727
		v-1.023v-4.729v-1.023v-4.727v-1.021V56.969v-1.016v-4.73v-1.017v-4.734v-1.016v-4.653v-1.016v-2.812
		c0.006-0.031,0.019-0.059,0.019-0.092c0-0.767,0.711-1.561,1.974-2.279c0.785-0.447,1.786-0.864,2.978-1.226
		c0.716-0.217,1.497-0.414,2.341-0.584c0.323-0.066,0.659-0.126,1-0.184c0.474-0.08,0.962-0.152,1.467-0.216
		c1.594-0.201,3.331-0.32,5.197-0.32c8.811,0,14.95,2.534,14.95,4.809c0,0.036,0.014,0.068,0.021,0.102v7.517v29.869v0.527v0.471
		v11.945v1v4.625v1V93v4.613v0.998v1.404v0.521C99.398,102.799,93.279,105.295,84.519,105.295z M100.492,97.557v-4.676
		c3.672-0.248,6.981-0.936,9.354-1.979c0.253-0.111,0.368-0.406,0.257-0.658c-0.112-0.254-0.406-0.367-0.659-0.258
		c-1.942,0.855-4.559,1.457-7.495,1.766c-0.479,0.051-0.963,0.094-1.457,0.129v-4.625c3.672-0.248,6.981-0.936,9.354-1.979
		c0.253-0.111,0.368-0.406,0.257-0.658c-0.112-0.254-0.406-0.367-0.659-0.258c-2.258,0.994-5.424,1.65-8.952,1.895v-11.83
		c7.035,0.525,11.705,2.705,11.705,4.689c0,0.004,0.001,0.006,0.001,0.008c0,0.004-0.002,0.008-0.002,0.012v7.418v6.309
		c0,0.002-0.001,0.004-0.001,0.006C112.195,94.85,107.526,97.029,100.492,97.557z"/>
	<path fill="#e0a409" d="M50.896,69.9c-2.637,1.16-6.609,1.885-10.898,1.99c-0.275,0.006-0.494,0.236-0.487,0.512
		c0.007,0.271,0.229,0.488,0.5,0.488c0.004,0,0.008,0,0.013,0c4.414-0.109,8.523-0.865,11.275-2.074
		c0.253-0.111,0.368-0.406,0.257-0.658C51.442,69.904,51.148,69.791,50.896,69.9z"/>
	<path fill="#e0a409" d="M35.292,66.949c1.163,0.096,2.372,0.143,3.594,0.143c4.87,0,9.395-0.762,12.412-2.088c0.253-0.111,0.368-0.406,0.257-0.658
		c-0.112-0.254-0.406-0.367-0.659-0.258c-2.896,1.273-7.273,2.004-12.01,2.004c-1.194,0-2.376-0.047-3.512-0.139
		c-0.287-0.018-0.517,0.182-0.539,0.457S35.018,66.928,35.292,66.949z"/>
	<path fill="#e0a409" d="M35.292,61.324c1.163,0.096,2.372,0.143,3.594,0.143c4.87,0,9.395-0.76,12.412-2.087c0.253-0.111,0.368-0.406,0.257-0.658
		c-0.112-0.253-0.406-0.366-0.659-0.257c-2.896,1.272-7.273,2.003-12.01,2.003c-1.194,0-2.376-0.047-3.512-0.139
		c-0.287-0.016-0.517,0.182-0.539,0.457C34.812,61.061,35.018,61.303,35.292,61.324z"/>
	<path fill="#e0a409" d="M35.292,55.7c1.163,0.096,2.372,0.143,3.594,0.143c4.87,0,9.395-0.761,12.412-2.088c0.253-0.111,0.368-0.406,0.257-0.658
		c-0.112-0.254-0.406-0.367-0.659-0.257c-2.896,1.272-7.273,2.003-12.01,2.003c-1.194,0-2.376-0.047-3.512-0.139
		c-0.287-0.014-0.517,0.182-0.539,0.457S35.018,55.678,35.292,55.7z"/>
	<path fill="#e0a409" d="M35.292,50.075c1.163,0.095,2.372,0.143,3.594,0.143c4.87,0,9.395-0.761,12.412-2.088c0.253-0.111,0.368-0.406,0.257-0.659
		c-0.112-0.253-0.406-0.367-0.659-0.256c-2.896,1.273-7.273,2.003-12.01,2.003c-1.194,0-2.376-0.047-3.512-0.14
		c-0.287-0.021-0.517,0.182-0.539,0.458C34.812,49.812,35.018,50.053,35.292,50.075z"/>
	<path fill="#e0a409" d="M35.292,44.45c1.163,0.095,2.372,0.143,3.594,0.143c4.87,0,9.395-0.761,12.412-2.088c0.253-0.111,0.368-0.406,0.257-0.659
		c-0.112-0.253-0.406-0.366-0.659-0.256c-2.896,1.273-7.273,2.003-12.01,2.003c-1.194,0-2.376-0.047-3.512-0.14
		c-0.287-0.019-0.517,0.183-0.539,0.458S35.018,44.428,35.292,44.45z"/>
	<path fill="#e0a409" d="M35.292,38.908c1.163,0.095,2.372,0.143,3.594,0.143c4.87,0,9.395-0.761,12.412-2.088c0.253-0.111,0.368-0.406,0.257-0.659
		c-0.112-0.253-0.406-0.366-0.659-0.256c-2.896,1.273-7.273,2.003-12.01,2.003c-1.194,0-2.376-0.047-3.512-0.14
		c-0.287-0.022-0.517,0.182-0.539,0.458C34.812,38.645,35.018,38.886,35.292,38.908z"/>
	<path fill="#e0a409" d="M58.293,28.939c1.179,0.094,2.387,0.141,3.592,0.141c4.834,0,9.339-0.752,12.36-2.064c0.253-0.11,0.369-0.404,0.26-0.658
		c-0.11-0.253-0.405-0.37-0.658-0.259c-2.9,1.259-7.26,1.981-11.962,1.981c-1.179,0-2.36-0.046-3.512-0.138
		c-0.277-0.023-0.517,0.183-0.538,0.459C57.812,28.677,58.019,28.917,58.293,28.939z"/>
	<path fill="#e0a409" d="M58.293,23.108c1.179,0.094,2.387,0.141,3.592,0.141c4.834,0,9.339-0.752,12.36-2.064c0.253-0.11,0.369-0.404,0.26-0.658
		c-0.11-0.253-0.405-0.371-0.658-0.259c-2.9,1.259-7.26,1.981-11.962,1.981c-1.179,0-2.36-0.046-3.512-0.138
		c-0.277-0.019-0.517,0.184-0.538,0.459C57.812,22.846,58.019,23.086,58.293,23.108z"/>
	<path fill="#e0a409" d="M58.293,17.439c1.179,0.094,2.387,0.141,3.592,0.141c4.834,0,9.339-0.752,12.36-2.064c0.253-0.11,0.369-0.404,0.26-0.658
		c-0.11-0.253-0.405-0.371-0.658-0.259c-2.9,1.259-7.26,1.981-11.962,1.981c-1.179,0-2.36-0.046-3.512-0.138
		c-0.277-0.022-0.517,0.183-0.538,0.459C57.812,17.177,58.019,17.417,58.293,17.439z"/>
	<path fill="#e0a409" d="M97.314,97.674c-0.126-0.217-0.392-0.312-0.627-0.211c-0.155,0.068-0.331,0.129-0.494,0.195
		c-0.812,0.322-1.721,0.605-2.713,0.846c-2.536,0.617-5.58,0.963-8.803,0.963c-1.194,0-2.376-0.047-3.512-0.139
		c-0.286-0.014-0.517,0.182-0.539,0.457s0.183,0.518,0.457,0.539c1.163,0.096,2.372,0.143,3.594,0.143
		c4.505,0,8.698-0.658,11.692-1.807c0.242-0.092,0.493-0.182,0.72-0.281c0.253-0.111,0.368-0.406,0.257-0.658
		C97.339,97.703,97.324,97.691,97.314,97.674z"/>
	<path fill="#e0a409" d="M81.085,94.574c0.303,0.025,0.609,0.037,0.914,0.055c0.518,0.031,1.036,0.053,1.558,0.066
		c0.374,0.008,0.748,0.021,1.121,0.021c0.194,0,0.384-0.008,0.577-0.012c4.207-0.053,8.113-0.674,10.968-1.738
		c0.286-0.107,0.575-0.213,0.839-0.328c0.25-0.109,0.364-0.398,0.26-0.65c-0.001-0.002-0.001-0.006-0.002-0.008
		c-0.11-0.254-0.405-0.369-0.658-0.258c-0.193,0.084-0.41,0.16-0.616,0.24c-0.748,0.289-1.575,0.547-2.472,0.768
		c-2.557,0.633-5.636,0.986-8.896,0.986c-0.644,0-1.29-0.018-1.933-0.045c-0.069-0.002-0.138-0.01-0.206-0.012
		c-0.378-0.02-0.755-0.039-1.13-0.068c-0.081-0.006-0.163-0.008-0.244-0.014c-0.265-0.018-0.517,0.184-0.538,0.459
		C80.604,94.312,80.81,94.553,81.085,94.574z"/>
	<path fill="#e0a409" d="M81.642,88.982c0.992,0.068,2.006,0.109,3.036,0.109c4.433,0,8.565-0.637,11.55-1.75c0.295-0.109,0.592-0.219,0.862-0.338
		c0.247-0.107,0.358-0.391,0.261-0.641c-0.002-0.006-0.001-0.012-0.004-0.018c-0.111-0.254-0.406-0.367-0.659-0.258
		c-0.2,0.088-0.424,0.168-0.638,0.25c-0.749,0.291-1.578,0.547-2.476,0.77c-2.555,0.631-5.634,0.984-8.896,0.984
		c-1.03,0-2.046-0.041-3.036-0.111c-0.157-0.01-0.32-0.016-0.476-0.027c-0.286-0.02-0.517,0.182-0.539,0.457
		s0.183,0.518,0.457,0.539C81.267,88.965,81.457,88.971,81.642,88.982z"/>
	<path fill="#e0a409" d="M96.688,80.463c-2.896,1.273-7.273,2.004-12.01,2.004c-1.03,0-2.046-0.041-3.036-0.111c-0.157-0.01-0.32-0.016-0.476-0.027
		c-0.286-0.018-0.517,0.182-0.539,0.457s0.183,0.518,0.457,0.539c0.183,0.016,0.373,0.021,0.558,0.033
		c0.992,0.068,2.006,0.109,3.036,0.109c4.87,0,9.395-0.762,12.412-2.088c0.253-0.111,0.368-0.406,0.257-0.658
		C97.235,80.467,96.94,80.354,96.688,80.463z"/>
	<path fill="#e0a409" d="M96.688,74.838c-2.896,1.273-7.273,2.004-12.01,2.004c-0.128,0-0.253-0.006-0.38-0.008
		c-0.382-0.002-0.763-0.01-1.141-0.021c-0.19-0.006-0.378-0.016-0.566-0.023c-0.48-0.023-0.958-0.049-1.425-0.086
		c-0.286-0.016-0.517,0.182-0.539,0.457s0.183,0.518,0.457,0.539c0.218,0.018,0.442,0.025,0.663,0.041
		c0.183,0.012,0.365,0.023,0.55,0.033c0.224,0.012,0.444,0.027,0.671,0.035c0.565,0.021,1.136,0.033,1.71,0.033
		c4.87,0,9.395-0.762,12.412-2.088c0.253-0.111,0.368-0.406,0.257-0.658C97.235,74.842,96.94,74.729,96.688,74.838z"/>
	<path fill="#e0a409" d="M96.688,69.215c-2.896,1.271-7.273,2.002-12.01,2.002c-1.194,0-2.376-0.047-3.512-0.139
		c-0.286-0.014-0.517,0.182-0.539,0.457s0.183,0.518,0.457,0.539c1.163,0.096,2.372,0.143,3.594,0.143
		c4.87,0,9.395-0.76,12.412-2.088c0.253-0.111,0.368-0.406,0.257-0.658C97.235,69.217,96.94,69.105,96.688,69.215z"/>
	<path fill="#e0a409" d="M96.688,63.59c-2.896,1.271-7.273,2.002-12.01,2.002c-1.194,0-2.376-0.047-3.512-0.139
		c-0.286-0.02-0.517,0.182-0.539,0.457s0.183,0.518,0.457,0.539c1.163,0.096,2.372,0.143,3.594,0.143
		c4.87,0,9.395-0.76,12.412-2.088c0.253-0.111,0.368-0.406,0.257-0.658C97.235,63.592,96.94,63.479,96.688,63.59z"/>
	<path fill="#e0a409" d="M96.688,57.963c-2.896,1.273-7.273,2.004-12.01,2.004c-1.194,0-2.376-0.047-3.512-0.14
		c-0.286-0.018-0.517,0.183-0.539,0.458s0.183,0.517,0.457,0.539c1.163,0.095,2.372,0.143,3.594,0.143
		c4.87,0,9.395-0.762,12.412-2.088c0.253-0.111,0.368-0.406,0.257-0.659S96.94,57.854,96.688,57.963z"/>
	<path fill="#e0a409" d="M96.688,52.338c-2.896,1.273-7.273,2.004-12.01,2.004c-1.194,0-2.376-0.047-3.512-0.14
		c-0.286-0.015-0.517,0.183-0.539,0.458s0.183,0.517,0.457,0.539c1.163,0.095,2.372,0.143,3.594,0.143
		c4.87,0,9.395-0.762,12.412-2.088c0.253-0.111,0.368-0.406,0.257-0.659S96.94,52.229,96.688,52.338z"/>
	<path fill="#e0a409" d="M96.688,46.714c-2.896,1.273-7.273,2.003-12.01,2.003c-1.194,0-2.376-0.047-3.512-0.14
		c-0.286-0.013-0.517,0.183-0.539,0.458s0.183,0.517,0.457,0.539c1.163,0.095,2.372,0.143,3.594,0.143
		c4.87,0,9.395-0.761,12.412-2.088c0.253-0.111,0.368-0.406,0.257-0.659S96.94,46.605,96.688,46.714z"/>
	<path fill="#e0a409" d="M96.688,41.089c-2.896,1.273-7.273,2.003-12.01,2.003c-1.194,0-2.376-0.047-3.512-0.14
		c-0.286-0.021-0.517,0.182-0.539,0.458c-0.022,0.275,0.183,0.517,0.457,0.539c1.163,0.095,2.372,0.143,3.594,0.143
		c4.87,0,9.395-0.761,12.412-2.088c0.253-0.111,0.368-0.406,0.257-0.659S96.94,40.979,96.688,41.089z"/>
	<path fill="#e0a409" d="M54.896,108.338c-2.896,1.273-7.273,2.004-12.01,2.004c-0.645,0-1.285-0.016-1.92-0.043
		c-0.537-0.023-1.069-0.053-1.592-0.096c-0.288-0.021-0.517,0.182-0.539,0.457s0.183,0.518,0.457,0.539
		c0.082,0.008,0.167,0.01,0.25,0.016c1.09,0.082,2.211,0.127,3.344,0.127c4.87,0,9.394-0.762,12.412-2.088
		c0.253-0.111,0.368-0.406,0.257-0.66C55.443,108.342,55.148,108.229,54.896,108.338z"/>
	<path fill="#e0a409" d="M54.896,102.713c-1.144,0.504-2.524,0.918-4.062,1.24c-2.354,0.492-5.083,0.764-7.948,0.764
		c-1.194,0-2.376-0.047-3.512-0.139c-0.288-0.018-0.517,0.182-0.539,0.457s0.183,0.518,0.457,0.539
		c1.163,0.096,2.372,0.143,3.594,0.143c2.027,0,3.985-0.139,5.809-0.389c2.558-0.35,4.842-0.924,6.604-1.699
		c0.253-0.111,0.368-0.406,0.257-0.658C55.443,102.717,55.148,102.604,54.896,102.713z"/>
	<path fill="#e0a409" d="M54.896,97.088c-0.443,0.195-0.932,0.373-1.44,0.541c-1.165,0.387-2.483,0.707-3.923,0.945
		c-2.036,0.338-4.297,0.518-6.646,0.518c-1.194,0-2.376-0.047-3.512-0.139c-0.288-0.016-0.517,0.182-0.539,0.457
		s0.183,0.518,0.457,0.539c0.597,0.049,1.206,0.084,1.822,0.107c0.586,0.023,1.177,0.035,1.771,0.035
		c2.429,0,4.771-0.189,6.885-0.543c2.123-0.357,4.015-0.879,5.527-1.545c0.253-0.111,0.368-0.406,0.257-0.658
		C55.443,97.092,55.148,96.979,54.896,97.088z"/>
	<path fill="#e0a409" d="M19.917,84.492c0.922,0.074,1.875,0.111,2.838,0.127c0.252,0.004,0.502,0.016,0.756,0.016c0.082,0,0.162-0.004,0.244-0.006
		c4.776-0.023,9.201-0.777,12.168-2.082c0.253-0.111,0.368-0.406,0.257-0.66c-0.112-0.252-0.406-0.365-0.659-0.256
		c-2.846,1.252-7.124,1.975-11.766,1.998c-0.082,0.002-0.162,0.006-0.244,0.006c-0.254,0-0.504-0.012-0.756-0.016
		c-0.936-0.016-1.861-0.051-2.756-0.125c-0.293-0.016-0.516,0.184-0.539,0.459C19.438,84.229,19.643,84.469,19.917,84.492z"/>
	<path fill="#e0a409" d="M50.896,80.898c-2.197,0.967-5.34,1.639-8.85,1.893c-0.275,0.02-0.482,0.258-0.463,0.533
		c0.02,0.264,0.238,0.465,0.498,0.465c0.013,0,0.024,0,0.037-0.002c3.62-0.26,6.881-0.961,9.18-1.973
		c0.253-0.111,0.368-0.406,0.257-0.658C51.442,80.902,51.148,80.789,50.896,80.898z"/>
	<path fill="#e0a409" d="M50.896,75.523c-2.197,0.967-5.34,1.639-8.85,1.893c-0.275,0.02-0.482,0.258-0.463,0.533
		c0.02,0.264,0.238,0.465,0.498,0.465c0.013,0,0.024,0,0.037-0.002c3.62-0.26,6.881-0.961,9.18-1.973
		c0.253-0.111,0.368-0.406,0.257-0.658C51.442,75.527,51.148,75.414,50.896,75.523z"/>
</g>
</svg>
