<?xml version="1.0" encoding="utf-8"?>
<!-- Generator: Adobe Illustrator 16.0.0, SVG Export Plug-In . SVG Version: 6.00 Build 0)  -->
<!DOCTYPE svg PUBLIC "-//W3C//DTD SVG 1.1//EN" "http://www.w3.org/Graphics/SVG/1.1/DTD/svg11.dtd">
<svg version="1.1" id="Layer_1" xmlns="http://www.w3.org/2000/svg" xmlns:xlink="http://www.w3.org/1999/xlink" x="0px" y="0px"
	 width="200px" height="200px" viewBox="0 0 200 200" enable-background="new 0 0 200 200" xml:space="preserve">
<g>
	<g opacity="0.35">
		<path fill="#142839" d="M125.699,118.3c-0.701-0.334-1.154-1.059-1.154-1.846v-5.333c0-0.494,0.257-0.971,0.669-1.245
			c1.166-0.778,2.886-4.28,2.886-6.397V90.98c0-5.476-5.623-9.568-10.65-9.568h-2.643c-5.027,0-10.652,4.092-10.652,9.568v12.499
			c0,2.117,1.722,5.619,2.893,6.4c0.416,0.268,0.664,0.732,0.664,1.242v5.314c0,0.785-0.453,1.51-1.156,1.846
			c-1.551,0.757-9.666,4.845-17.188,11.027c-1.026,0.857-1.615,2.11-1.615,3.438v10.586c0,0.207,0.168,0.375,0.375,0.375
			s0.375-0.168,0.375-0.375v-10.586c0-1.104,0.491-2.147,1.344-2.862c7.455-6.128,15.5-10.181,17.036-10.929
			c0.96-0.459,1.58-1.449,1.58-2.521v-5.314c0-0.768-0.377-1.467-1.003-1.869c-0.893-0.596-2.553-3.795-2.553-5.773V90.98
			c0-5.047,5.228-8.818,9.902-8.818h2.642c4.674,0,9.899,3.771,9.899,8.818v12.499c0,1.979-1.658,5.179-2.551,5.773
			c-0.619,0.412-1.003,1.128-1.003,1.869v5.333c0,1.075,0.621,2.065,1.577,2.521c2.195,1.084,9.916,5.076,17.039,10.93
			c0.854,0.701,1.344,1.744,1.344,2.863v10.586c0,0.207,0.168,0.375,0.375,0.375s0.375-0.168,0.375-0.375v-10.586
			c0-1.344-0.59-2.6-1.617-3.442C135.702,123.42,127.919,119.395,125.699,118.3z"/>
		<path fill="#142839" d="M167.544,132.002c-5.789-4.757-12.062-8.002-13.853-8.885c-0.539-0.258-0.887-0.814-0.887-1.42v-4.295
			c0-0.373,0.193-0.732,0.506-0.94c1.541-1.028,2.354-2.284,2.354-3.634v-11.641c0-4.451-4.565-7.775-8.647-7.775h-2.127
			c-4.082,0-8.648,3.325-8.648,7.775v11.641c0,1.35,0.814,2.605,2.361,3.637c0.313,0.201,0.5,0.553,0.5,0.938v4.279
			c0,0.207,0.168,0.375,0.375,0.375s0.375-0.168,0.375-0.375v-4.279c0-0.644-0.315-1.229-0.84-1.564
			c-0.922-0.615-2.021-1.637-2.021-3.01v-11.641c0-4.021,4.171-7.025,7.898-7.025h2.127c3.729,0,7.897,3.005,7.897,7.025v11.641
			c0,1.373-1.101,2.395-2.021,3.01c-0.521,0.344-0.842,0.944-0.842,1.564v4.295c0,0.893,0.518,1.716,1.311,2.095
			c1.768,0.872,7.977,4.083,13.703,8.79c0.672,0.551,1.057,1.37,1.057,2.248v8.521c0,0.207,0.168,0.375,0.375,0.375
			s0.375-0.168,0.375-0.375v-8.521C168.874,133.727,168.391,132.695,167.544,132.002z"/>
	</g>
	<g>
		<path fill="#142839" d="M106.525,41.715c-22.432,0-40.682,18.249-40.682,40.68c0,11.011,4.404,21.007,11.534,28.339
			c-0.04,0.023-0.082,0.041-0.116,0.076l-7.337,7.273c-1.214-1.049-2.743-1.627-4.363-1.627c-1.785,0-3.464,0.695-4.732,1.963
			l-27.745,28.456c-1.262,1.263-1.958,2.94-1.958,4.726c0,1.787,0.695,3.465,1.957,4.728c1.262,1.262,2.94,1.957,4.726,1.957
			s3.465-0.695,4.732-1.966l27.746-28.452c1.263-1.265,1.958-2.942,1.958-4.729c0-1.547-0.522-3.011-1.482-4.195l7.344-7.28
			c0.036-0.035,0.056-0.078,0.081-0.119c7.332,7.13,17.328,11.533,28.338,11.533c22.431,0,40.681-18.25,40.683-40.684
			C147.208,59.962,128.958,41.715,106.525,41.715z M41.687,155.479c-1.036,1.035-2.413,1.606-3.878,1.606
			c-1.465,0-2.842-0.569-3.877-1.604c-1.035-1.035-1.605-2.412-1.605-3.879c0-1.465,0.571-2.842,1.612-3.883l25.47-26.121
			l7.727,7.728c0.01,0.01,0.023,0.013,0.033,0.021L41.687,155.479z M69.433,127.023l-1.436,1.472
			c-0.005-0.006-0.007-0.015-0.013-0.021l-7.738-7.738l1.437-1.473c1.036-1.035,2.414-1.605,3.878-1.605s2.842,0.57,3.878,1.605
			c1.036,1.033,1.605,2.409,1.605,3.875C71.045,124.604,70.474,125.982,69.433,127.023z M106.525,121.877
			c-21.771,0-39.48-17.712-39.48-39.482c0-21.769,17.711-39.479,39.48-39.479c21.771,0,39.48,17.709,39.48,39.477
			C146.007,104.164,128.295,121.877,106.525,121.877z"/>
		<path fill="#142839" d="M122.577,57.787c-0.279-0.177-0.65-0.093-0.828,0.187c-0.177,0.28-0.095,0.65,0.188,0.828
			c8.449,5.339,13.494,14.355,13.494,24.119c0,4.406-1.072,8.829-3.099,12.79c-0.149,0.295-0.033,0.657,0.263,0.808
			c0.088,0.045,0.18,0.066,0.271,0.066c0.218,0,0.429-0.119,0.533-0.327c2.113-4.13,3.229-8.742,3.229-13.337
			C136.63,72.743,131.376,63.347,122.577,57.787z"/>
		<path fill="#142839" d="M114.589,53.693c-2.959-0.972-6.042-1.491-9.165-1.542c-0.003,0-0.007,0-0.01,0
			c-0.327,0-0.596,0.262-0.602,0.59c-0.004,0.332,0.261,0.604,0.592,0.61c3.003,0.048,5.966,0.547,8.81,1.481
			c0.062,0.021,0.125,0.03,0.188,0.03c0.252,0,0.486-0.16,0.57-0.413C115.075,54.135,114.902,53.796,114.589,53.693z"/>
	</g>
</g>
</svg>
