<?xml version="1.0" encoding="utf-8"?>
<!-- Generator: Adobe Illustrator 16.0.0, SVG Export Plug-In . SVG Version: 6.00 Build 0)  -->
<!DOCTYPE svg PUBLIC "-//W3C//DTD SVG 1.1//EN" "http://www.w3.org/Graphics/SVG/1.1/DTD/svg11.dtd">
<svg version="1.1" id="Layer_1" xmlns="http://www.w3.org/2000/svg" xmlns:xlink="http://www.w3.org/1999/xlink" x="0px" y="0px"
	 width="200px" height="200px" viewBox="0 0 200 200" enable-background="new 0 0 200 200" xml:space="preserve">
<g>
	<path fill="#142839" d="M130.15,68.56H69.85c-3.697,0-6.706,3.024-6.706,6.742V117.4c0,3.718,3.008,6.742,6.706,6.742h60.301
		c3.697,0,6.705-3.024,6.705-6.742V75.302C136.855,71.584,133.848,68.56,130.15,68.56z M135.656,117.4
		c0,3.057-2.47,5.543-5.506,5.543H69.85c-3.036,0-5.505-2.486-5.505-5.543V75.302c0-3.056,2.47-5.542,5.505-5.542h60.301
		c3.036,0,5.506,2.486,5.506,5.542V117.4z"/>
	<path fill="#142839" d="M115.656,84.574c-6.348,0-11.512,4.964-11.512,11.066c0,6.106,5.164,11.073,11.512,11.073
		c6.351,0,11.518-4.967,11.518-11.073C127.174,89.539,122.007,84.574,115.656,84.574z M115.656,105.514
		c-5.687,0-10.312-4.43-10.312-9.874c0-5.44,4.626-9.866,10.312-9.866c5.689,0,10.318,4.426,10.318,9.866
		C125.975,101.084,121.346,105.514,115.656,105.514z"/>
	<path fill="#142839" d="M118.346,92.027l-6.232,6.397c-0.231,0.237-0.227,0.617,0.011,0.848c0.117,0.114,0.268,0.17,0.419,0.17
		c0.156,0,0.312-0.061,0.43-0.182l6.232-6.397c0.231-0.237,0.227-0.617-0.011-0.848C118.955,91.784,118.575,91.788,118.346,92.027z"
		/>
	<path fill="#142839" d="M86.673,130.24H73.077c-0.332,0-0.6,0.269-0.6,0.6s0.269,0.6,0.6,0.6h13.596c0.332,0,0.6-0.269,0.6-0.6
		S87.004,130.24,86.673,130.24z"/>
	<path fill="#142839" d="M127.318,130.24h-13.596c-0.331,0-0.6,0.269-0.6,0.6s0.269,0.6,0.6,0.6h13.596c0.331,0,0.6-0.269,0.6-0.6
		S127.649,130.24,127.318,130.24z"/>
	<path fill="#142839" d="M76.241,86.607h-0.486c-0.49,0-0.892,0.402-0.892,0.892v0.486c0,0.49,0.401,0.892,0.892,0.892h0.486
		c0.49,0,0.892-0.402,0.892-0.892V87.5C77.133,87.009,76.731,86.607,76.241,86.607z"/>
	<path fill="#142839" d="M84.211,86.607h-0.485c-0.49,0-0.893,0.402-0.893,0.892v0.486c0,0.49,0.402,0.892,0.893,0.892h0.485
		c0.49,0,0.893-0.402,0.893-0.892V87.5C85.104,87.009,84.701,86.607,84.211,86.607z"/>
	<path fill="#142839" d="M92.182,86.607h-0.486c-0.49,0-0.892,0.402-0.892,0.892v0.486c0,0.49,0.401,0.892,0.892,0.892h0.486
		c0.49,0,0.892-0.402,0.892-0.892V87.5C93.073,87.009,92.672,86.607,92.182,86.607z"/>
	<path fill="#142839" d="M76.241,94.82h-0.486c-0.49,0-0.892,0.402-0.892,0.893v0.486c0,0.49,0.401,0.892,0.892,0.892h0.486
		c0.49,0,0.892-0.402,0.892-0.892v-0.486C77.133,95.222,76.731,94.82,76.241,94.82z"/>
	<path fill="#142839" d="M84.211,94.82h-0.485c-0.49,0-0.893,0.402-0.893,0.893v0.486c0,0.49,0.402,0.892,0.893,0.892h0.485
		c0.49,0,0.893-0.402,0.893-0.892v-0.486C85.104,95.222,84.701,94.82,84.211,94.82z"/>
	<path fill="#142839" d="M92.182,94.82h-0.486c-0.49,0-0.892,0.402-0.892,0.893v0.486c0,0.49,0.401,0.892,0.892,0.892h0.486
		c0.49,0,0.892-0.402,0.892-0.892v-0.486C93.073,95.222,92.672,94.82,92.182,94.82z"/>
	<path fill="#142839" d="M76.241,103.062h-0.486c-0.49,0-0.892,0.402-0.892,0.893v0.486c0,0.49,0.401,0.893,0.892,0.893h0.486
		c0.49,0,0.892-0.402,0.892-0.893v-0.486C77.133,103.465,76.731,103.062,76.241,103.062z"/>
	<path fill="#142839" d="M84.211,103.062h-0.485c-0.49,0-0.893,0.402-0.893,0.893v0.486c0,0.49,0.402,0.893,0.893,0.893h0.485
		c0.49,0,0.893-0.402,0.893-0.893v-0.486C85.104,103.465,84.701,103.062,84.211,103.062z"/>
	<path fill="#142839" d="M92.182,103.062h-0.486c-0.49,0-0.892,0.402-0.892,0.893v0.486c0,0.49,0.401,0.893,0.892,0.893h0.486
		c0.49,0,0.892-0.402,0.892-0.893v-0.486C93.073,103.465,92.672,103.062,92.182,103.062z"/>
</g>
</svg>
