<?xml version="1.0" encoding="utf-8"?>
<!-- Generator: Adobe Illustrator 16.0.0, SVG Export Plug-In . SVG Version: 6.00 Build 0)  -->
<!DOCTYPE svg PUBLIC "-//W3C//DTD SVG 1.1//EN" "http://www.w3.org/Graphics/SVG/1.1/DTD/svg11.dtd">
<svg version="1.1" id="Layer_1" xmlns="http://www.w3.org/2000/svg" xmlns:xlink="http://www.w3.org/1999/xlink" x="0px" y="0px"
	 width="200px" height="200px" viewBox="0 0 200 200" enable-background="new 0 0 200 200" xml:space="preserve">
<g>
	<g>
		<path fill="#142839" d="M109.131,41.715c-22.432,0-40.682,18.249-40.682,40.68c0,11.011,4.404,21.007,11.533,28.339
			c-0.039,0.023-0.082,0.041-0.115,0.076l-7.338,7.273c-1.214-1.049-2.743-1.627-4.363-1.627c-1.785,0-3.464,0.695-4.732,1.963
			l-27.745,28.456c-1.262,1.263-1.958,2.94-1.958,4.726c0,1.787,0.695,3.465,1.957,4.728c1.262,1.262,2.94,1.957,4.726,1.957
			s3.465-0.695,4.732-1.966l27.746-28.452c1.264-1.265,1.959-2.942,1.959-4.729c0-1.547-0.522-3.011-1.482-4.195l7.344-7.28
			c0.036-0.035,0.057-0.078,0.081-0.119c7.331,7.13,17.327,11.533,28.337,11.533c22.432,0,40.682-18.25,40.684-40.684
			C149.812,59.962,131.562,41.715,109.131,41.715z M44.291,155.479c-1.036,1.035-2.413,1.606-3.878,1.606s-2.842-0.569-3.877-1.604
			c-1.035-1.035-1.605-2.412-1.605-3.879c0-1.465,0.571-2.842,1.612-3.883l25.47-26.121l7.728,7.728
			c0.01,0.01,0.022,0.013,0.032,0.021L44.291,155.479z M72.037,127.023l-1.436,1.472c-0.006-0.006-0.008-0.015-0.014-0.021
			l-7.737-7.738l1.437-1.473c1.036-1.035,2.414-1.605,3.878-1.605s2.842,0.57,3.879,1.605c1.035,1.033,1.605,2.409,1.605,3.875
			C73.649,124.604,73.078,125.982,72.037,127.023z M109.129,121.877c-21.769,0-39.48-17.712-39.48-39.482
			c0-21.769,17.712-39.479,39.482-39.479c21.77,0,39.48,17.709,39.48,39.478C148.611,104.164,130.898,121.877,109.129,121.877z"/>
		<path fill="#142839" d="M125.182,57.787c-0.279-0.177-0.649-0.093-0.828,0.187c-0.178,0.28-0.094,0.65,0.188,0.828
			c8.449,5.339,13.494,14.355,13.494,24.119c0,4.406-1.072,8.829-3.099,12.79c-0.149,0.296-0.033,0.657,0.263,0.808
			c0.088,0.045,0.18,0.066,0.271,0.066c0.219,0,0.43-0.119,0.535-0.327c2.111-4.13,3.229-8.741,3.229-13.337
			C139.234,72.743,133.98,63.347,125.182,57.787z"/>
		<path fill="#142839" d="M117.193,53.693c-2.959-0.972-6.043-1.491-9.166-1.542c-0.002,0-0.006,0-0.01,0
			c-0.326,0-0.595,0.262-0.601,0.59c-0.006,0.332,0.26,0.604,0.59,0.61c3.004,0.048,5.968,0.547,8.812,1.481
			c0.062,0.021,0.125,0.03,0.188,0.03c0.252,0,0.486-0.16,0.57-0.413C117.68,54.135,117.508,53.796,117.193,53.693z"/>
	</g>
	<g opacity="0.35">
		<path fill="#142839" d="M113.643,116.352c0.094,0,0.189-0.037,0.262-0.108c0.148-0.146,0.15-0.384,0.005-0.529l-11.441-11.616
			h63.273c0.207,0,0.375-0.168,0.375-0.375s-0.168-0.375-0.375-0.375h-63.253l11.617-11.411c0.146-0.145,0.148-0.383,0.004-0.529
			c-0.145-0.147-0.383-0.15-0.528-0.006l-12.541,12.315l12.336,12.522C113.447,116.312,113.545,116.352,113.643,116.352z"/>
		<path fill="#142839" d="M153.936,123.848c-0.146-0.147-0.383-0.147-0.531-0.004c-0.146,0.146-0.147,0.383-0.004,0.529
			l11.443,11.617H101.57c-0.207,0-0.375,0.168-0.375,0.375s0.168,0.375,0.375,0.375h63.252l-11.617,11.41
			c-0.148,0.145-0.15,0.383-0.006,0.529c0.074,0.074,0.172,0.112,0.268,0.112s0.191-0.036,0.264-0.106l12.539-12.315
			L153.936,123.848z"/>
	</g>
</g>
</svg>
