<?xml version="1.0" encoding="utf-8"?>
<!-- Generator: Adobe Illustrator 16.0.0, SVG Export Plug-In . SVG Version: 6.00 Build 0)  -->
<!DOCTYPE svg PUBLIC "-//W3C//DTD SVG 1.1//EN" "http://www.w3.org/Graphics/SVG/1.1/DTD/svg11.dtd">
<svg version="1.1" id="Layer_1" xmlns="http://www.w3.org/2000/svg" xmlns:xlink="http://www.w3.org/1999/xlink" x="0px" y="0px"
	 width="200px" height="200px" viewBox="0 0 200 200" enable-background="new 0 0 200 200" xml:space="preserve">
<g>
	<g opacity="0.25">
		<path fill="#142839" d="M129.936,78.356c-18.059,0-32.75,14.691-32.75,32.75c0,18.06,14.691,32.75,32.75,32.75
			s32.748-14.69,32.748-32.75C162.684,93.048,147.993,78.356,129.936,78.356z M129.936,143.105c-17.645,0-32-14.354-32-32
			s14.355-32,32-32c17.646,0,31.998,14.354,31.998,32S147.58,143.105,129.936,143.105z"/>
		<path fill="#142839" d="M130.402,111.777V88.802c0-0.207-0.168-0.375-0.375-0.375s-0.375,0.168-0.375,0.375v23.132
			c0,0.104,0.043,0.196,0.109,0.266l10.618,10.619c0.072,0.074,0.168,0.111,0.265,0.111s0.192-0.037,0.266-0.111
			c0.146-0.146,0.146-0.383,0-0.529L130.402,111.777z"/>
	</g>
	<g>
		<path fill="#142839" d="M112.717,41.715c-22.432,0-40.682,18.249-40.682,40.681c0,11.01,4.404,21.006,11.533,28.338
			c-0.039,0.024-0.082,0.043-0.115,0.076l-7.338,7.274c-1.214-1.049-2.743-1.627-4.363-1.627c-1.785,0-3.464,0.694-4.732,1.963
			l-27.745,28.455c-1.263,1.263-1.958,2.94-1.958,4.728c0,1.785,0.694,3.463,1.956,4.727c1.263,1.262,2.94,1.956,4.726,1.956
			s3.465-0.695,4.732-1.964l27.746-28.454c1.264-1.263,1.959-2.942,1.959-4.728c0-1.548-0.522-3.013-1.482-4.195l7.344-7.281
			c0.036-0.035,0.057-0.079,0.081-0.12c7.331,7.13,17.327,11.534,28.338,11.534c22.432,0,40.682-18.251,40.684-40.685
			C153.398,59.963,135.148,41.715,112.717,41.715z M47.877,155.479c-1.036,1.037-2.413,1.606-3.879,1.606
			c-1.465,0-2.842-0.569-3.877-1.604s-1.604-2.412-1.604-3.877s0.57-2.843,1.611-3.883l25.471-26.123l7.728,7.728
			c0.01,0.01,0.022,0.013,0.032,0.022L47.877,155.479z M75.623,127.023l-1.436,1.473c-0.006-0.007-0.008-0.016-0.014-0.021
			l-7.737-7.738l1.437-1.473c1.037-1.035,2.414-1.605,3.879-1.605s2.842,0.57,3.879,1.605c1.035,1.033,1.605,2.41,1.605,3.875
			C77.235,124.604,76.664,125.982,75.623,127.023z M112.716,121.877c-21.77,0-39.48-17.712-39.48-39.481s17.712-39.48,39.481-39.48
			c21.77,0,39.48,17.71,39.48,39.478C152.197,104.165,134.484,121.877,112.716,121.877z"/>
		<path fill="#142839" d="M128.768,57.787c-0.279-0.178-0.649-0.094-0.828,0.187c-0.176,0.28-0.094,0.65,0.188,0.828
			c8.449,5.339,13.494,14.355,13.494,24.119c0,4.406-1.071,8.828-3.099,12.789c-0.149,0.296-0.032,0.657,0.263,0.809
			c0.088,0.045,0.181,0.065,0.272,0.065c0.217,0,0.428-0.119,0.533-0.327c2.112-4.129,3.229-8.741,3.229-13.336
			C142.82,72.743,137.566,63.348,128.768,57.787z"/>
		<path fill="#142839" d="M120.779,53.693c-2.959-0.973-6.043-1.491-9.166-1.542c-0.002,0-0.006,0-0.01,0
			c-0.326,0-0.595,0.263-0.601,0.591c-0.005,0.331,0.261,0.604,0.591,0.609c3.004,0.049,5.967,0.547,8.811,1.481
			c0.062,0.021,0.125,0.03,0.188,0.03c0.252,0,0.486-0.16,0.57-0.413C121.266,54.136,121.094,53.796,120.779,53.693z"/>
	</g>
</g>
</svg>
