<?xml version="1.0" encoding="utf-8"?>
<!-- Generator: Adobe Illustrator 16.0.0, SVG Export Plug-In . SVG Version: 6.00 Build 0)  -->
<!DOCTYPE svg PUBLIC "-//W3C//DTD SVG 1.1//EN" "http://www.w3.org/Graphics/SVG/1.1/DTD/svg11.dtd">
<svg version="1.1" id="Layer_1" xmlns="http://www.w3.org/2000/svg" xmlns:xlink="http://www.w3.org/1999/xlink" x="0px" y="0px"
	 width="300px" height="300px" viewBox="0 0 300 300" enable-background="new 0 0 300 300" xml:space="preserve">
<path fill="url(#IndicatorGradient)" d="M149.032,81.853c0.532,0.139,1.403,0.139,1.936,0l4.309-1.115c0.532-0.139,1.376-0.062,1.875,0.168
	l4.041,1.867c0.499,0.23,1.355,0.386,1.904,0.345l4.438-0.328c0.549-0.041,1.365,0.185,1.815,0.501l3.643,2.562
	c0.45,0.316,1.266,0.622,1.812,0.681l4.428,0.467c0.547,0.057,1.31,0.425,1.696,0.816l3.125,3.169
	c0.387,0.392,1.134,0.839,1.662,0.993l4.272,1.252c0.528,0.154,1.214,0.652,1.523,1.107l2.508,3.672
	c0.31,0.455,0.966,1.027,1.458,1.274l3.979,1.994c0.492,0.247,1.078,0.859,1.302,1.361l1.814,4.066
	c0.224,0.502,0.767,1.184,1.207,1.514l3.558,2.672c0.439,0.33,0.907,1.038,1.038,1.571l1.059,4.322
	c0.131,0.535,0.544,1.302,0.918,1.705l3.023,3.267c0.374,0.403,0.707,1.183,0.74,1.731l0.271,4.441
	c0.033,0.549,0.303,1.377,0.599,1.841l2.393,3.753c0.296,0.463,0.484,1.289,0.419,1.836l-0.527,4.421
	c-0.065,0.546,0.051,1.409,0.26,1.919l1.684,4.117c0.208,0.51,0.246,1.355,0.084,1.882l-1.308,4.255
	c-0.162,0.525-0.2,1.396-0.087,1.935l0.923,4.354c0.114,0.538,0,1.378-0.253,1.866l-2.047,3.951
	c-0.253,0.488-0.447,1.337-0.431,1.888l0.129,4.447c0.017,0.549-0.245,1.355-0.582,1.791l-2.719,3.521
	c-0.337,0.436-0.679,1.237-0.761,1.781l-0.667,4.402c-0.082,0.543-0.483,1.289-0.892,1.658l-3.307,2.98
	c-0.408,0.369-0.889,1.096-1.066,1.615l-1.444,4.209c-0.179,0.521-0.707,1.184-1.175,1.473l-3.783,2.345
	c-0.467,0.29-1.069,0.919-1.337,1.399l-2.17,3.886c-0.268,0.48-0.906,1.038-1.418,1.239l-4.143,1.629
	c-0.512,0.201-1.217,0.713-1.566,1.138l-2.827,3.433c-0.35,0.424-1.077,0.859-1.617,0.967l-4.369,0.867
	c-0.539,0.106-1.324,0.484-1.744,0.84l-3.396,2.873c-0.42,0.355-1.214,0.652-1.764,0.661l-4.447,0.069
	c-0.55,0.009-1.39,0.24-1.866,0.515l-3.858,2.224c-0.477,0.274-1.31,0.426-1.853,0.336l-4.392-0.724
	c-0.542-0.09-1.41-0.012-1.928,0.174l-4.191,1.498c-0.518,0.186-1.365,0.186-1.883,0l-4.191-1.498
	c-0.518-0.186-1.386-0.264-1.928-0.174l-4.392,0.724c-0.543,0.09-1.376-0.062-1.853-0.336l-3.857-2.224
	c-0.477-0.274-1.316-0.506-1.866-0.515l-4.448-0.069c-0.55-0.009-1.344-0.306-1.764-0.661l-3.396-2.873
	c-0.42-0.355-1.205-0.733-1.745-0.84l-4.367-0.867c-0.539-0.107-1.267-0.543-1.616-0.967l-2.827-3.433
	c-0.35-0.425-1.055-0.937-1.566-1.138l-4.143-1.629c-0.512-0.201-1.15-0.759-1.418-1.239l-2.17-3.886
	c-0.268-0.48-0.87-1.11-1.338-1.399l-3.783-2.345c-0.468-0.289-0.996-0.952-1.175-1.473l-1.443-4.208
	c-0.179-0.521-0.658-1.247-1.067-1.616l-3.305-2.98c-0.409-0.369-0.811-1.115-0.893-1.658l-0.668-4.402
	c-0.082-0.544-0.424-1.346-0.761-1.781l-2.719-3.521c-0.337-0.436-0.599-1.242-0.582-1.791l0.129-4.447
	c0.017-0.551-0.178-1.399-0.431-1.888l-2.047-3.951c-0.253-0.488-0.367-1.328-0.253-1.866l0.923-4.354
	c0.113-0.538,0.075-1.409-0.087-1.935l-1.308-4.255c-0.162-0.526-0.124-1.372,0.084-1.882l1.684-4.117
	c0.209-0.51,0.325-1.373,0.26-1.919l-0.527-4.421c-0.065-0.547,0.123-1.373,0.419-1.836l2.393-3.753
	c0.296-0.464,0.565-1.292,0.599-1.841l0.271-4.441c0.033-0.549,0.366-1.328,0.74-1.731l3.023-3.267
	c0.374-0.403,0.787-1.17,0.918-1.705l1.061-4.322c0.131-0.533,0.599-1.241,1.038-1.571l3.556-2.672
	c0.44-0.33,0.983-1.012,1.207-1.514l1.814-4.066c0.224-0.502,0.81-1.114,1.302-1.361l3.979-1.994
	c0.492-0.247,1.148-0.819,1.459-1.274l2.509-3.672c0.311-0.455,0.996-0.953,1.524-1.107l4.27-1.252
	c0.528-0.154,1.275-0.602,1.662-0.993l3.125-3.169c0.387-0.392,1.149-0.76,1.696-0.816l4.428-0.467
	c0.547-0.059,1.362-0.364,1.812-0.681l3.643-2.562c0.45-0.316,1.267-0.542,1.815-0.501l4.439,0.328
	c0.549,0.041,1.405-0.114,1.904-0.345l4.039-1.867c0.499-0.23,1.343-0.307,1.875-0.168L149.032,81.853z"/>
	<defs>
		<linearGradient id="IndicatorGradient" x1="0%" y1="0%" x2="0%" y2="100%">
			<stop offset="0%"  stop-color="#7ab495"/>
			<stop offset="100%" stop-color="#509c76"/>
		</linearGradient>
	</defs>
</svg>
