<?xml version="1.0" encoding="utf-8"?>
<!-- Generator: Adobe Illustrator 16.0.0, SVG Export Plug-In . SVG Version: 6.00 Build 0)  -->
<!DOCTYPE svg PUBLIC "-//W3C//DTD SVG 1.1//EN" "http://www.w3.org/Graphics/SVG/1.1/DTD/svg11.dtd">
<svg version="1.1" id="Layer_1" xmlns="http://www.w3.org/2000/svg" xmlns:xlink="http://www.w3.org/1999/xlink" x="0px" y="0px"
	 width="200px" height="200px" viewBox="0 0 200 200" enable-background="new 0 0 200 200" xml:space="preserve">
<g>
	<path fill="#142839" d="M142.112,88.879c-0.877-1.237-2.517-1.947-4.542-1.947l-2.957,0.001v-6.05c0-1.985-1.614-3.6-3.6-3.6
		H93.006c-1.478,0-3.544-0.943-4.513-2.059l-2.629-3.029c-1.203-1.387-3.583-2.473-5.419-2.473H60.822c-1.985,0-3.6,1.615-3.6,3.6
		v52.936c0,0.037,0.015,0.07,0.021,0.105c0.02,0.699,0.21,1.361,0.611,1.938c0.875,1.258,2.541,1.977,4.57,1.977h60.3
		c3.663,0,7.327-2.268,8.342-5.164l11.449-32.652C142.972,91.161,142.828,89.889,142.112,88.879z M58.422,73.322
		c0-1.323,1.077-2.4,2.4-2.4h19.623c1.478,0,3.544,0.943,4.513,2.059l2.629,3.029c1.203,1.387,3.583,2.473,5.419,2.473h38.008
		c1.323,0,2.4,1.077,2.4,2.4v6.05l-55.569,0.016c-3.625,0.02-7.294,2.28-8.353,5.145l-11.07,30.15V73.322z M141.383,92.063
		l-11.449,32.653c-0.842,2.404-4.076,4.361-7.209,4.361h-60.3c-1.631,0-2.938-0.533-3.585-1.463
		c-0.478-0.686-0.551-1.531-0.212-2.449l11.991-32.657c0.881-2.387,4.126-4.343,7.23-4.36l59.767-0.017
		c1.587,0,2.869,0.525,3.518,1.44C141.625,90.267,141.711,91.128,141.383,92.063z"/>
	<path fill="#142839" d="M124.977,98.525H83.182c-0.332,0-0.6,0.269-0.6,0.6s0.269,0.6,0.6,0.6h41.795c0.331,0,0.6-0.269,0.6-0.6
		S125.308,98.525,124.977,98.525z"/>
	<path fill="#142839" d="M117.514,118.889h-13.373c-0.331,0-0.6,0.27-0.6,0.6c0,0.332,0.269,0.6,0.6,0.6h13.373
		c0.331,0,0.6-0.268,0.6-0.6C118.113,119.158,117.845,118.889,117.514,118.889z"/>
	<path fill="#142839" d="M97.528,118.889h-21.91c-0.332,0-0.6,0.27-0.6,0.6c0,0.332,0.269,0.6,0.6,0.6h21.91
		c0.332,0,0.6-0.268,0.6-0.6C98.128,119.158,97.86,118.889,97.528,118.889z"/>
	<path fill="#142839" d="M120.098,112.127H78.099c-0.332,0-0.6,0.27-0.6,0.6c0,0.332,0.269,0.6,0.6,0.6h41.999
		c0.331,0,0.6-0.268,0.6-0.6C120.697,112.396,120.429,112.127,120.098,112.127z"/>
	<path fill="#142839" d="M80.724,106.506h12.555c0.332,0,0.6-0.27,0.6-0.6c0-0.332-0.269-0.6-0.6-0.6H80.724
		c-0.332,0-0.6,0.268-0.6,0.6C80.124,106.236,80.392,106.506,80.724,106.506z"/>
	<path fill="#142839" d="M122.514,105.307H99.982c-0.332,0-0.6,0.268-0.6,0.6c0,0.33,0.269,0.6,0.6,0.6h22.531
		c0.331,0,0.6-0.27,0.6-0.6C123.113,105.574,122.845,105.307,122.514,105.307z"/>
</g>
</svg>
