<?xml version="1.0" encoding="utf-8"?>
<!-- Generator: Adobe Illustrator 16.0.0, SVG Export Plug-In . SVG Version: 6.00 Build 0)  -->
<!DOCTYPE svg PUBLIC "-//W3C//DTD SVG 1.1//EN" "http://www.w3.org/Graphics/SVG/1.1/DTD/svg11.dtd">
<svg version="1.1" id="Layer_1" xmlns="http://www.w3.org/2000/svg" xmlns:xlink="http://www.w3.org/1999/xlink" x="0px" y="0px"
	 width="200px" height="200px" viewBox="0 0 200 200" enable-background="new 0 0 200 200" xml:space="preserve">
<g>
	<path fill="#142839" d="M127.621,76.265c-0.319-0.02-0.617,0.226-0.641,0.557c-0.023,0.331,0.226,0.617,0.557,0.641
		c2.869,0.201,5.116,2.63,5.116,5.528v42.1c0,3.057-2.471,5.543-5.507,5.543h-60.3c-3.035,0-5.505-2.486-5.505-5.543v-42.1
		c0-3.056,2.47-5.542,5.505-5.542h46.238c0.331,0,0.6-0.269,0.6-0.6s-0.269-0.6-0.6-0.6H66.847c-3.697,0-6.705,3.025-6.705,6.743
		v42.1c0,3.718,3.008,6.742,6.705,6.742h60.3c3.698,0,6.706-3.024,6.706-6.742v-42.1C133.853,79.464,131.115,76.51,127.621,76.265z"
		/>
	<path fill="#142839" d="M101.142,103.328c0,6.106,5.163,11.073,11.511,11.073c6.352,0,11.519-4.967,11.519-11.073
		c0-6.101-5.167-11.065-11.519-11.065C106.305,92.263,101.142,97.227,101.142,103.328z M122.972,103.328
		c0,5.444-4.63,9.874-10.319,9.874c-5.686,0-10.312-4.43-10.312-9.874c0-5.439,4.626-9.865,10.312-9.865
		C118.342,93.463,122.972,97.889,122.972,103.328z"/>
	<path fill="#142839" d="M109.121,106.961c0.117,0.113,0.268,0.17,0.419,0.17c0.156,0,0.312-0.061,0.43-0.181l6.232-6.399
		c0.231-0.237,0.227-0.617-0.011-0.848c-0.238-0.231-0.618-0.228-0.849,0.011l-6.232,6.398
		C108.879,106.35,108.884,106.729,109.121,106.961z"/>
	<path fill="#142839" d="M83.67,137.93H70.073c-0.331,0-0.6,0.269-0.6,0.6s0.269,0.6,0.6,0.6H83.67c0.332,0,0.601-0.269,0.601-0.6
		S84.002,137.93,83.67,137.93z"/>
	<path fill="#142839" d="M124.315,137.93H110.72c-0.331,0-0.6,0.269-0.6,0.6s0.269,0.6,0.6,0.6h13.596c0.331,0,0.6-0.269,0.6-0.6
		S124.646,137.93,124.315,137.93z"/>
	<path fill="#142839" d="M128.155,69.881h-13.991l9.233-7.956c0.251-0.216,0.279-0.595,0.062-0.846
		c-0.216-0.251-0.595-0.278-0.846-0.063l-11.006,9.482l11.022,8.818c0.11,0.088,0.243,0.131,0.375,0.131
		c0.176,0,0.35-0.077,0.469-0.225c0.207-0.259,0.165-0.637-0.094-0.844l-9.122-7.297h13.896c9.139,0,10.504,7.185,10.504,11.467
		c0,0.332,0.269,0.6,0.6,0.6s0.6-0.269,0.6-0.6C139.858,74.499,135.593,69.881,128.155,69.881z"/>
	<path fill="#142839" d="M74.201,94.973c0-0.49-0.401-0.893-0.892-0.893h-0.486c-0.49,0-0.892,0.402-0.892,0.893v0.486
		c0,0.49,0.401,0.893,0.892,0.893h0.486c0.49,0,0.892-0.402,0.892-0.893V94.973z"/>
	<path fill="#142839" d="M82.171,94.973c0-0.49-0.4-0.893-0.891-0.893h-0.486c-0.49,0-0.893,0.402-0.893,0.893v0.486
		c0,0.49,0.402,0.893,0.893,0.893h0.486c0.49,0,0.891-0.402,0.891-0.893V94.973z"/>
	<path fill="#142839" d="M90.142,94.973c0-0.49-0.401-0.893-0.892-0.893h-0.485c-0.49,0-0.893,0.402-0.893,0.893v0.486
		c0,0.49,0.402,0.893,0.893,0.893h0.485c0.49,0,0.892-0.402,0.892-0.893V94.973z"/>
	<path fill="#142839" d="M74.201,103.186c0-0.49-0.401-0.893-0.892-0.893h-0.486c-0.49,0-0.892,0.402-0.892,0.893v0.486
		c0,0.49,0.401,0.892,0.892,0.892h0.486c0.49,0,0.892-0.401,0.892-0.892V103.186z"/>
	<path fill="#142839" d="M82.171,103.186c0-0.49-0.4-0.893-0.891-0.893h-0.486c-0.49,0-0.893,0.402-0.893,0.893v0.486
		c0,0.49,0.402,0.892,0.893,0.892h0.486c0.49,0,0.891-0.401,0.891-0.892V103.186z"/>
	<path fill="#142839" d="M90.142,103.186c0-0.49-0.401-0.893-0.892-0.893h-0.485c-0.49,0-0.893,0.402-0.893,0.893v0.486
		c0,0.49,0.402,0.892,0.893,0.892h0.485c0.49,0,0.892-0.401,0.892-0.892V103.186z"/>
	<path fill="#142839" d="M73.31,110.535h-0.486c-0.49,0-0.892,0.402-0.892,0.893v0.486c0,0.49,0.401,0.893,0.892,0.893h0.486
		c0.49,0,0.892-0.402,0.892-0.893v-0.486C74.201,110.938,73.8,110.535,73.31,110.535z"/>
	<path fill="#142839" d="M81.28,110.535h-0.486c-0.49,0-0.893,0.402-0.893,0.893v0.486c0,0.49,0.402,0.893,0.893,0.893h0.486
		c0.49,0,0.891-0.402,0.891-0.893v-0.486C82.171,110.938,81.771,110.535,81.28,110.535z"/>
	<path fill="#142839" d="M89.25,110.535h-0.485c-0.49,0-0.893,0.402-0.893,0.893v0.486c0,0.49,0.402,0.893,0.893,0.893h0.485
		c0.49,0,0.892-0.402,0.892-0.893v-0.486C90.142,110.938,89.74,110.535,89.25,110.535z"/>
</g>
</svg>
