<?xml version="1.0" encoding="utf-8"?>
<!-- Generator: Adobe Illustrator 16.0.0, SVG Export Plug-In . SVG Version: 6.00 Build 0)  -->
<!DOCTYPE svg PUBLIC "-//W3C//DTD SVG 1.1//EN" "http://www.w3.org/Graphics/SVG/1.1/DTD/svg11.dtd">
<svg version="1.1" id="Layer_1" xmlns="http://www.w3.org/2000/svg" xmlns:xlink="http://www.w3.org/1999/xlink" x="0px" y="0px"
	 width="200px" height="200px" viewBox="0 0 200 200" enable-background="new 0 0 200 200" xml:space="preserve">
<g>
	<path fill="#142839" d="M142.112,88.879c-0.877-1.237-2.517-1.946-4.542-1.946l-2.956,0.001v-6.051c0-1.984-1.614-3.6-3.6-3.6
		H93.006c-1.478,0-3.544-0.943-4.513-2.059l-2.629-3.029c-1.203-1.387-3.583-2.473-5.419-2.473H60.822c-1.985,0-3.6,1.615-3.6,3.6
		v52.936c0,0.037,0.015,0.069,0.021,0.105c0.02,0.698,0.21,1.361,0.611,1.938c0.875,1.257,2.541,1.977,4.57,1.977h60.301
		c3.662,0,7.326-2.269,8.342-5.165l11.449-32.651C142.972,91.161,142.828,89.89,142.112,88.879z M58.422,73.322
		c0-1.323,1.077-2.399,2.4-2.399h19.623c1.478,0,3.544,0.942,4.513,2.059l2.629,3.029c1.203,1.387,3.583,2.473,5.419,2.473h38.009
		c1.323,0,2.4,1.076,2.4,2.399v6.051l-55.571,0.016c-3.625,0.021-7.294,2.28-8.353,5.146l-11.069,30.147V73.322z M141.384,92.063
		l-11.449,32.652c-0.843,2.405-4.077,4.362-7.209,4.362H62.425c-1.631,0-2.938-0.533-3.585-1.463
		c-0.478-0.686-0.551-1.532-0.212-2.449l11.99-32.656c0.881-2.387,4.126-4.343,7.23-4.36l59.768-0.017
		c1.587,0,2.869,0.524,3.518,1.44C141.625,90.267,141.712,91.128,141.384,92.063z"/>
	<path fill="#142839" d="M118.794,99.4c-6.21,0.024-12.628,3.848-14.306,8.523c-0.718,2-0.501,3.973,0.609,5.552
		c1.485,2.11,4.367,3.32,7.906,3.32h0.027c6.236-0.011,12.659-3.839,14.316-8.532c0.708-2.005,0.483-3.979-0.635-5.559
		C125.228,100.604,122.363,99.4,118.794,99.4z M126.217,107.864c-1.503,4.253-7.418,7.722-13.188,7.732l-0.025,0.6v-0.6
		c-3.144,0-5.667-1.025-6.925-2.812c-0.893-1.27-1.052-2.811-0.461-4.456c1.521-4.239,7.434-7.706,13.237-7.729
		c3.113,0,5.62,1.02,6.878,2.797C126.633,104.669,126.8,106.213,126.217,107.864z"/>
	<path fill="#142839" d="M119.58,105.104l-7.966,4.967c-0.281,0.175-0.367,0.545-0.191,0.826c0.113,0.183,0.31,0.282,0.51,0.282
		c0.108,0,0.218-0.029,0.316-0.091l7.966-4.966c0.281-0.175,0.367-0.545,0.191-0.826
		C120.232,105.015,119.862,104.931,119.58,105.104z"/>
	<path fill="#142839" d="M79.351,101.09l-0.568,0.003c-0.572,0.002-1.175,0.366-1.338,0.81l-0.16,0.439
		c-0.163,0.442,0.174,0.804,0.746,0.802l0.567-0.002c0.572-0.002,1.174-0.366,1.335-0.81l0.162-0.439
		C80.256,101.449,79.921,101.088,79.351,101.09z"/>
	<path fill="#142839" d="M87.234,101.055l-0.566,0.003c-0.572,0.001-1.174,0.367-1.336,0.811l-0.16,0.439
		c-0.162,0.443,0.175,0.806,0.747,0.803l0.566-0.001c0.574-0.003,1.175-0.368,1.335-0.812l0.161-0.44
		C88.143,101.415,87.807,101.053,87.234,101.055z"/>
	<path fill="#142839" d="M95.12,101.02l-0.567,0.002c-0.572,0.003-1.172,0.368-1.334,0.812l-0.159,0.44
		c-0.161,0.444,0.177,0.807,0.749,0.804l0.567-0.002c0.571-0.002,1.172-0.367,1.333-0.812l0.16-0.44
		C96.029,101.38,95.691,101.018,95.12,101.02z"/>
	<path fill="#142839" d="M77.002,107.438l-0.567,0.001c-0.573,0.002-1.177,0.367-1.339,0.81l-0.161,0.438
		c-0.163,0.443,0.175,0.805,0.748,0.804l0.568-0.002c0.573-0.001,1.175-0.366,1.336-0.81l0.161-0.438
		C77.91,107.799,77.576,107.437,77.002,107.438z"/>
	<path fill="#142839" d="M84.863,107.316l-0.567,0.002c-0.573,0.001-1.176,0.366-1.337,0.81l-0.161,0.44
		c-0.161,0.442,0.177,0.805,0.749,0.803l0.567-0.001c0.573-0.002,1.176-0.366,1.336-0.811l0.161-0.438
		C85.772,107.678,85.436,107.314,84.863,107.316z"/>
	<path fill="#142839" d="M92.845,107.373l-0.569,0.001c-0.572,0.002-1.174,0.368-1.334,0.812l-0.16,0.44
		c-0.16,0.443,0.177,0.806,0.75,0.804l0.569-0.001c0.571-0.002,1.173-0.367,1.335-0.811l0.158-0.439
		C93.754,107.734,93.416,107.371,92.845,107.373z"/>
	<path fill="#142839" d="M74.67,113.771l-0.569,0.001c-0.573,0.001-1.178,0.366-1.34,0.81L72.6,115.02
		c-0.163,0.443,0.176,0.807,0.749,0.805l0.57-0.001c0.573-0.001,1.175-0.365,1.338-0.808l0.16-0.439
		C75.579,114.133,75.243,113.77,74.67,113.771z"/>
	<path fill="#142839" d="M82.583,113.77l-0.568,0.002c-0.573,0.001-1.177,0.366-1.338,0.81l-0.161,0.438
		c-0.161,0.444,0.177,0.808,0.751,0.807l0.568-0.002c0.574,0,1.176-0.365,1.338-0.809l0.159-0.439
		C83.494,114.133,83.157,113.77,82.583,113.77z"/>
	<path fill="#142839" d="M90.581,113.686l-0.568,0.002c-0.575,0-1.176,0.365-1.338,0.81l-0.159,0.44
		c-0.16,0.443,0.178,0.807,0.751,0.806l0.57-0.001c0.572-0.001,1.176-0.366,1.336-0.811l0.159-0.439
		C91.493,114.049,91.153,113.685,90.581,113.686z"/>
</g>
</svg>
