<?xml version="1.0" encoding="utf-8"?>
<!-- Generator: Adobe Illustrator 16.0.0, SVG Export Plug-In . SVG Version: 6.00 Build 0)  -->
<!DOCTYPE svg PUBLIC "-//W3C//DTD SVG 1.1//EN" "http://www.w3.org/Graphics/SVG/1.1/DTD/svg11.dtd">
<svg version="1.1" id="Layer_1" xmlns="http://www.w3.org/2000/svg" xmlns:xlink="http://www.w3.org/1999/xlink" x="0px" y="0px"
	 width="200px" height="200px" viewBox="0 0 200 200" enable-background="new 0 0 200 200" xml:space="preserve">
<g>
	<g opacity="0.35">
		<path fill="#142839" d="M162.635,83.105H94.772c-3.994,0-7.244,3.27-7.244,7.288v47.378c0,4.018,3.25,7.287,7.244,7.287h67.863
			c3.994,0,7.246-3.271,7.246-7.287V90.394C169.881,86.375,166.629,83.105,162.635,83.105z M169.131,137.771
			c0,3.604-2.914,6.537-6.496,6.537H94.772c-3.581,0-6.494-2.934-6.494-6.537V90.394c0-3.604,2.913-6.538,6.494-6.538h67.863
			c3.582,0,6.496,2.934,6.496,6.538V137.771L169.131,137.771z"/>
		<path fill="#142839" d="M113.705,152.521h-15.3c-0.207,0-0.375,0.168-0.375,0.375s0.168,0.375,0.375,0.375h15.3
			c0.207,0,0.375-0.168,0.375-0.375S113.912,152.521,113.705,152.521z"/>
		<path fill="#142839" d="M159.447,152.521h-15.301c-0.207,0-0.375,0.168-0.375,0.375s0.168,0.375,0.375,0.375h15.301
			c0.207,0,0.375-0.168,0.375-0.375S159.654,152.521,159.447,152.521z"/>
	</g>
	<g>
		<path fill="#142839" d="M105.52,41.715c-22.431,0-40.681,18.249-40.681,40.68c0,11.011,4.404,21.007,11.533,28.339
			c-0.039,0.023-0.082,0.041-0.115,0.076l-7.338,7.273c-1.214-1.049-2.743-1.627-4.363-1.627c-1.785,0-3.464,0.695-4.732,1.963
			l-27.745,28.456c-1.262,1.263-1.958,2.94-1.958,4.726c0,1.787,0.695,3.465,1.957,4.728c1.262,1.262,2.94,1.957,4.726,1.957
			c1.786,0,3.465-0.695,4.732-1.966l27.746-28.452c1.264-1.265,1.959-2.942,1.959-4.729c0-1.547-0.522-3.011-1.482-4.195l7.344-7.28
			c0.036-0.035,0.057-0.078,0.081-0.119c7.331,7.13,17.327,11.533,28.337,11.533c22.431,0,40.681-18.25,40.683-40.684
			C146.201,59.962,127.951,41.715,105.52,41.715z M40.68,155.479c-1.036,1.035-2.413,1.606-3.878,1.606
			c-1.465,0-2.842-0.569-3.877-1.604c-1.035-1.035-1.605-2.412-1.605-3.879c0-1.465,0.571-2.842,1.612-3.883l25.47-26.121
			l7.727,7.728c0.01,0.01,0.023,0.013,0.033,0.021L40.68,155.479z M70.04,123.139c-0.001,1.467-0.572,2.844-1.613,3.885
			l-1.436,1.473c-0.005-0.006-0.007-0.016-0.013-0.021l-7.738-7.736l1.437-1.475c1.036-1.035,2.414-1.604,3.878-1.604
			c1.464,0,2.842,0.569,3.878,1.604C69.469,120.298,70.04,121.674,70.04,123.139z M105.52,121.877
			c-21.77,0-39.48-17.712-39.48-39.482c0-21.769,17.712-39.479,39.48-39.479c21.771,0,39.48,17.709,39.48,39.478
			C145,104.164,127.289,121.877,105.52,121.877z"/>
		<path fill="#142839" d="M121.57,57.787c-0.279-0.177-0.65-0.093-0.828,0.187c-0.176,0.28-0.094,0.65,0.188,0.828
			c8.449,5.339,13.494,14.355,13.494,24.119c0,5.186-1.451,10.285-4.197,14.747c-0.174,0.282-0.086,0.651,0.197,0.825
			c0.098,0.061,0.205,0.09,0.312,0.09c0.201,0,0.397-0.102,0.512-0.286c2.863-4.651,4.375-9.968,4.375-15.376
			C135.623,72.743,130.369,63.347,121.57,57.787z"/>
		<path fill="#142839" d="M113.582,53.693c-2.959-0.972-6.041-1.491-9.164-1.542c-0.004,0-0.008,0-0.01,0
			c-0.328,0-0.596,0.262-0.602,0.59c-0.005,0.332,0.26,0.604,0.592,0.61c3.002,0.048,5.965,0.547,8.809,1.481
			c0.062,0.021,0.125,0.03,0.188,0.03c0.252,0,0.486-0.16,0.57-0.413C114.068,54.135,113.896,53.796,113.582,53.693z"/>
	</g>
</g>
</svg>
